<svg width="1153" height="1152" viewBox="0 0 1153 1152" fill="none" xmlns="http://www.w3.org/2000/svg">
<rect width="1153" height="1152" fill="white"/>
<path d="M836 538C836 690.983 711.983 815 559 815C406.017 815 282 690.983 282 538C282 385.017 406.017 261 559 261C711.983 261 836 385.017 836 538Z" fill="white"/>
<path d="M641 517C641 471.713 604.287 435 559 435C513.713 435 477 471.713 477 517C477 562.287 513.713 599 559 599C604.287 599 641 562.287 641 517Z" fill="#EDF3FF"/>
<path fill-rule="evenodd" clip-rule="evenodd" d="M408 770.263V760C408 679.919 472.919 615 553 615H565C645.081 615 710 679.919 710 760V770.263C666.566 798.558 614.703 815 559 815C503.297 815 451.434 798.558 408 770.263Z" fill="#EDF3FF"/>
</svg>
