<?xml version="1.0" encoding="utf-8"?>
<!-- Generator: Adobe Illustrator 24.3.0, SVG Export Plug-In . SVG Version: 6.00 Build 0)  -->
<svg version="1.1" xmlns="http://www.w3.org/2000/svg" xmlns:xlink="http://www.w3.org/1999/xlink" x="0px" y="0px"
	 viewBox="0 0 500 500" style="enable-background:new 0 0 500 500;" xml:space="preserve">
<g id="Background_Complete">
	<g>
		<g>
			<g>
				<g>
					<g>
						<rect x="95.77" y="97.07" style="fill:#FAFAFA;" width="68.72" height="61.48"/>
					</g>
				</g>
			</g>
			<g>
				<g>
					<g>
						<g>
							<path style="fill:#E0E0E0;" d="M164.5,158.55c0,0-0.01-0.39-0.02-1.14c0-0.75-0.01-1.86-0.02-3.29
								c-0.01-2.89-0.02-7.11-0.04-12.48c-0.02-10.74-0.05-26.09-0.08-44.57l0.16,0.16c-19.79,0.01-43.41,0.02-68.72,0.03h-0.01
								l0.18-0.18c-0.01,22.37-0.02,43.42-0.02,61.48l-0.16-0.16c20.5,0.03,37.66,0.06,49.71,0.08c6.03,0.02,10.77,0.03,14.02,0.04
								c1.62,0.01,2.86,0.01,3.71,0.02c0.42,0,0.73,0.01,0.96,0.01C164.38,158.54,164.5,158.55,164.5,158.55s-0.1,0.01-0.31,0.01
								c-0.22,0-0.53,0.01-0.94,0.01c-0.84,0-2.08,0.01-3.68,0.02c-3.24,0.01-7.97,0.02-13.98,0.04
								c-12.07,0.02-29.27,0.05-49.81,0.08l-0.16,0v-0.16c-0.01-18.07-0.01-39.12-0.02-61.48v-0.18h0.18h0.01
								c25.31,0.01,48.93,0.02,68.72,0.03h0.16l0,0.16c-0.03,18.52-0.06,33.9-0.08,44.67c-0.02,5.36-0.03,9.57-0.04,12.45
								c-0.01,1.42-0.01,2.52-0.02,3.26C164.51,158.18,164.5,158.55,164.5,158.55z"/>
						</g>
					</g>
				</g>
			</g>
		</g>
		<g>
			<g>
				<g>
					<g>
						<path style="fill:#E0E0E0;" d="M122.12,107.99c0,0.1-3.62,0.18-8.08,0.18c-4.46,0-8.08-0.08-8.08-0.18
							c0-0.1,3.62-0.18,8.08-0.18C118.5,107.81,122.12,107.89,122.12,107.99z"/>
					</g>
				</g>
			</g>
		</g>
		<g>
			<g>
				<g>
					<g>
						<path style="fill:#E0E0E0;" d="M151.24,112.61c0,0.1-9.94,0.18-22.19,0.18c-12.26,0-22.2-0.08-22.2-0.18
							c0-0.1,9.94-0.18,22.2-0.18C141.3,112.42,151.24,112.51,151.24,112.61z"/>
					</g>
				</g>
			</g>
		</g>
		<g>
			<g>
				<g>
					<rect x="106.08" y="120.43" style="fill:#E0E0E0;" width="2.9" height="2.9"/>
				</g>
			</g>
		</g>
		<g>
			<g>
				<g>
					<rect x="113.21" y="120.43" style="fill:#E0E0E0;" width="2.9" height="2.9"/>
				</g>
			</g>
		</g>
		<g>
			<g>
				<g>
					<rect x="120.47" y="120.3" style="fill:#E0E0E0;" width="2.9" height="2.9"/>
				</g>
			</g>
		</g>
		<g>
			<g>
				<g>
					<rect x="127.46" y="120.43" style="fill:#E0E0E0;" width="2.9" height="2.9"/>
				</g>
			</g>
		</g>
		<g>
			<g>
				<g>
					<rect x="134.59" y="120.43" style="fill:#E0E0E0;" width="2.9" height="2.9"/>
				</g>
			</g>
		</g>
		<g>
			<g>
				<g>
					<rect x="141.72" y="120.43" style="fill:#E0E0E0;" width="2.9" height="2.9"/>
				</g>
			</g>
		</g>
		<g>
			<g>
				<g>
					<rect x="148.84" y="120.43" style="fill:#EBEBEB;" width="2.9" height="2.9"/>
				</g>
			</g>
		</g>
		<g>
			<g>
				<g>
					<rect x="106.08" y="126.58" style="fill:#EBEBEB;" width="2.9" height="2.9"/>
				</g>
			</g>
		</g>
		<g>
			<g>
				<g>
					<rect x="113.21" y="126.58" style="fill:#E0E0E0;" width="2.9" height="2.9"/>
				</g>
			</g>
		</g>
		<g>
			<g>
				<g>
					<rect x="120.34" y="126.58" style="fill:#EBEBEB;" width="2.9" height="2.9"/>
				</g>
			</g>
		</g>
		<g>
			<g>
				<g>
					<rect x="127.46" y="126.58" style="fill:#E0E0E0;" width="2.9" height="2.9"/>
				</g>
			</g>
		</g>
		<g>
			<g>
				<g>
					<rect x="134.59" y="126.58" style="fill:#E0E0E0;" width="2.9" height="2.9"/>
				</g>
			</g>
		</g>
		<g>
			<g>
				<g>
					<rect x="141.85" y="126.45" style="fill:#E0E0E0;" width="2.9" height="2.9"/>
				</g>
			</g>
		</g>
		<g>
			<g>
				<g>
					<rect x="148.84" y="126.58" style="fill:#E0E0E0;" width="2.9" height="2.9"/>
				</g>
			</g>
		</g>
		<g>
			<g>
				<g>
					<rect x="106.08" y="132.74" style="fill:#E0E0E0;" width="2.9" height="2.9"/>
				</g>
			</g>
		</g>
		<g>
			<g>
				<g>
					<rect x="113.34" y="132.61" style="fill:#E0E0E0;" width="2.9" height="2.9"/>
				</g>
			</g>
		</g>
		<g>
			<g>
				<g>
					<rect x="120.34" y="132.74" style="fill:#E0E0E0;" width="2.9" height="2.9"/>
				</g>
			</g>
		</g>
		<g>
			<g>
				<g>
					<rect x="127.46" y="132.74" style="fill:#EBEBEB;" width="2.9" height="2.9"/>
				</g>
			</g>
		</g>
		<g>
			<g>
				<g>
					<rect x="134.59" y="132.74" style="fill:#E0E0E0;" width="2.9" height="2.9"/>
				</g>
			</g>
		</g>
		<g>
			<g>
				<g>
					<rect x="141.72" y="132.74" style="fill:#E0E0E0;" width="2.9" height="2.9"/>
				</g>
			</g>
		</g>
		<g>
			<g>
				<g>
					<rect x="148.84" y="132.74" style="fill:#E0E0E0;" width="2.9" height="2.9"/>
				</g>
			</g>
		</g>
		<g>
			<g>
				<g>
					<rect x="106.08" y="138.89" style="fill:#E0E0E0;" width="2.9" height="2.9"/>
				</g>
			</g>
		</g>
		<g>
			<g>
				<g>
					<rect x="113.21" y="138.89" style="fill:#E0E0E0;" width="2.9" height="2.9"/>
				</g>
			</g>
		</g>
		<g>
			<g>
				<g>
					<rect x="120.34" y="138.89" style="fill:#E0E0E0;" width="2.9" height="2.9"/>
				</g>
			</g>
		</g>
		<g>
			<g>
				<g>
					<rect x="127.6" y="138.76" style="fill:#E0E0E0;" width="2.9" height="2.9"/>
				</g>
			</g>
		</g>
		<g>
			<g>
				<g>
					<rect x="134.59" y="138.89" style="fill:#E0E0E0;" width="2.9" height="2.9"/>
				</g>
			</g>
		</g>
		<g>
			<g>
				<g>
					<rect x="141.72" y="138.89" style="fill:#EBEBEB;" width="2.9" height="2.9"/>
				</g>
			</g>
		</g>
		<g>
			<g>
				<g>
					<rect x="148.84" y="138.89" style="fill:#E0E0E0;" width="2.9" height="2.9"/>
				</g>
			</g>
		</g>
		<g>
			<g>
				<g>
					<rect x="106.08" y="145.05" style="fill:#E0E0E0;" width="2.9" height="2.9"/>
				</g>
			</g>
		</g>
		<g>
			<g>
				<g>
					<rect x="113.21" y="145.05" style="fill:#EBEBEB;" width="2.9" height="2.9"/>
				</g>
			</g>
		</g>
		<g>
			<g>
				<g>
					<rect x="120.34" y="145.05" style="fill:#E0E0E0;" width="2.9" height="2.9"/>
				</g>
			</g>
		</g>
		<g>
			<g>
				<g>
					<rect x="127.46" y="145.05" style="fill:#E0E0E0;" width="2.9" height="2.9"/>
				</g>
			</g>
		</g>
		<g>
			<g>
				<g>
					<rect x="134.59" y="145.05" style="fill:#E0E0E0;" width="2.9" height="2.9"/>
				</g>
			</g>
		</g>
		<g>
			<g>
				<g>
					<rect x="141.85" y="144.92" style="fill:#E0E0E0;" width="2.9" height="2.9"/>
				</g>
			</g>
		</g>
		<g>
			<g>
				<g>
					<rect x="148.84" y="145.05" style="fill:#E0E0E0;" width="2.9" height="2.9"/>
				</g>
			</g>
		</g>
	</g>
	<g>
		<g>
			<g>
				<rect x="359.47" y="98.32" style="fill:#FFFFFF;" width="48.68" height="48.68"/>
			</g>
			<g>
				<g>
					<path style="fill:#E0E0E0;" d="M408.16,147c0,0-0.01-0.08-0.01-0.23c0-0.16-0.01-0.39-0.01-0.68c0-0.61-0.01-1.48-0.02-2.62
						c-0.01-2.3-0.02-5.65-0.04-9.91c-0.02-8.52-0.05-20.67-0.08-35.24l0.16,0.16c-14.15,0.01-30.86,0.02-48.68,0.03h0l0.19-0.19
						c-0.01,17.83-0.02,34.53-0.03,48.68l-0.16-0.16c14.57,0.03,26.72,0.06,35.24,0.08c4.26,0.02,7.61,0.03,9.91,0.04
						c1.14,0.01,2.02,0.01,2.62,0.02c0.29,0,0.51,0.01,0.68,0.01C408.07,147,408.16,147,408.16,147s-0.07,0.01-0.22,0.01
						c-0.16,0-0.38,0.01-0.66,0.01c-0.6,0-1.46,0.01-2.59,0.02c-2.29,0.01-5.63,0.02-9.87,0.04c-8.54,0.02-20.73,0.05-35.35,0.08
						l-0.16,0l0-0.16c-0.01-14.15-0.02-30.86-0.03-48.68l0-0.19h0.19h0c17.82,0.01,34.53,0.02,48.68,0.03l0.16,0l0,0.16
						c-0.03,14.61-0.06,26.8-0.08,35.34c-0.02,4.24-0.03,7.58-0.04,9.87c-0.01,1.13-0.01,1.99-0.02,2.59c0,0.28-0.01,0.5-0.01,0.66
						C408.16,146.93,408.16,147,408.16,147z"/>
				</g>
			</g>
		</g>
		<g>
			<g>
				<path style="fill:#E0E0E0;" d="M407.95,110.78c0,0.1-10.85,0.19-24.24,0.19c-13.39,0-24.24-0.08-24.24-0.19
					c0-0.1,10.85-0.19,24.24-0.19C397.09,110.59,407.95,110.68,407.95,110.78z"/>
			</g>
		</g>
		<g>
			<circle style="fill:#E0E0E0;" cx="364.21" cy="104.29" r="1.38"/>
		</g>
		<g>
			<circle style="fill:#E0E0E0;" cx="368.42" cy="104.29" r="1.38"/>
		</g>
		<g>
			<path style="fill:#E0E0E0;" d="M374.01,104.29c0,0.76-0.62,1.38-1.38,1.38c-0.76,0-1.38-0.62-1.38-1.38s0.62-1.38,1.38-1.38
				C373.39,102.92,374.01,103.53,374.01,104.29z"/>
		</g>
		<g>
			<circle style="fill:#EBEBEB;" cx="369.33" cy="121.14" r="3.96"/>
		</g>
		<g>
			<path style="fill:#EBEBEB;" d="M373.29,135.67c0,2.19-1.77,3.96-3.96,3.96c-2.19,0-3.96-1.77-3.96-3.96
				c0-2.19,1.77-3.96,3.96-3.96C371.52,131.71,373.29,133.48,373.29,135.67z"/>
		</g>
		<g>
			<g>
				<path style="fill:#E0E0E0;" d="M400.89,120.82c0,0.1-5.41,0.19-12.09,0.19c-6.68,0-12.09-0.08-12.09-0.19
					c0-0.1,5.41-0.19,12.09-0.19C395.48,120.63,400.89,120.71,400.89,120.82z"/>
			</g>
		</g>
		<g>
			<g>
				<path style="fill:#E0E0E0;" d="M385.42,135.6c0,0.1-1.92,0.19-4.3,0.19c-2.37,0-4.3-0.08-4.3-0.19c0-0.1,1.92-0.19,4.3-0.19
					C383.5,135.41,385.42,135.49,385.42,135.6z"/>
			</g>
		</g>
		<g>
			<circle style="fill:#E0E0E0;" cx="400.89" cy="139.05" r="15.35"/>
		</g>
		<g>
			<g>
				<rect x="400.9" y="133.23" style="fill:#FFFFFF;" width="1.43" height="11.39"/>
			</g>
			<g>
				<rect x="395.92" y="138.21" style="fill:#FFFFFF;" width="11.39" height="1.43"/>
			</g>
		</g>
	</g>
	<g>
		<g>
			
				<ellipse transform="matrix(0.9209 -0.3898 0.3898 0.9209 -90.4174 62.2815)" style="fill:#E0E0E0;" cx="108.25" cy="253.92" rx="15.35" ry="15.35"/>
		</g>
		<g>
			<g>
				<rect x="108.26" y="248.1" style="fill:#FFFFFF;" width="1.43" height="11.39"/>
			</g>
			<g>
				<rect x="103.28" y="253.08" style="fill:#FFFFFF;" width="11.39" height="1.43"/>
			</g>
		</g>
	</g>
	<g>
		<g>
			<g>
				<g>
					<g>
						<g>
							<g>
								<g>
									<g>
										<rect x="190.1" y="322.05" style="fill:#F5F5F5;" width="104.23" height="48.07"/>
									</g>
								</g>
							</g>
						</g>
					</g>
				</g>
				<g>
					<g>
						<g>
							<g>
								<g>
									<g>
										<path style="fill:#E0E0E0;" d="M291.85,367.85h-99.36v-43.27h99.36V367.85z M193.14,367.2h98.07v-41.98h-98.07V367.2z"/>
									</g>
								</g>
							</g>
						</g>
					</g>
				</g>
				<g>
					<g>
						<g>
							<g>
								<g>
									<g>
										<rect x="294.33" y="322.05" style="fill:#E0E0E0;" width="25.46" height="48.07"/>
									</g>
								</g>
							</g>
						</g>
					</g>
				</g>
				<g>
					<g>
						<g>
							<g>
								<g>
									<g>
										<g>
											<path style="fill:#E0E0E0;" d="M192.81,337.97c11.17,0,22.33,0,33.5,0c17.64,0,35.28,0,52.93,0c4.1,0,8.19,0,12.29,0
												c0.17,0,0.17-0.26,0-0.26c-11.17,0-22.33,0-33.5,0c-17.64,0-35.28,0-52.93,0c-4.1,0-8.19,0-12.29,0
												C192.64,337.71,192.64,337.97,192.81,337.97L192.81,337.97z"/>
										</g>
									</g>
								</g>
							</g>
						</g>
					</g>
				</g>
				<g>
					<g>
						<g>
							<g>
								<g>
									<g>
										<g>
											<path style="fill:#E0E0E0;" d="M242.49,337.84c0.3-4.27,0.26-8.79,0.03-13.06c-0.01-0.17-0.26-0.17-0.27,0
												c-0.23,4.27-0.26,8.79,0.03,13.06C242.3,337.97,242.48,337.97,242.49,337.84L242.49,337.84z"/>
										</g>
									</g>
								</g>
							</g>
						</g>
					</g>
				</g>
				<g>
					<g>
						<g>
							<g>
								<g>
									<g>
										<path style="fill:#E0E0E0;" d="M269.06,331.31c0,0.74-0.6,1.34-1.34,1.34c-0.74,0-1.34-0.6-1.34-1.34s0.6-1.34,1.34-1.34
											C268.46,329.97,269.06,330.57,269.06,331.31z"/>
									</g>
								</g>
							</g>
						</g>
					</g>
				</g>
				<g>
					<g>
						<g>
							<g>
								<g>
									<g>
										<path style="fill:#E0E0E0;" d="M217.26,331.31c0,0.74-0.6,1.34-1.34,1.34c-0.74,0-1.34-0.6-1.34-1.34s0.6-1.34,1.34-1.34
											C216.66,329.97,217.26,330.57,217.26,331.31z"/>
									</g>
								</g>
							</g>
						</g>
					</g>
				</g>
				<g>
					<g>
						<g>
							<g>
								<g>
									<g>
										<path style="fill:#E0E0E0;" d="M243.51,346.22c0,0.74-0.6,1.34-1.34,1.34c-0.74,0-1.34-0.6-1.34-1.34
											c0-0.74,0.6-1.34,1.34-1.34C242.91,344.87,243.51,345.47,243.51,346.22z"/>
									</g>
								</g>
							</g>
						</g>
					</g>
				</g>
				<g>
					<g>
						<g>
							<g>
								<g>
									<g>
										<polygon style="fill:#E0E0E0;" points="202.56,370.12 197.2,400.3 200.22,400.3 210.11,370.12 										"/>
									</g>
								</g>
							</g>
						</g>
					</g>
				</g>
				<g>
					<g>
						<g>
							<g>
								<g>
									<g>
										<polygon style="fill:#E0E0E0;" points="286.96,370.12 291.45,400.35 288.43,400.35 279.41,370.12 										"/>
									</g>
								</g>
							</g>
						</g>
					</g>
				</g>
				<g>
					<g>
						<g>
							<g>
								<g>
									<g>
										<polygon style="fill:#E0E0E0;" points="307.11,370.12 312.19,400.35 309.17,400.35 299.56,370.12 										"/>
									</g>
								</g>
							</g>
						</g>
					</g>
				</g>
				<g>
					<g>
						<g>
							<g>
								<g>
									<g>
										<path style="fill:#E0E0E0;" d="M243.42,359.82c0,0.74-0.6,1.34-1.34,1.34c-0.74,0-1.34-0.6-1.34-1.34
											c0-0.74,0.6-1.34,1.34-1.34C242.82,358.47,243.42,359.08,243.42,359.82z"/>
									</g>
								</g>
							</g>
						</g>
					</g>
				</g>
				<g>
					<g>
						<g>
							<g>
								<g>
									<g>
										<g>
											<path style="fill:#E0E0E0;" d="M192.81,352.86c11.17,0,22.33,0,33.5,0c17.64,0,35.28,0,52.93,0c4.1,0,8.19,0,12.29,0
												c0.17,0,0.17-0.26,0-0.26c-11.17,0-22.33,0-33.5,0c-17.64,0-35.28,0-52.93,0c-4.1,0-8.19,0-12.29,0
												C192.64,352.59,192.64,352.86,192.81,352.86L192.81,352.86z"/>
										</g>
									</g>
								</g>
							</g>
						</g>
					</g>
				</g>
			</g>
		</g>
	</g>
</g>
<g id="Background_Simple" style="display:none;">
	<g style="display:inline;">
		<path style="fill:#F5F5F5;" d="M428.38,104.85l-2.43-4.01c-20.52-33.81-57.61-54.19-96.72-51.72c-5.03,0.32-10.03,1-14.97,2.06
			c-35.56,7.61-66.5,34.5-79.32,68.94c-7.54,20.25-9.65,43.57-23.96,59.65c-18.63,20.92-50.25,21.58-78.06,20.71
			c-27.8-0.87-59.45-0.13-77.99,20.88c-11.61,13.15-15.3,31.86-14.36,49.48c2.48,46.64,34.98,88.35,76.31,109.07
			c41.33,20.73,90,22.59,135.23,13.47c63.37-12.77,123.63-47.86,159.86-102.04C448.2,237.15,457.37,163.33,428.38,104.85z"/>
	</g>
</g>
<g id="Floor">
	<g>
		<g>
			<path style="fill:#263238;" d="M401.67,400.43c0,0.1-69.98,0.19-156.28,0.19c-86.33,0-156.29-0.08-156.29-0.19
				s69.96-0.19,156.29-0.19C331.69,400.24,401.67,400.33,401.67,400.43z"/>
		</g>
	</g>
</g>
<g id="Screen">
	<g>
		<g>
			<g>
				<g>
					<g>
						<rect x="133.38" y="121.85" style="fill:#FFFFFF;" width="214.57" height="189.05"/>
					</g>
				</g>
				<g>
					<g>
						<rect x="133.38" y="236.95" style="fill:#FFFFFF;" width="214.57" height="31.94"/>
					</g>
				</g>
				<g>
					<g>
						<rect x="133.38" y="200.41" style="fill:#F5F5F5;" width="214.57" height="36.55"/>
					</g>
				</g>
				<g>
					<g>
						<rect x="133.38" y="274.11" style="fill:#F5F5F5;" width="214.57" height="36.55"/>
					</g>
				</g>
				<g>
					<g>
						<g>
							<path style="fill:#263238;" d="M262.93,211.79c0,0.1-25.3,0.19-56.51,0.19c-31.22,0-56.52-0.08-56.52-0.19
								c0-0.1,25.3-0.19,56.52-0.19C237.63,211.6,262.93,211.69,262.93,211.79z"/>
						</g>
					</g>
				</g>
				<g>
					<g>
						<g>
							<path style="fill:#263238;" d="M197.61,221.96c0,0.1-10.75,0.19-24.02,0.19c-13.27,0-24.02-0.08-24.02-0.19
								s10.75-0.19,24.02-0.19C186.86,221.77,197.61,221.86,197.61,221.96z"/>
						</g>
					</g>
				</g>
				<g>
					<g>
						<g>
							<path style="fill:#263238;" d="M262.93,247.84c0,0.1-25.3,0.19-56.51,0.19c-31.22,0-56.52-0.08-56.52-0.19
								c0-0.1,25.3-0.19,56.52-0.19C237.63,247.65,262.93,247.73,262.93,247.84z"/>
						</g>
					</g>
				</g>
				<g>
					<g>
						<g>
							<path style="fill:#263238;" d="M197.61,258.01c0,0.1-10.75,0.19-24.02,0.19c-13.27,0-24.02-0.08-24.02-0.19
								s10.75-0.19,24.02-0.19C186.86,257.82,197.61,257.9,197.61,258.01z"/>
						</g>
					</g>
				</g>
				<g>
					<g>
						<g>
							<path style="fill:#263238;" d="M262.93,283.88c0,0.1-25.3,0.19-56.51,0.19c-31.22,0-56.52-0.08-56.52-0.19
								c0-0.1,25.3-0.19,56.52-0.19C237.63,283.7,262.93,283.78,262.93,283.88z"/>
						</g>
					</g>
				</g>
				<g>
					<g>
						<g>
							<path style="fill:#263238;" d="M197.61,294.06c0,0.1-10.75,0.19-24.02,0.19c-13.27,0-24.02-0.08-24.02-0.19
								c0-0.1,10.75-0.19,24.02-0.19C186.86,293.87,197.61,293.95,197.61,294.06z"/>
						</g>
					</g>
				</g>
				<g>
					<g>
						<rect x="133.38" y="121.61" style="fill:#E0E0E0;" width="214.57" height="18.03"/>
					</g>
				</g>
				<g>
					<g>
						<rect x="133.38" y="137.94" style="fill:#F5F5F5;" width="214.57" height="18.03"/>
					</g>
				</g>
				<g>
					<g>
						<g>
							<path style="fill:#263238;" d="M146.3,130.06c0,1.25-1.01,2.27-2.27,2.27c-1.25,0-2.27-1.01-2.27-2.27s1.01-2.27,2.27-2.27
								C145.28,127.8,146.3,128.81,146.3,130.06z"/>
						</g>
					</g>
					<g>
						<g>
							<path style="fill:#263238;" d="M154.6,130.06c0,1.25-1.01,2.27-2.27,2.27c-1.25,0-2.27-1.01-2.27-2.27s1.01-2.27,2.27-2.27
								C153.59,127.8,154.6,128.81,154.6,130.06z"/>
						</g>
					</g>
					<g>
						<g>
							<path style="fill:#263238;" d="M162.91,130.06c0,1.25-1.01,2.27-2.27,2.27s-2.27-1.01-2.27-2.27s1.01-2.27,2.27-2.27
								S162.91,128.81,162.91,130.06z"/>
						</g>
					</g>
				</g>
			</g>
			<g>
				<g>
					<g>
						<path style="fill:#263238;" d="M347.99,310.9c0-1.2-0.04-73.68-0.11-189.29l0.11,0.15c-58.62,0.01-133.34,0.02-214.46,0.04
							h-0.02l0.14-0.19c0,67.2-0.01,131.19-0.01,189.29l-0.12-0.17C259.6,310.83,346.87,310.9,347.99,310.9
							c-1.12,0-88.39,0.07-214.48,0.17l-0.12,0v-0.17c0-58.1-0.01-122.1-0.01-189.29v-0.19h0.14h0.02
							c81.12,0.01,155.84,0.03,214.46,0.04h0.11l0,0.15C348.03,237.23,347.99,309.7,347.99,310.9z"/>
					</g>
				</g>
			</g>
		</g>
		<g>
			<g>
				<path style="fill:#4484FF;" d="M320.18,186.58h-50.79c-2.28,0-4.13-1.85-4.13-4.13v-11.72c0-2.28,1.85-4.13,4.13-4.13h50.79
					c2.28,0,4.13,1.85,4.13,4.13v11.72C324.31,184.73,322.46,186.58,320.18,186.58z"/>
			</g>
			<g>
				<path style="fill:#FFFFFF;" d="M279.04,176.48h-1.29v1.26h-0.59v-1.26h-1.29v-0.56h1.29v-1.27h0.59v1.27h1.29V176.48z"/>
				<path style="fill:#FFFFFF;" d="M285.31,177.43h-2.63l-0.54,1.24h-0.73l2.24-4.94h0.7l2.25,4.94h-0.74L285.31,177.43z
					 M285.06,176.87l-1.07-2.42l-1.07,2.42H285.06z"/>
				<path style="fill:#FFFFFF;" d="M290.73,173.43v5.24h-0.65v-0.59c-0.3,0.42-0.78,0.64-1.34,0.64c-1.09,0-1.89-0.77-1.89-1.91
					s0.8-1.91,1.89-1.91c0.53,0,1,0.2,1.31,0.6v-2.06H290.73z M290.06,176.8c0-0.8-0.54-1.31-1.26-1.31c-0.72,0-1.26,0.52-1.26,1.31
					s0.54,1.32,1.26,1.32C289.52,178.12,290.06,177.6,290.06,176.8z"/>
				<path style="fill:#FFFFFF;" d="M295.55,173.43v5.24h-0.65v-0.59c-0.3,0.42-0.78,0.64-1.34,0.64c-1.09,0-1.89-0.77-1.89-1.91
					s0.8-1.91,1.89-1.91c0.53,0,1,0.2,1.31,0.6v-2.06H295.55z M294.88,176.8c0-0.8-0.54-1.31-1.26-1.31c-0.72,0-1.26,0.52-1.26,1.31
					s0.54,1.32,1.26,1.32C294.33,178.12,294.88,177.6,294.88,176.8z"/>
				<path style="fill:#FFFFFF;" d="M299.82,174.34h-1.7v-0.61h4.09v0.61h-1.7v4.33h-0.7V174.34z"/>
				<path style="fill:#FFFFFF;" d="M305.66,176.41v2.26h-0.64v-0.49c-0.23,0.34-0.64,0.54-1.23,0.54c-0.85,0-1.38-0.45-1.38-1.1
					c0-0.6,0.39-1.09,1.51-1.09h1.07v-0.13c0-0.57-0.33-0.9-1-0.9c-0.45,0-0.9,0.16-1.19,0.4l-0.28-0.51
					c0.39-0.31,0.95-0.48,1.55-0.48C305.08,174.89,305.66,175.39,305.66,176.41z M304.98,177.53V177h-1.05
					c-0.67,0-0.86,0.26-0.86,0.58c0,0.37,0.31,0.61,0.83,0.61C304.41,178.19,304.81,177.96,304.98,177.53z"/>
				<path style="fill:#FFFFFF;" d="M306.44,178.28l0.28-0.54c0.32,0.23,0.83,0.39,1.31,0.39c0.63,0,0.89-0.19,0.89-0.51
					c0-0.84-2.37-0.11-2.37-1.6c0-0.67,0.6-1.12,1.56-1.12c0.49,0,1.04,0.13,1.36,0.34l-0.29,0.54c-0.34-0.22-0.71-0.3-1.08-0.3
					c-0.59,0-0.88,0.22-0.88,0.52c0,0.88,2.37,0.16,2.37,1.62c0,0.68-0.62,1.11-1.62,1.11
					C307.37,178.71,306.75,178.52,306.44,178.28z"/>
				<path style="fill:#FFFFFF;" d="M311.91,176.93l-0.78,0.72v1.02h-0.68v-5.24h0.68v3.36l2.04-1.86H314l-1.58,1.55l1.73,2.2h-0.83
					L311.91,176.93z"/>
			</g>
		</g>
		<g>
			<path style="fill:#263238;" d="M157.06,174.9h-2.14v-1.26h5.82v1.26h-2.14v5.42h-1.55V174.9z"/>
			<path style="fill:#263238;" d="M165.64,178.89h-3.1l-0.59,1.43h-1.58l2.98-6.68h1.53l2.99,6.68h-1.62L165.64,178.89z
				 M165.15,177.72l-1.06-2.56l-1.06,2.56H165.15z"/>
			<path style="fill:#263238;" d="M168.02,179.67l0.52-1.16c0.56,0.41,1.4,0.7,2.2,0.7c0.92,0,1.29-0.31,1.29-0.72
				c0-1.25-3.88-0.39-3.88-2.87c0-1.14,0.92-2.08,2.81-2.08c0.84,0,1.7,0.2,2.32,0.59l-0.48,1.17c-0.62-0.35-1.26-0.52-1.85-0.52
				c-0.92,0-1.27,0.34-1.27,0.76c0,1.23,3.88,0.38,3.88,2.83c0,1.12-0.93,2.07-2.83,2.07C169.68,180.44,168.62,180.12,168.02,179.67
				z"/>
			<path style="fill:#263238;" d="M177.07,177.7l-0.9,0.93v1.69h-1.54v-6.68h1.54v3.12l2.96-3.12h1.72l-2.77,2.98l2.93,3.7h-1.8
				L177.07,177.7z"/>
			<path style="fill:#263238;" d="M181.03,179.67l0.52-1.16c0.56,0.41,1.4,0.7,2.2,0.7c0.92,0,1.29-0.31,1.29-0.72
				c0-1.25-3.88-0.39-3.88-2.87c0-1.14,0.92-2.08,2.81-2.08c0.84,0,1.7,0.2,2.32,0.59l-0.48,1.17c-0.62-0.35-1.26-0.52-1.85-0.52
				c-0.92,0-1.27,0.34-1.27,0.76c0,1.23,3.88,0.38,3.88,2.83c0,1.12-0.93,2.07-2.83,2.07C182.69,180.44,181.62,180.12,181.03,179.67
				z"/>
		</g>
		<g>
			<path style="fill:#E0E0E0;" d="M329.1,227.08h-31.34c-3.5,0-6.33-2.84-6.33-6.33v0c0-3.5,2.84-6.33,6.33-6.33h31.34
				c3.5,0,6.33,2.84,6.33,6.33v0C335.43,224.24,332.6,227.08,329.1,227.08z"/>
		</g>
		<g>
			<path style="fill:#EBEBEB;" d="M329.1,263.67h-31.34c-3.5,0-6.33-2.84-6.33-6.33l0,0c0-3.5,2.84-6.33,6.33-6.33h31.34
				c3.5,0,6.33,2.84,6.33,6.33l0,0C335.43,260.83,332.6,263.67,329.1,263.67z"/>
		</g>
		<g>
			<path style="fill:#E0E0E0;" d="M329.1,299.51h-31.34c-3.5,0-6.33-2.84-6.33-6.33v0c0-3.5,2.84-6.33,6.33-6.33h31.34
				c3.5,0,6.33,2.84,6.33,6.33v0C335.43,296.68,332.6,299.51,329.1,299.51z"/>
		</g>
	</g>
</g>
<g id="Plant">
	<g>
		<g>
			<g>
				<g>
					<g>
						<g>
							<path style="fill:#4484FF;" d="M128.03,348.26c-5.75,2.01-13.26,0.21-18.18-3.38c-4.92-3.59-8.46-8.74-11.6-13.97
								c-1.34-2.23-2.65-4.55-3.07-7.12c-0.42-2.57,0.2-5.45,2.19-7.13c3.09-2.6,7.83-1.28,11.34,0.72
								C119.7,323.64,127.21,335.63,128.03,348.26"/>
						</g>
					</g>
				</g>
			</g>
			<g>
				<g>
					<g>
						<g>
							<path style="fill:#4484FF;" d="M123.23,362.03c-3.46,4.56-9.39,6.59-15.11,6.85c-5.71,0.26-11.36-1.32-16.7-3.36
								c-1.94-0.74-4.06-1.76-4.72-3.73c-0.5-1.49,0.01-3.18,1.01-4.4c1-1.21,2.41-2.01,3.86-2.63c5.26-2.24,11.28-2.34,16.81-0.91
								C113.91,355.29,118.74,358.49,123.23,362.03"/>
						</g>
					</g>
				</g>
			</g>
			<g>
				<g>
					<g>
						<g>
							<path style="fill:#4484FF;" d="M128.12,323.61c-4.76,0.1-8.37-4.08-10.53-8.33c-2.99-5.88-4-12.75-2.84-19.24
								c0.44-2.43,1.36-5.06,3.53-6.23c2.21-1.19,5.09-0.41,6.95,1.29c1.86,1.69,2.87,4.11,3.61,6.51
								C131.41,305.88,130.86,315.39,128.12,323.61"/>
						</g>
					</g>
				</g>
			</g>
			<g>
				<g>
					<g>
						<g>
							<path style="fill:#4484FF;" d="M143.76,349.95c-8.12-13.82-9.47-30.73-4.68-46.03c0.78-2.48,2.25-5.32,4.84-5.49
								c2.87-0.18,4.68,3.02,5.47,5.79c2.78,9.71,2.19,20.03,1.58,30.12C150.59,340.56,148.46,345.87,143.76,349.95"/>
						</g>
					</g>
				</g>
			</g>
			<g>
				<g>
					<g>
						<g>
							<path style="fill:#4484FF;" d="M152.21,355.64c2.94-9.47,10.43-17.41,19.71-20.9c2.16-0.81,4.9-1.27,6.51,0.38
								c1.58,1.62,1.09,4.32,0.08,6.34c-1.64,3.26-4.29,5.89-6.93,8.4c-2.41,2.29-4.91,4.59-7.95,5.92
								C160.58,357.11,154.99,357.45,152.21,355.64"/>
						</g>
					</g>
				</g>
			</g>
			<g>
				<g>
					<g>
						<g>
							<g>
								<path style="fill:#263238;" d="M101.86,320.13c0,0.01,0.04,0.05,0.14,0.13c0.12,0.09,0.26,0.2,0.44,0.34
									c0.41,0.31,0.98,0.73,1.7,1.27c0.37,0.28,0.79,0.58,1.24,0.91c0.44,0.34,0.91,0.74,1.42,1.15c1.01,0.84,2.19,1.74,3.39,2.88
									c0.61,0.55,1.25,1.14,1.91,1.74c0.66,0.61,1.3,1.3,1.99,1.98c1.4,1.34,2.75,2.91,4.21,4.53c2.82,3.32,5.71,7.15,8.37,11.42
									c2.63,4.29,4.76,8.59,6.47,12.6c0.8,2.03,1.6,3.94,2.17,5.79c0.3,0.92,0.63,1.8,0.88,2.66c0.24,0.87,0.48,1.7,0.7,2.49
									c0.48,1.58,0.76,3.05,1.06,4.32c0.14,0.64,0.29,1.23,0.4,1.78c0.1,0.55,0.18,1.05,0.26,1.51c0.16,0.88,0.29,1.58,0.38,2.09
									c0.04,0.22,0.08,0.4,0.11,0.54c0.03,0.12,0.04,0.18,0.05,0.18c0.01,0,0-0.06-0.01-0.19c-0.02-0.15-0.04-0.33-0.07-0.55
									c-0.07-0.51-0.18-1.21-0.31-2.11c-0.07-0.46-0.15-0.97-0.23-1.52c-0.1-0.55-0.24-1.15-0.37-1.79
									c-0.28-1.28-0.54-2.76-1.01-4.35c-0.22-0.8-0.44-1.63-0.68-2.51c-0.24-0.87-0.56-1.75-0.86-2.68
									c-0.57-1.86-1.36-3.79-2.15-5.83c-1.7-4.03-3.83-8.35-6.47-12.66c-2.68-4.28-5.59-8.12-8.43-11.45
									c-1.47-1.62-2.84-3.19-4.25-4.53c-0.7-0.68-1.34-1.36-2.01-1.97c-0.67-0.6-1.32-1.18-1.94-1.73
									c-1.21-1.13-2.41-2.02-3.44-2.85c-0.52-0.41-0.99-0.8-1.44-1.13c-0.46-0.32-0.88-0.62-1.26-0.89
									c-0.74-0.51-1.32-0.92-1.75-1.22c-0.19-0.12-0.34-0.23-0.46-0.31C101.91,320.15,101.86,320.12,101.86,320.13z"/>
							</g>
						</g>
					</g>
				</g>
			</g>
			<g>
				<g>
					<g>
						<g>
							<g>
								<path style="fill:#263238;" d="M91.1,358.44c0,0.01,0.2-0.02,0.56-0.09c0.36-0.07,0.89-0.21,1.58-0.32
									c1.37-0.27,3.38-0.57,5.88-0.72c4.97-0.32,12.03,0.27,19.1,3.21c7.07,2.94,12.46,7.54,15.74,11.28
									c1.66,1.87,2.86,3.51,3.63,4.68c0.41,0.57,0.68,1.04,0.89,1.35c0.2,0.31,0.32,0.47,0.33,0.46c0.01-0.01-0.08-0.18-0.26-0.5
									c-0.19-0.32-0.44-0.8-0.83-1.39c-0.74-1.19-1.91-2.86-3.55-4.77c-3.24-3.82-8.66-8.49-15.8-11.46
									c-7.13-2.97-14.27-3.52-19.26-3.13c-2.51,0.18-4.52,0.53-5.89,0.84c-0.69,0.14-1.21,0.3-1.57,0.39
									C91.28,358.37,91.1,358.43,91.1,358.44z"/>
							</g>
						</g>
					</g>
				</g>
			</g>
			<g>
				<g>
					<g>
						<g>
							<g>
								<path style="fill:#263238;" d="M121.09,295.33c-0.01,0,0,0.07,0.03,0.21c0.03,0.16,0.08,0.37,0.13,0.62
									c0.13,0.57,0.31,1.37,0.53,2.38c0.47,2.07,1.18,5.05,2.08,8.72c1.79,7.36,4.39,17.49,7.1,28.72
									c1.35,5.62,2.56,10.98,3.61,15.88c1.03,4.9,1.91,9.32,2.56,13.04c0.35,1.86,0.61,3.55,0.86,5.03
									c0.26,1.48,0.45,2.76,0.61,3.81c0.16,1.02,0.28,1.83,0.37,2.41c0.04,0.26,0.08,0.46,0.11,0.63
									c0.03,0.14,0.04,0.21,0.05,0.21c0.01,0,0-0.07-0.01-0.22c-0.02-0.16-0.04-0.37-0.07-0.63c-0.07-0.58-0.17-1.39-0.3-2.42
									c-0.13-1.05-0.31-2.33-0.54-3.82c-0.23-1.49-0.48-3.18-0.81-5.05c-0.62-3.74-1.47-8.17-2.48-13.07
									c-1.03-4.9-2.24-10.27-3.59-15.89c-2.71-11.23-5.35-21.35-7.21-28.69c-0.92-3.65-1.67-6.61-2.2-8.69
									c-0.26-1.01-0.46-1.8-0.6-2.36c-0.07-0.25-0.12-0.45-0.17-0.61C121.12,295.4,121.1,295.33,121.09,295.33z"/>
							</g>
						</g>
					</g>
				</g>
			</g>
			<g>
				<g>
					<g>
						<g>
							<g>
								<path style="fill:#263238;" d="M139.74,375.88c0.01,0,0.02-0.06,0.05-0.17c0.03-0.13,0.07-0.3,0.11-0.5
									c0.1-0.47,0.23-1.11,0.4-1.92c0.34-1.67,0.8-4.1,1.32-7.11c1.04-6.01,2.28-14.36,3.04-23.65c0.37-4.65,0.57-9.08,0.66-13.12
									c0.07-4.04,0.03-7.67-0.09-10.72c-0.04-1.53-0.14-2.9-0.2-4.11c-0.06-1.21-0.15-2.25-0.23-3.1
									c-0.08-0.82-0.14-1.48-0.18-1.96c-0.02-0.2-0.04-0.37-0.06-0.51c-0.01-0.11-0.03-0.17-0.03-0.17
									c-0.01,0-0.01,0.06-0.01,0.18c0.01,0.14,0.01,0.31,0.02,0.51c0.03,0.48,0.06,1.13,0.11,1.96c0.06,0.85,0.12,1.89,0.16,3.1
									c0.05,1.21,0.13,2.59,0.15,4.11c0.09,3.05,0.1,6.68,0.01,10.71c-0.11,4.03-0.32,8.46-0.69,13.1
									c-0.76,9.27-1.95,17.62-2.92,23.64c-0.49,3.01-0.9,5.44-1.2,7.12c-0.14,0.82-0.25,1.46-0.33,1.94
									c-0.03,0.2-0.06,0.37-0.08,0.51C139.74,375.82,139.74,375.88,139.74,375.88z"/>
							</g>
						</g>
					</g>
				</g>
			</g>
			<g>
				<g>
					<g>
						<g>
							<g>
								<path style="fill:#263238;" d="M139.14,377.63c0.01,0,0.09-0.16,0.21-0.48c0.14-0.35,0.31-0.82,0.53-1.39
									c0.12-0.31,0.24-0.64,0.38-1.01c0.16-0.36,0.34-0.75,0.52-1.17c0.19-0.42,0.39-0.87,0.6-1.34c0.21-0.48,0.48-0.96,0.74-1.47
									c0.26-0.51,0.54-1.05,0.83-1.61c0.32-0.55,0.65-1.11,0.99-1.7c0.65-1.19,1.5-2.38,2.31-3.67c1.74-2.51,3.79-5.17,6.12-7.82
									c2.35-2.63,4.76-4.98,7.02-7.03c1.17-0.98,2.24-1.97,3.32-2.79c0.53-0.42,1.04-0.83,1.54-1.23
									c0.51-0.37,0.99-0.73,1.46-1.08c0.92-0.7,1.79-1.28,2.55-1.79c0.76-0.52,1.41-0.96,1.97-1.29c0.52-0.33,0.94-0.59,1.26-0.8
									c0.29-0.19,0.43-0.29,0.43-0.3c-0.01-0.01-0.17,0.07-0.46,0.23c-0.33,0.19-0.76,0.43-1.3,0.74
									c-0.57,0.31-1.24,0.73-2.01,1.24c-0.78,0.5-1.66,1.07-2.59,1.75c-0.47,0.34-0.97,0.69-1.48,1.06
									c-0.5,0.39-1.02,0.79-1.56,1.21c-1.09,0.82-2.17,1.8-3.35,2.78c-2.29,2.05-4.71,4.4-7.07,7.04
									c-2.34,2.66-4.39,5.34-6.12,7.87c-0.81,1.3-1.65,2.5-2.29,3.7c-0.34,0.59-0.66,1.17-0.97,1.72
									c-0.28,0.57-0.55,1.11-0.81,1.63c-0.25,0.52-0.52,1.01-0.72,1.49c-0.2,0.48-0.39,0.93-0.57,1.36
									c-0.18,0.42-0.34,0.82-0.49,1.18c-0.13,0.37-0.24,0.71-0.35,1.02c-0.19,0.59-0.35,1.06-0.47,1.42
									C139.18,377.46,139.13,377.63,139.14,377.63z"/>
							</g>
						</g>
					</g>
				</g>
			</g>
			<g>
				<g>
					<g>
						<g>
							<g>
								<path style="fill:#263238;" d="M104.87,336.16c0,0.06,0.98,0.06,2.57,0.15c1.58,0.09,3.76,0.29,6.13,0.74
									c2.37,0.45,4.47,1.06,5.98,1.56c1.5,0.5,2.42,0.86,2.44,0.8c0.01-0.02-0.21-0.14-0.61-0.33c-0.4-0.19-1-0.44-1.74-0.73
									c-1.49-0.57-3.6-1.22-6-1.68c-2.39-0.45-4.6-0.62-6.19-0.64c-0.8-0.01-1.44,0-1.89,0.04
									C105.11,336.1,104.87,336.13,104.87,336.16z"/>
							</g>
						</g>
					</g>
				</g>
			</g>
			<g>
				<g>
					<g>
						<g>
							<g>
								<path style="fill:#263238;" d="M98.74,366.08c0.12,0.06,1.03-2.59,3.34-5.04c2.28-2.48,4.85-3.6,4.78-3.71
									c-0.02-0.04-0.68,0.18-1.65,0.73c-0.97,0.55-2.24,1.46-3.41,2.72c-1.16,1.26-1.98,2.59-2.46,3.6
									C98.87,365.39,98.7,366.07,98.74,366.08z"/>
							</g>
						</g>
					</g>
				</g>
			</g>
			<g>
				<g>
					<g>
						<g>
							<g>
								<path style="fill:#263238;" d="M119.63,306.55c-0.08,0.08,1.42,1.56,3.05,3.57c1.64,2,2.79,3.77,2.89,3.71
									c0.09-0.05-0.93-1.92-2.59-3.95C121.33,307.85,119.7,306.47,119.63,306.55z"/>
							</g>
						</g>
					</g>
				</g>
			</g>
			<g>
				<g>
					<g>
						<g>
							<g>
								<path style="fill:#263238;" d="M124.54,298.07c-0.1-0.02-0.44,1.42-0.74,3.21c-0.3,1.79-0.47,3.25-0.36,3.27
									c0.1,0.02,0.44-1.42,0.74-3.21C124.48,299.56,124.64,298.09,124.54,298.07z"/>
							</g>
						</g>
					</g>
				</g>
			</g>
			<g>
				<g>
					<g>
						<g>
							<g>
								<path style="fill:#263238;" d="M139.73,324.67c-0.09,0.05,0.97,2.29,2.38,5c1.41,2.71,2.62,4.88,2.72,4.83
									c0.09-0.05-0.97-2.29-2.38-5C141.04,326.78,139.83,324.62,139.73,324.67z"/>
							</g>
						</g>
					</g>
				</g>
			</g>
			<g>
				<g>
					<g>
						<g>
							<g>
								<path style="fill:#263238;" d="M148.78,315.64c-0.09-0.05-1,1.57-2.01,3.62c-1.02,2.05-1.77,3.74-1.67,3.79
									c0.09,0.05,1-1.57,2.02-3.62C148.12,317.38,148.87,315.69,148.78,315.64z"/>
							</g>
						</g>
					</g>
				</g>
			</g>
			<g>
				<g>
					<g>
						<g>
							<g>
								<path style="fill:#263238;" d="M162.07,346.51c0.03,0.11,1.64-0.2,3.65-0.34c2.01-0.15,3.65-0.06,3.66-0.18
									c0.01-0.1-1.64-0.35-3.69-0.21C163.64,345.93,162.04,346.42,162.07,346.51z"/>
							</g>
						</g>
					</g>
				</g>
			</g>
		</g>
		<g>
			<g>
				<g>
					<g>
						<g>
							<path style="fill:#263238;" d="M152.99,373.81l-4.52,23.78c-0.3,1.57-1.67,2.71-3.27,2.71h-13.36
								c-1.63,0-3.02-1.18-3.29-2.79l-3.93-23.7H152.99z"/>
						</g>
					</g>
				</g>
			</g>
			<g>
				<g>
					<g>
						<g>
							<polygon style="fill:#455A64;" points="151.52,381.54 125.98,381.54 124.62,373.81 152.99,373.81 							"/>
						</g>
					</g>
				</g>
			</g>
			<g>
				<g>
					<g>
						<g>
							<polygon style="fill:#FAFAFA;" points="151.52,381.54 150.98,384.35 126.37,384.35 125.98,381.54 							"/>
						</g>
					</g>
				</g>
			</g>
		</g>
	</g>
</g>
<g id="Character">
	<g>
		<g>
			<g>
				<g>
					<g>
						<g>
							<g>
								<g>
									<g>
										<g>
											<g>
												<g>
													<g>
														<g>
															<path style="fill:#263238;" d="M348.54,378.78l0.56,13.85c0,0-13.89,5.23-14.04,7.8l26.9-0.13l0.01-21.62
																L348.54,378.78z"/>
														</g>
													</g>
												</g>
											</g>
										</g>
									</g>
								</g>
							</g>
						</g>
					</g>
				</g>
				<g>
					<g>
						<g>
							<g>
								<g>
									<g>
										<g>
											<g>
												<g>
													<g>
														<g>
															<g>
																<path style="fill:#E0E0E0;" d="M357.41,391.43c0.52,0.14,0.88,0.72,0.77,1.25c-0.12,0.53-0.71,0.9-1.23,0.77
																	c-0.52-0.13-0.98-0.82-0.8-1.33c0.18-0.51,0.89-0.91,1.37-0.66"/>
															</g>
														</g>
													</g>
												</g>
											</g>
										</g>
									</g>
								</g>
							</g>
						</g>
					</g>
				</g>
				<g>
					<g>
						<g>
							<g>
								<g>
									<g>
										<g>
											<g>
												<g>
													<g>
														<g>
															<path style="fill:#455A64;" d="M361.96,400.3l-0.08-2.18l-25.76,0.94c0,0-1.2,0.53-1.06,1.37L361.96,400.3z"/>
														</g>
													</g>
												</g>
											</g>
										</g>
									</g>
								</g>
							</g>
						</g>
					</g>
				</g>
				<g>
					<g>
						<g>
							<g>
								<g>
									<g>
										<g>
											<g>
												<g>
													<g>
														<g>
															<g>
																<path style="fill:#FFFFFF;" d="M348.66,392.5c0.01,0.13,0.66,0.19,1.31,0.61c0.66,0.4,1,0.97,1.12,0.92
																	c0.12-0.03-0.08-0.81-0.87-1.3C349.43,392.22,348.63,392.38,348.66,392.5z"/>
															</g>
														</g>
													</g>
												</g>
											</g>
										</g>
									</g>
								</g>
							</g>
						</g>
					</g>
				</g>
				<g>
					<g>
						<g>
							<g>
								<g>
									<g>
										<g>
											<g>
												<g>
													<g>
														<g>
															<g>
																<path style="fill:#FFFFFF;" d="M345.85,393.68c-0.03,0.13,0.54,0.35,0.99,0.9c0.46,0.54,0.58,1.14,0.71,1.13
																	c0.12,0.02,0.21-0.75-0.36-1.43C346.62,393.61,345.85,393.55,345.85,393.68z"/>
															</g>
														</g>
													</g>
												</g>
											</g>
										</g>
									</g>
								</g>
							</g>
						</g>
					</g>
				</g>
				<g>
					<g>
						<g>
							<g>
								<g>
									<g>
										<g>
											<g>
												<g>
													<g>
														<g>
															<g>
																<path style="fill:#FFFFFF;" d="M344.26,397.06c0.12,0.03,0.3-0.63-0.04-1.35c-0.34-0.72-0.96-1-1.01-0.89
																	c-0.07,0.11,0.33,0.49,0.6,1.09C344.09,396.5,344.13,397.05,344.26,397.06z"/>
															</g>
														</g>
													</g>
												</g>
											</g>
										</g>
									</g>
								</g>
							</g>
						</g>
					</g>
				</g>
				<g>
					<g>
						<g>
							<g>
								<g>
									<g>
										<g>
											<g>
												<g>
													<g>
														<g>
															<g>
																<path style="fill:#FFFFFF;" d="M348.88,389.33c0.06,0.12,0.66-0.06,1.4-0.02c0.74,0.03,1.32,0.28,1.39,0.17
																	c0.08-0.1-0.49-0.58-1.37-0.62C349.43,388.8,348.82,389.23,348.88,389.33z"/>
															</g>
														</g>
													</g>
												</g>
											</g>
										</g>
									</g>
								</g>
							</g>
						</g>
					</g>
				</g>
			</g>
		</g>
		<g>
			<g>
				<g>
					<g>
						<g>
							<g>
								<g>
									<g>
										<path style="fill:#263238;" d="M389.9,382l3.49,16.41l-0.98,13.77c-0.07,0.99,0.71,1.84,1.71,1.84l0,0
											c0.56,0,1.08-0.26,1.4-0.72c2.06-2.89,9.58-13.55,9.26-14.73c-0.37-1.37-2.53-17.55-2.53-17.55L389.9,382z"/>
									</g>
								</g>
							</g>
						</g>
					</g>
				</g>
				<g>
					<g>
						<g>
							<g>
								<g>
									<g>
										<path style="fill:#455A64;" d="M394.12,414.03l10.45-16.56l0.13,0.7c0.11,0.6,0.01,1.23-0.29,1.76
											c-0.81,1.43-3.15,5.32-8.84,13.38C395.24,413.77,394.7,414.04,394.12,414.03L394.12,414.03z"/>
									</g>
								</g>
							</g>
						</g>
					</g>
				</g>
				<g style="opacity:0.6;">
					<g>
						<g>
							<g>
								<g>
									<g>
										<g>
											<path style="fill:#FFFFFF;" d="M400.19,392.79c-0.36,0.36-0.38,1.01-0.03,1.39c0.35,0.37,1.01,0.4,1.37,0.04
												c0.37-0.36,0.41-1.14,0.02-1.47c-0.39-0.33-1.17-0.32-1.43,0.12"/>
										</g>
									</g>
								</g>
							</g>
						</g>
					</g>
				</g>
				<g>
					<g>
						<g>
							<g>
								<g>
									<g>
										<g>
											<path style="fill:#FFFFFF;" d="M396.53,406.11c-0.08,0.06-0.62-0.73-1.69-1.01c-1.06-0.31-1.93,0.09-1.97,0
												c-0.02-0.04,0.16-0.21,0.54-0.33c0.37-0.13,0.94-0.18,1.53-0.02c0.59,0.16,1.05,0.5,1.3,0.8
												C396.5,405.85,396.57,406.09,396.53,406.11z"/>
										</g>
									</g>
								</g>
							</g>
						</g>
					</g>
				</g>
				<g>
					<g>
						<g>
							<g>
								<g>
									<g>
										<g>
											<path style="fill:#FFFFFF;" d="M395.77,408.54c-0.06,0.09-0.7-0.35-1.59-0.43c-0.9-0.1-1.6,0.19-1.65,0.1
												c-0.06-0.08,0.66-0.57,1.69-0.46C395.24,407.84,395.85,408.48,395.77,408.54z"/>
										</g>
									</g>
								</g>
							</g>
						</g>
					</g>
				</g>
				<g>
					<g>
						<g>
							<g>
								<g>
									<g>
										<g>
											<path style="fill:#FFFFFF;" d="M398.18,402.87c-0.06,0.09-1.03-0.58-2.41-0.83c-1.38-0.27-2.53,0-2.55-0.11
												c-0.04-0.08,1.14-0.54,2.62-0.25C397.32,401.95,398.25,402.81,398.18,402.87z"/>
										</g>
									</g>
								</g>
							</g>
						</g>
					</g>
				</g>
				<g>
					<g>
						<g>
							<g>
								<g>
									<g>
										<g>
											<path style="fill:#FFFFFF;" d="M397.54,397.79c-0.03,0.11-1.01-0.1-2.2,0.08c-1.2,0.16-2.08,0.64-2.13,0.55
												c-0.06-0.07,0.8-0.73,2.08-0.91C396.56,397.32,397.57,397.71,397.54,397.79z"/>
										</g>
									</g>
								</g>
							</g>
						</g>
					</g>
				</g>
				<g>
					<g>
						<g>
							<g>
								<g>
									<g>
										<g>
											<path style="fill:#FFFFFF;" d="M396.63,392.95c-0.03,0.1-1.05-0.27-2.29,0.02c-1.25,0.27-2.01,1.04-2.08,0.96
												c-0.03-0.03,0.11-0.27,0.45-0.56c0.34-0.29,0.89-0.61,1.56-0.76c0.67-0.15,1.3-0.1,1.73,0.02
												C396.42,392.75,396.65,392.91,396.63,392.95z"/>
										</g>
									</g>
								</g>
							</g>
						</g>
					</g>
				</g>
				<g>
					<g>
						<g>
							<g>
								<g>
									<g>
										<g>
											<path style="fill:#FFFFFF;" d="M394.2,392.05c-0.02,0-0.1-0.21-0.14-0.62c-0.04-0.41-0.03-1.02,0.19-1.73
												c0.12-0.34,0.23-0.77,0.65-1.07c0.21-0.15,0.56-0.17,0.79,0.01c0.23,0.18,0.35,0.43,0.4,0.7
												c0.18,1.05-0.53,2.23-1.67,2.6c-1.16,0.35-2.35-0.12-2.99-0.93c-0.15-0.21-0.27-0.49-0.2-0.79
												c0.07-0.3,0.39-0.48,0.63-0.48c0.5-0.02,0.87,0.2,1.19,0.36c0.65,0.35,1.1,0.76,1.37,1.07c0.27,0.31,0.38,0.51,0.36,0.52
												c-0.05,0.05-0.57-0.73-1.84-1.36c-0.32-0.14-0.69-0.32-1.05-0.29c-0.18,0.02-0.31,0.11-0.34,0.26
												c-0.04,0.14,0.04,0.35,0.16,0.51c0.54,0.66,1.63,1.09,2.6,0.78c0.97-0.3,1.59-1.34,1.45-2.19
												c-0.04-0.2-0.13-0.4-0.26-0.5c-0.13-0.1-0.3-0.1-0.44-0.01c-0.3,0.19-0.45,0.58-0.57,0.9
												C394.02,391.13,394.27,392.05,394.2,392.05z"/>
										</g>
									</g>
								</g>
							</g>
						</g>
					</g>
				</g>
			</g>
		</g>
		<g>
			<g>
				<g>
					<path style="fill:#455A64;" d="M338.63,266.13c0,0-0.11,7.29,0.38,16.72c0.19,3.65,7.87,105.07,7.87,105.07l16.59,0.42
						l-2.28-94.79l2.86,0.7c0,0,8.74,31.61,10.64,38.85c2.26,8.61,14.43,57.4,14.43,57.4l15.16,0.56l-9.97-57.17l-8.61-54.42
						l-1.72-15.83L338.63,266.13z"/>
				</g>
			</g>
			<g>
				<g>
					<g>
						<path style="fill:#263238;" d="M364.03,283.95c0.01,0.02-0.24,0.16-0.7,0.37c-0.47,0.21-1.15,0.52-2.07,0.67
							c-0.46,0.07-0.98,0.08-1.53-0.03c-0.54-0.11-1.12-0.36-1.58-0.81c-0.46-0.45-0.75-1.07-0.93-1.72
							c-0.18-0.65-0.27-1.32-0.39-2.01c-0.46-2.75-0.76-5.25-0.92-7.07c-0.08-0.91-0.13-1.64-0.16-2.15c-0.02-0.51-0.02-0.79,0-0.79
							c0.02,0,0.07,0.28,0.14,0.78c0.07,0.58,0.16,1.29,0.27,2.14c0.23,1.81,0.56,4.3,1.02,7.03c0.23,1.35,0.38,2.73,1.2,3.55
							c0.82,0.81,1.99,0.92,2.85,0.82c0.89-0.11,1.58-0.38,2.05-0.55C363.76,284.02,364.02,283.93,364.03,283.95z"/>
					</g>
				</g>
			</g>
			<g>
				<g>
					<g>
						<path style="fill:#263238;" d="M359.36,270.99c-0.01-0.02,0.11-0.08,0.34-0.09c0.23-0.01,0.58,0.07,0.92,0.32
							c0.33,0.25,0.67,0.7,0.67,1.3c0.01,0.61-0.48,1.19-1.1,1.4c-0.62,0.22-1.36,0.07-1.73-0.42c-0.37-0.47-0.38-1.03-0.28-1.43
							c0.11-0.41,0.34-0.69,0.52-0.82c0.19-0.14,0.32-0.16,0.33-0.14c0.04,0.05-0.47,0.27-0.61,1.02c-0.06,0.35-0.01,0.82,0.29,1.17
							c0.29,0.36,0.85,0.47,1.36,0.29c0.51-0.18,0.88-0.62,0.89-1.08c0.02-0.46-0.24-0.86-0.5-1.1
							C359.9,270.9,359.36,271.05,359.36,270.99z"/>
					</g>
				</g>
			</g>
			<g>
				<g>
					<g>
						<path style="fill:#263238;" d="M385.48,278.48c0,0.02-0.2,0.05-0.57,0.07c-0.37,0.03-0.9,0.03-1.56-0.02
							c-1.31-0.09-3.12-0.46-4.97-1.28c-1.84-0.83-3.31-1.95-4.25-2.87c-0.47-0.46-0.83-0.86-1.05-1.15
							c-0.22-0.29-0.34-0.46-0.32-0.47c0.05-0.04,0.57,0.58,1.53,1.44c0.97,0.86,2.43,1.92,4.23,2.74c1.8,0.81,3.56,1.2,4.85,1.36
							C384.67,278.44,385.48,278.41,385.48,278.48z"/>
					</g>
				</g>
			</g>
			<g>
				<g>
					<g>
						<path style="fill:#263238;" d="M345.32,270.94c0.03,0.02-0.19,0.68-0.66,1.66c-0.46,0.98-1.19,2.27-2.14,3.49
							c-0.95,1.22-1.93,2.13-2.67,2.69c-0.74,0.56-1.23,0.81-1.24,0.78c-0.02-0.05,0.45-0.38,1.15-0.99
							c0.71-0.61,1.65-1.53,2.59-2.73c0.93-1.2,1.67-2.44,2.16-3.38C345.01,271.53,345.28,270.91,345.32,270.94z"/>
					</g>
				</g>
			</g>
		</g>
		<g>
			<g>
				<g>
					<path style="fill:#FFBE9D;" d="M354.85,166.11c0.52-6.69,6.09-11.86,12.8-11.88l0.67,0c7.19,0.4,10.87,6.73,10.27,13.91
						l-1.53,22.32l-12.82,13.32l-3.28-7.96l0.02-5.3c0,0-6.92-1.06-7.02-7.97C353.91,179.22,354.36,172.34,354.85,166.11z"/>
				</g>
			</g>
			<g>
				<g>
					<g>
						<g>
							<g>
								<g>
									<g>
										<g>
											<g>
												<path style="fill:#EB996E;" d="M360.92,190.51c0,0,4.41,0.25,9.05-2.68c0,0-2.12,4.98-9.01,4.38L360.92,190.51z"/>
											</g>
										</g>
									</g>
								</g>
							</g>
						</g>
					</g>
				</g>
			</g>
			<g>
				<g>
					<g>
						<g>
							<g>
								<g>
									<g>
										<g>
											<g>
												<g>
													<g>
														<g>
															<path style="fill:#263238;" d="M356.7,171.87c-0.02,0.52,0.41,0.97,0.95,0.99c0.54,0.03,1-0.37,1.01-0.89
																c0.02-0.52-0.41-0.97-0.95-0.99C357.17,170.95,356.71,171.35,356.7,171.87z"/>
														</g>
													</g>
												</g>
											</g>
										</g>
									</g>
								</g>
							</g>
						</g>
					</g>
				</g>
			</g>
			<g>
				<g>
					<g>
						<g>
							<g>
								<g>
									<g>
										<g>
											<g>
												<g>
													<g>
														<g>
															<g>
																<path style="fill:#263238;" d="M356.34,169.49c0.12,0.13,0.87-0.43,1.93-0.43c1.06-0.02,1.84,0.53,1.96,0.4
																	c0.06-0.06-0.07-0.29-0.41-0.54c-0.33-0.25-0.91-0.48-1.57-0.48c-0.66,0.01-1.22,0.25-1.54,0.5
																	C356.39,169.2,356.28,169.43,356.34,169.49z"/>
															</g>
														</g>
													</g>
												</g>
											</g>
										</g>
									</g>
								</g>
							</g>
						</g>
					</g>
				</g>
			</g>
			<g>
				<g>
					<g>
						<g>
							<g>
								<g>
									<g>
										<g>
											<g>
												<g>
													<g>
														<g>
															<path style="fill:#263238;" d="M366.3,172.14c-0.02,0.52,0.41,0.97,0.95,0.99c0.54,0.03,1-0.37,1.01-0.89
																c0.02-0.52-0.41-0.97-0.95-0.99C366.77,171.22,366.32,171.62,366.3,172.14z"/>
														</g>
													</g>
												</g>
											</g>
										</g>
									</g>
								</g>
							</g>
						</g>
					</g>
				</g>
			</g>
			<g>
				<g>
					<g>
						<g>
							<g>
								<g>
									<g>
										<g>
											<g>
												<g>
													<g>
														<g>
															<g>
																<path style="fill:#263238;" d="M366.78,169.66c0.12,0.13,0.87-0.43,1.93-0.43c1.06-0.02,1.84,0.53,1.96,0.4
																	c0.06-0.06-0.07-0.29-0.41-0.54c-0.33-0.25-0.91-0.48-1.57-0.48c-0.66,0.01-1.22,0.25-1.54,0.5
																	C366.83,169.37,366.72,169.6,366.78,169.66z"/>
															</g>
														</g>
													</g>
												</g>
											</g>
										</g>
									</g>
								</g>
							</g>
						</g>
					</g>
				</g>
			</g>
			<g>
				<g>
					<g>
						<g>
							<g>
								<g>
									<g>
										<g>
											<g>
												<g>
													<g>
														<g>
															<path style="fill:#263238;" d="M362.95,177.55c0-0.06-0.66-0.17-1.73-0.31c-0.27-0.03-0.53-0.08-0.57-0.27
																c-0.06-0.2,0.05-0.49,0.18-0.8c0.25-0.66,0.52-1.35,0.8-2.07c1.11-2.94,1.91-5.36,1.79-5.41
																c-0.12-0.04-1.11,2.31-2.22,5.25c-0.27,0.73-0.52,1.42-0.76,2.08c-0.1,0.31-0.28,0.66-0.14,1.06
																c0.07,0.2,0.27,0.35,0.45,0.4c0.17,0.05,0.33,0.06,0.46,0.06C362.28,177.6,362.95,177.61,362.95,177.55z"/>
														</g>
													</g>
												</g>
											</g>
										</g>
									</g>
								</g>
							</g>
						</g>
					</g>
				</g>
			</g>
			<g>
				<g>
					<g>
						<g>
							<g>
								<g>
									<g>
										<g>
											<g>
												<g>
													<g>
														<g>
															<path style="fill:#263238;" d="M366.08,178.27c-0.17-0.01-0.17,1.14-1.16,1.96c-0.98,0.82-2.21,0.7-2.22,0.86
																c-0.02,0.07,0.27,0.22,0.79,0.24c0.51,0.02,1.25-0.15,1.85-0.65c0.6-0.5,0.86-1.17,0.9-1.65
																C366.28,178.55,366.16,178.26,366.08,178.27z"/>
														</g>
													</g>
												</g>
											</g>
										</g>
									</g>
								</g>
							</g>
						</g>
					</g>
				</g>
			</g>
			<g>
				<g>
					<g>
						<g>
							<g>
								<g>
									<g>
										<g>
											<path style="fill:#263238;" d="M366.5,165.5c0.11,0.29,1.17,0.15,2.41,0.3c1.25,0.12,2.26,0.48,2.42,0.22
												c0.07-0.12-0.1-0.4-0.51-0.67c-0.4-0.28-1.05-0.54-1.79-0.62c-0.75-0.08-1.43,0.04-1.89,0.23
												C366.68,165.13,366.45,165.36,366.5,165.5z"/>
										</g>
									</g>
								</g>
							</g>
						</g>
					</g>
				</g>
			</g>
			<g>
				<g>
					<g>
						<g>
							<g>
								<g>
									<g>
										<g>
											<path style="fill:#263238;" d="M356.72,166.41c0.19,0.24,0.92-0.01,1.8-0.03c0.88-0.05,1.63,0.16,1.8-0.1
												c0.07-0.12-0.04-0.36-0.37-0.59c-0.32-0.23-0.86-0.41-1.46-0.39c-0.6,0.02-1.13,0.24-1.43,0.49
												C356.74,166.05,356.64,166.3,356.72,166.41z"/>
										</g>
									</g>
								</g>
							</g>
						</g>
					</g>
				</g>
			</g>
			<g>
				<g>
					<path style="fill:#263238;" d="M352.29,160.07c0.11-0.63,0.72-1.18,1.35-1.1c-0.34-0.11-0.69-0.23-0.97-0.46
						c-0.27-0.23-0.46-0.61-0.35-0.95c0.16-0.54,0.84-0.67,1.38-0.84c0.7-0.22,1.33-0.67,1.77-1.25c0.63-0.85,0.86-1.93,1.4-2.84
						c0.7-1.18,1.95-2.01,3.31-2.2c1.36-0.19,2.79,0.27,3.79,1.21c1.02-1.11,2.6-1.69,4.1-1.51c1.5,0.19,2.89,1.13,3.61,2.46
						c1.81-0.81,4.06-0.56,5.64,0.63c1.59,1.19,2.45,3.28,2.16,5.25l-4.23,2.76c-0.11-1.33-1.62-2.34-2.89-1.93
						c-1.29,0.41-2.08,1.94-3.42,2.08c-1.05,0.11-1.96-0.68-2.99-0.92c-1.24-0.3-2.53,0.24-3.63,0.89
						c-1.09,0.66-2.13,1.47-3.36,1.82c-1.44,0.41-3,0.13-4.4-0.4c-0.6-0.23-1.2-0.51-1.65-0.96
						C352.47,161.35,352.17,160.7,352.29,160.07z"/>
				</g>
			</g>
			<g>
				<g>
					<path style="fill:#263238;" d="M374.45,159.22l-19.7,0.45c0.61-1.36,1.7-2.45,2.89-3.35c2.56-1.94,5.71-3.16,8.92-3.22
						c3.21-0.06,9.76,3.85,12.09,6.06c1.86,1.77,1.85,3.31,1.85,3.31c0.3,2.55-1.13,5.46-1.7,7.97c-0.29,1.29-0.86,5.21-0.86,5.21
						s0,0,0,0c-1.09,0-1.49-0.87-1.33-1.94l0.2-4.21c0,0-3.69-2.62-1.95-7.42C375.15,161.69,375.75,159.93,374.45,159.22z"/>
				</g>
			</g>
			<g>
				<g>
					<path style="fill:#263238;" d="M377.12,169.21c0.9-3.52,1.72-7.28,0.55-10.72c0.19-0.01,0.39-0.03,0.58-0.04l0.25,0.17
						c1.09-0.4,2.42-0.02,3.13,0.9c0.71,0.92,0.75,2.3,0.08,3.26c1.17-0.09,2.31,0.86,2.45,2.02c0.1,0.8-0.23,1.59-0.57,2.32
						c-0.34,0.73-0.7,1.49-0.68,2.3c0.02,0.81,0.56,1.67,1.36,1.74c-0.33,0.84-1.32,1.35-2.2,1.15c0.3,0.67,0.79,1.26,1.4,1.67
						c-1.26,0.91-3.03,0.66-4.44,0.02c-0.84-0.38-1.67-0.93-2.03-1.78C376.61,171.27,376.87,170.19,377.12,169.21z"/>
				</g>
			</g>
			<g>
				<g>
					<path style="fill:#FFBE9D;" d="M377.56,173.26c0.12-0.05,4.74-1.42,4.61,3.31c-0.14,4.73-4.85,3.61-4.86,3.48
						C377.3,179.91,377.56,173.26,377.56,173.26z"/>
				</g>
			</g>
			<g>
				<g>
					<path style="fill:#EB996E;" d="M378.39,178.3c0.02-0.01,0.08,0.06,0.22,0.13c0.13,0.07,0.37,0.12,0.61,0.03
						c0.5-0.17,0.95-0.95,1-1.8c0.02-0.43-0.05-0.84-0.2-1.19c-0.13-0.35-0.35-0.6-0.6-0.65c-0.25-0.07-0.43,0.08-0.49,0.21
						c-0.07,0.13-0.04,0.23-0.07,0.23c-0.01,0.01-0.1-0.08-0.06-0.28c0.02-0.09,0.08-0.2,0.19-0.29c0.12-0.09,0.28-0.13,0.46-0.11
						c0.36,0.04,0.68,0.38,0.84,0.76c0.18,0.38,0.27,0.84,0.25,1.33c-0.06,0.95-0.57,1.83-1.26,2.01c-0.33,0.08-0.61-0.03-0.75-0.15
						C378.39,178.41,378.37,178.31,378.39,178.3z"/>
				</g>
			</g>
			<g>
				<g>
					<path style="fill:#455A64;" d="M382.34,169.21c0.01,0.01,0.13-0.18,0.07-0.55c-0.05-0.36-0.33-0.88-0.92-1.2
						c-0.58-0.33-1.37-0.39-2.18-0.46c-0.8-0.06-1.71-0.26-2.18-1.03c-0.48-0.75-0.51-1.68-0.44-2.47c0.09-0.8,0.28-1.52,0.36-2.14
						c0.21-1.26-0.05-2.05-0.09-2.02c-0.06,0.01,0.11,0.77-0.17,1.98c-0.12,0.61-0.33,1.31-0.45,2.15c-0.09,0.83-0.08,1.82,0.47,2.7
						c0.27,0.43,0.7,0.76,1.15,0.92c0.45,0.17,0.9,0.22,1.31,0.25c0.83,0.05,1.55,0.09,2.09,0.35c0.53,0.26,0.81,0.69,0.9,1.01
						C382.37,169.01,382.31,169.2,382.34,169.21z"/>
				</g>
			</g>
			<g>
				<g>
					<path style="fill:#455A64;" d="M383.42,167.12c0.02,0.01,0.1-0.14,0.13-0.43c0.03-0.29,0-0.74-0.27-1.21
						c-0.13-0.23-0.32-0.47-0.58-0.66c-0.25-0.2-0.59-0.32-0.92-0.4c-0.32-0.08-0.66-0.16-0.91-0.34c-0.25-0.18-0.36-0.49-0.38-0.85
						c-0.02-0.36,0.02-0.74,0-1.12c-0.02-0.37-0.07-0.73-0.15-1.07c-0.17-0.67-0.43-1.23-0.72-1.67c-0.3-0.45-0.76-0.66-1.06-0.63
						c-0.31,0.01-0.44,0.16-0.42,0.17c0.01,0.03,0.16-0.06,0.42-0.02c0.26,0.03,0.61,0.22,0.85,0.64c0.25,0.41,0.47,0.97,0.61,1.6
						c0.07,0.32,0.11,0.65,0.12,1c0.01,0.35-0.03,0.72-0.01,1.13c0.01,0.4,0.17,0.87,0.53,1.12c0.35,0.25,0.72,0.31,1.04,0.38
						c0.65,0.11,1.09,0.46,1.36,0.86C383.59,166.45,383.35,167.12,383.42,167.12z"/>
				</g>
			</g>
			<g>
				<g>
					<path style="fill:#455A64;" d="M355.46,155.47c-0.03,0.01,0.36,0.25,0.97-0.06c0.3-0.14,0.59-0.44,0.87-0.78
						c0.28-0.35,0.6-0.73,1.07-1c0.91-0.55,2.39-0.73,3.56,0.13c0.6,0.41,1.13,0.98,1.82,1.46c0.35,0.23,0.75,0.44,1.2,0.51
						c0.45,0.08,0.92,0,1.34-0.17c0.84-0.33,1.5-0.87,2.22-1.16c0.72-0.3,1.48-0.45,2.2-0.46c1.46-0.04,2.73,0.47,3.61,1.13
						c0.89,0.65,1.43,1.4,1.74,1.93c0.31,0.54,0.43,0.87,0.46,0.86c0.01,0-0.01-0.09-0.05-0.25c-0.05-0.16-0.14-0.39-0.28-0.68
						c-0.29-0.56-0.8-1.36-1.71-2.07c-0.89-0.71-2.23-1.28-3.77-1.26c-0.76,0-1.57,0.15-2.34,0.47c-0.78,0.31-1.45,0.85-2.22,1.15
						c-0.38,0.15-0.77,0.21-1.15,0.15c-0.38-0.06-0.73-0.24-1.05-0.45c-0.65-0.44-1.19-1.01-1.83-1.44
						c-0.63-0.45-1.4-0.65-2.08-0.62c-0.69,0.02-1.32,0.24-1.81,0.55c-0.5,0.31-0.84,0.74-1.09,1.1c-0.26,0.36-0.51,0.64-0.78,0.79
						C355.83,155.6,355.46,155.43,355.46,155.47z"/>
				</g>
			</g>
		</g>
		<g>
			<g>
				<g>
					<g>
						<g>
							<g>
								<g>
									<g>
										<g>
											<g>
												<g>
													<g>
														<path style="fill:#FFBE9D;" d="M327.78,218.09l-24.45-19.32l-3.48-3.66c0,0-8.33-7.78-9.03-8.63
															c-0.81-0.98-1.48-0.82-1.82-0.5c-0.53,0.51-0.35,1.53,0.32,2.4c0.23,0.3,4.09,4.86,4.09,4.86s-0.53-0.21-1.92-0.5
															c-1.4-0.29-3.4,0.54-4.99,1.96c-1.59,1.42-1.91,1.95-1.39,2.6c0.21,0.26,0.52,0.34,0.84,0.35
															c0.51,0.01,1-0.19,1.39-0.53c2.58-2.23,4.45-1.42,4.45-1.42l0.46,0.48c0,0-2.54,0.19-3.41,1.73
															c-0.14,0.25-0.21,0.5-0.25,0.73c-0.69,0.59-1.06,1.54-0.92,2.43c0.14,0.93,0.81,1.77,1.69,2.11
															c0.42,0.16,0.97,0.18,1.25-0.17c0.15-0.19,0.19-0.43,0.23-0.67c0.02-0.12,0.05-0.25,0.09-0.37l1.46,1.16
															c0,0,3.43,2.43,4.8,3.66l20.44,22.23c2.83,3.08,7.64,3.24,10.68,0.35l0,0C331.6,226.25,331.35,220.91,327.78,218.09z"
															/>
													</g>
												</g>
											</g>
										</g>
									</g>
								</g>
								<g>
									<g>
										<g>
											<g>
												<g>
													<g>
														<g>
															<path style="fill:#FFBE9D;" d="M302.31,199.08c-0.37,0.53-1.16,0.59-1.77,0.38c-0.61-0.21-1.14-0.62-1.74-0.87
																c-1.79-0.76-3.97-0.01-5.72-0.86c-0.24-0.12-0.51-0.34-0.44-0.6c0.06-0.24,0.35-0.33,0.6-0.38
																c2.11-0.4,4.21-0.81,6.32-1.21"/>
														</g>
													</g>
												</g>
											</g>
										</g>
									</g>
									<g>
										<g>
											<g>
												<g>
													<g>
														<g>
															<g>
																<path style="fill:#EB996E;" d="M299.56,195.54c0-0.02-0.25,0-0.7,0.06c-0.44,0.06-1.08,0.16-1.87,0.3
																	c-0.82,0.15-1.75,0.31-2.77,0.49c-0.26,0.05-0.53,0.1-0.8,0.15c-0.25,0.07-0.61,0.04-0.88,0.39
																	c-0.13,0.18-0.09,0.46,0.02,0.61c0.11,0.16,0.25,0.26,0.4,0.34c0.29,0.14,0.58,0.25,0.89,0.32
																	c1.25,0.28,2.43,0.12,3.46,0.23c0.52,0.04,1,0.14,1.42,0.31c0.42,0.17,0.79,0.41,1.15,0.59
																	c0.72,0.4,1.47,0.44,1.9,0.24c0.45-0.19,0.54-0.48,0.53-0.47c-0.03-0.03-0.16,0.21-0.57,0.34
																	c-0.41,0.13-1.06,0.07-1.73-0.34c-0.34-0.19-0.71-0.44-1.16-0.64c-0.45-0.2-0.97-0.31-1.5-0.36
																	c-1.07-0.12-2.25,0.02-3.4-0.25c-0.29-0.06-0.56-0.17-0.81-0.28c-0.24-0.12-0.39-0.32-0.29-0.43
																	c0.08-0.14,0.37-0.19,0.64-0.24c0.27-0.05,0.54-0.11,0.8-0.16c1.01-0.21,1.94-0.4,2.76-0.57
																	c0.78-0.17,1.42-0.31,1.85-0.41C299.32,195.64,299.56,195.57,299.56,195.54z"/>
															</g>
														</g>
													</g>
												</g>
											</g>
										</g>
									</g>
								</g>
								<g>
									<g>
										<g>
											<g>
												<g>
													<g>
														<g>
															<path style="fill:#EB996E;" d="M292.31,196.15c-0.03,0.04-0.31-0.42-1.04-0.63c-0.36-0.1-0.82-0.09-1.28,0.09
																c-0.47,0.17-0.93,0.49-1.39,0.85c-0.46,0.37-0.91,0.73-1.39,0.97c-0.47,0.23-0.95,0.36-1.36,0.32
																c-0.42-0.03-0.71-0.27-0.82-0.46c-0.12-0.19-0.13-0.32-0.12-0.32c0.02-0.01,0.07,0.11,0.2,0.27
																c0.13,0.16,0.39,0.34,0.76,0.35c0.37,0.01,0.81-0.12,1.25-0.35c0.44-0.23,0.88-0.59,1.34-0.96
																c0.47-0.37,0.95-0.7,1.46-0.87c0.5-0.18,1.02-0.18,1.4-0.04c0.39,0.13,0.65,0.34,0.8,0.51
																C292.27,196.03,292.32,196.15,292.31,196.15z"/>
														</g>
													</g>
												</g>
											</g>
										</g>
									</g>
								</g>
								<g>
									<g>
										<g>
											<g>
												<g>
													<g>
														<g>
															<path style="fill:#EB996E;" d="M289.05,188.05c0.03-0.02,0.31,0.33,0.77,0.9c0.51,0.63,1.13,1.38,1.81,2.22
																c0.69,0.82,1.32,1.57,1.84,2.19c0.47,0.56,0.77,0.91,0.74,0.93c-0.02,0.02-0.36-0.29-0.87-0.82
																c-0.51-0.53-1.18-1.29-1.9-2.15c-0.71-0.86-1.33-1.67-1.76-2.27C289.27,188.45,289.03,188.06,289.05,188.05z"/>
														</g>
													</g>
												</g>
											</g>
										</g>
									</g>
								</g>
								<g>
									<g>
										<g>
											<g>
												<g>
													<g>
														<g>
															<path style="fill:#EB996E;" d="M292.14,198.05c0,0.02-0.13,0.05-0.35,0.12c-0.21,0.07-0.57,0.19-0.73,0.55
																c-0.08,0.17-0.05,0.39,0.08,0.58c0.12,0.2,0.33,0.36,0.54,0.56c0.21,0.19,0.45,0.45,0.49,0.81
																c0.03,0.35-0.12,0.71-0.4,0.95c-0.28,0.24-0.65,0.32-0.98,0.29c-0.33-0.04-0.63-0.15-0.87-0.36
																c-0.44-0.39-0.73-0.82-0.96-1.19c-0.22-0.37-0.35-0.71-0.4-0.95c-0.04-0.24-0.01-0.38,0-0.38
																c0.02,0,0.02,0.13,0.09,0.36c0.07,0.22,0.22,0.53,0.45,0.88c0.24,0.34,0.55,0.76,0.96,1.11
																c0.39,0.32,1.1,0.45,1.55,0.06c0.22-0.19,0.35-0.48,0.32-0.74c-0.03-0.27-0.21-0.49-0.41-0.67
																c-0.2-0.19-0.41-0.38-0.55-0.61c-0.15-0.23-0.18-0.54-0.07-0.75c0.23-0.44,0.64-0.53,0.86-0.57
																C292,198.04,292.13,198.04,292.14,198.05z"/>
														</g>
													</g>
												</g>
											</g>
										</g>
									</g>
								</g>
								<g>
									<g>
										<g>
											<g>
												<g>
													<g>
														<g>
															<path style="fill:#EB996E;" d="M290.74,201.7c0.01-0.01,0.11,0.07,0.19,0.28c0.07,0.2,0.1,0.57-0.14,0.91
																c-0.23,0.34-0.72,0.58-1.26,0.53c-0.54-0.05-1.07-0.37-1.45-0.83c-0.39-0.47-0.6-1.03-0.63-1.55
																c-0.04-0.52,0.1-0.99,0.27-1.34c0.18-0.35,0.39-0.59,0.55-0.73c0.16-0.14,0.27-0.2,0.28-0.19
																c0.03,0.03-0.38,0.31-0.68,0.99c-0.14,0.34-0.25,0.77-0.21,1.25c0.04,0.48,0.24,0.99,0.59,1.42
																c0.35,0.42,0.83,0.71,1.3,0.77c0.46,0.06,0.89-0.14,1.11-0.41c0.22-0.28,0.23-0.6,0.19-0.79
																C290.8,201.81,290.73,201.71,290.74,201.7z"/>
														</g>
													</g>
												</g>
											</g>
										</g>
									</g>
								</g>
								<g>
									<g>
										<g>
											<g>
												<g>
													<g>
														<g>
															<path style="fill:#EB996E;" d="M296.46,202.14c-0.01-0.02,0.12-0.19,0.44-0.36c0.32-0.17,0.84-0.33,1.44-0.22
																l-0.12,0.17c-0.14-0.21-0.28-0.44-0.41-0.7c-0.72-1.4-0.71-2.71-0.65-2.7c0.07-0.01,0.17,1.25,0.86,2.6
																c0.12,0.24,0.26,0.47,0.39,0.68l0.14,0.23l-0.26-0.05c-0.54-0.11-1.02,0-1.33,0.12
																C296.65,202.03,296.48,202.16,296.46,202.14z"/>
														</g>
													</g>
												</g>
											</g>
										</g>
									</g>
								</g>
								<g>
									<g>
										<g>
											<g>
												<g>
													<g>
														<g>
															<path style="fill:#EB996E;" d="M289.87,194.4c0.06-0.01,0.16,0.46-0.1,0.97c-0.26,0.51-0.7,0.72-0.72,0.66
																c-0.04-0.06,0.29-0.32,0.51-0.76C289.78,194.82,289.8,194.4,289.87,194.4z"/>
														</g>
													</g>
												</g>
											</g>
										</g>
									</g>
								</g>
							</g>
						</g>
						<g>
							<g>
								<g>
									<path style="fill:#4484FF;" d="M326.67,230.94l14.12-9.78c0,0-1.24,37.85-1.24,38.2c0,0-2.59,1.02-2.13,3.72l0.75,3.81
										c15.55,3.57,30.95,5.89,46.63,0.12l1.78-30.15l5.5-36.82l-12.61-5.37l-2.16-4.97l-13.07,14.07l-3.34-9.09l0.09-3.43
										l-3.16,3.43l-15.32,2.49l-19.07,15.46l-6.25-5.06l-9.44,13.1l10.72,10.84C321.19,232.27,324.08,232.06,326.67,230.94z"/>
								</g>
							</g>
							<g>
								<g>
									<g>
										<path style="fill:#263238;" d="M362.31,202.07c0.03,0.04-0.57,0.18-0.92,1.02c-0.18,0.41-0.27,0.93-0.28,1.56
											c-0.03,0.62,0.01,1.36-0.3,2.12l-0.15,0.37l-0.16-0.37c-0.43-0.98-0.72-2.1-1-3.28c-0.54-2.32-0.88-4.44-1.11-5.98
											c-0.23-1.54-0.32-2.5-0.27-2.5c0.05-0.01,0.24,0.94,0.53,2.46c0.3,1.52,0.68,3.63,1.22,5.94
											c0.28,1.17,0.56,2.29,0.95,3.23l-0.31,0c0.29-0.66,0.28-1.37,0.33-2c0.03-0.63,0.16-1.21,0.38-1.63
											c0.21-0.43,0.5-0.7,0.73-0.82C362.17,202.06,362.31,202.06,362.31,202.07z"/>
									</g>
								</g>
							</g>
							<g>
								<g>
									<g>
										<path style="fill:#263238;" d="M378.74,196.41c0.02,0.02-0.14,0.24-0.43,0.62c-0.3,0.38-0.74,0.93-1.29,1.61
											c-1.1,1.35-2.64,3.19-4.35,5.21c-0.98,1.14-1.91,2.22-2.73,3.19l-0.21,0.25l-0.08-0.31c-0.39-1.55-0.7-2.87-0.91-3.79
											c-0.09-0.46-0.34-0.73-0.59-0.73c-0.24-0.02-0.33,0.12-0.34,0.1c-0.02,0.01,0.05-0.19,0.35-0.2
											c0.14,0,0.32,0.04,0.47,0.19c0.15,0.14,0.24,0.36,0.31,0.59c0.27,0.91,0.63,2.21,1.05,3.76l-0.29-0.07
											c0.82-0.97,1.73-2.06,2.7-3.21c1.71-2.02,3.28-3.83,4.43-5.14c0.57-0.65,1.04-1.17,1.38-1.53
											C378.52,196.58,378.72,196.39,378.74,196.41z"/>
									</g>
								</g>
							</g>
							<g>
								<g>
									<g>
										<path style="fill:#263238;" d="M359.86,255.66c-0.01,0-0.02-0.17-0.04-0.48c-0.01-0.35-0.02-0.81-0.03-1.38
											c-0.02-1.2-0.02-2.93,0-5.06c0.05-4.28,0.25-10.18,0.74-16.69c0.49-6.51,1.17-12.38,1.75-16.62
											c0.29-2.12,0.55-3.83,0.75-5.01c0.1-0.56,0.18-1.01,0.24-1.36c0.06-0.31,0.09-0.47,0.11-0.47c0.01,0,0,0.17-0.03,0.48
											c-0.04,0.35-0.1,0.8-0.17,1.37c-0.15,1.23-0.37,2.93-0.63,5.02c-0.52,4.24-1.16,10.11-1.64,16.61
											c-0.48,6.5-0.73,12.4-0.84,16.67c-0.05,2.1-0.09,3.82-0.12,5.06c-0.02,0.57-0.03,1.02-0.04,1.38
											C359.89,255.49,359.88,255.66,359.86,255.66z"/>
									</g>
								</g>
							</g>
							<g>
								<g>
									<g>
										<path style="fill:#263238;" d="M356.25,264.35c-0.1,0.02-0.39-1.41-0.33-3.18c0.05-1.77,0.27-3.18,0.37-3.18
											c0.11,0.01,0.05,1.44,0,3.18C356.24,262.92,356.35,264.33,356.25,264.35z"/>
									</g>
								</g>
							</g>
							<g>
								<g>
									<g>
										<path style="fill:#263238;" d="M374.43,253.94c0.01,0.02-0.4,0.18-1.14,0.43c-0.74,0.26-1.83,0.6-3.17,0.99
											c-2.7,0.79-6.46,1.73-10.69,2.48c-4.22,0.75-8.09,1.16-10.89,1.35c-1.4,0.1-2.54,0.15-3.32,0.16
											c-0.78,0.02-1.22,0.01-1.22-0.01c0-0.03,0.43-0.07,1.21-0.13c0.84-0.07,1.96-0.17,3.31-0.28
											c2.79-0.26,6.64-0.71,10.85-1.45c4.21-0.75,7.97-1.65,10.68-2.37c1.31-0.36,2.39-0.65,3.2-0.88
											C374,254.02,374.42,253.91,374.43,253.94z"/>
									</g>
								</g>
							</g>
							<g>
								<g>
									<g>
										<path style="fill:#263238;" d="M340.74,229.84c-0.1,0-0.17-5.26-0.14-11.75c0.02-6.49,0.12-11.75,0.23-11.75
											c0.1,0,0.17,5.26,0.14,11.76C340.95,224.57,340.85,229.84,340.74,229.84z"/>
									</g>
								</g>
							</g>
						</g>
					</g>
					<g style="opacity:0.3;">
						<g>
							<g>
								<path d="M365.45,205c0.78,0.02,1.58,0.49,1.72,1.26c0.14,0.77,0.04,1.58,0.24,2.34c0.2,0.76,0.89,1.5,1.66,1.34
									c0.47-0.1,0.81-0.49,1.1-0.86c1.5-1.94,2.72-4.36,3.6-6.65c-0.02,0.06-3.96,4.55-3.96,4.55c-0.12-1.13-0.48-2.25-0.89-3.31
									c-0.13-0.34-0.28-0.93-0.62-1.08c-0.54-0.25-1.25,0.54-1.61,1.01c-0.36,0.47-1.13,1.3-1.24,1.33"/>
							</g>
						</g>
					</g>
					<g style="opacity:0.3;">
						<g>
							<g>
								<path d="M358.99,200.92c0.13,2.47,0.52,5.06,1.44,7.36c0.09,0.23,0.2,0.47,0.39,0.64c0.19,0.17,0.49,0.24,0.7,0.1
									c0.15-0.1,0.65-1.35,0.71-1.52c0.37-1.02,1.85-1.12,1.85-1.12s-0.59-2.63-0.97-3.41c-0.17-0.35-0.54-0.66-0.92-0.59
									c-0.46,0.08-0.96,0.7-1.02,1.17c-0.22,1.84-0.2,2.68-0.47,3.32c-0.7-1.95-1.26-4.31-1.72-6.01"/>
							</g>
						</g>
					</g>
					<g style="opacity:0.3;">
						<g>
							<g>
								<path d="M369.96,255.12c0.74-0.39,0.83-1.53,0.34-2.21c-0.49-0.68-1.4-0.95-2.23-0.85c-0.83,0.1-1.59,0.53-2.26,1.02
									c-0.68,0.49-1.3,1.05-2.02,1.49c-1.75,1.08-3.89,1.32-5.95,1.36c-2.06,0.03-4.14-0.12-6.16,0.28
									c-2.02,0.39-4.04,1.43-5.01,3.25C346.67,259.45,364.26,258.17,369.96,255.12z"/>
							</g>
						</g>
					</g>
				</g>
			</g>
			<g>
				<path style="fill:#4484FF;" d="M392.08,200.05c0,0,5.32,3.79,6.61,7.23c1.29,3.44,6.04,27.03,6.82,31.05
					c0.98,5.06,1.01,11.33-6.28,13.71c-2.71,0.89-19.32-0.47-19.32-0.47l0.54-11.8l8.97,0.34c0,0-0.54-0.8,0.75-1.76l-2.85-15.35
					c0,0,1.05-16.3,1.18-16.68C388.63,205.94,392.08,200.05,392.08,200.05z"/>
			</g>
			<g>
				<g>
					<path style="fill:#263238;" d="M392.35,200.44c0.06,0.11-2.23,0.79-4.17,2.86c-1.97,2.04-2.54,4.35-2.66,4.3
						c-0.04-0.01,0.04-0.59,0.39-1.47c0.34-0.88,1-2.03,2-3.09c1-1.05,2.13-1.76,2.99-2.14
						C391.76,200.51,392.33,200.41,392.35,200.44z"/>
				</g>
			</g>
			<g>
				<g>
					<path style="fill:#263238;" d="M395.25,242.48c-0.06,0.02-0.18-0.39-0.54-0.94c-0.35-0.55-0.98-1.24-1.82-1.78
						c-0.84-0.55-1.72-0.85-2.37-0.93c-0.65-0.1-1.06-0.02-1.08-0.08c-0.01-0.04,0.4-0.21,1.1-0.18c0.7,0.02,1.65,0.3,2.55,0.88
						c0.9,0.58,1.53,1.34,1.85,1.96C395.26,242.03,395.29,242.48,395.25,242.48z"/>
				</g>
			</g>
			<g>
				<g>
					<path style="fill:#263238;" d="M385.59,213.67c0.03,0,0.11,0.33,0.25,0.95c0.14,0.69,0.33,1.56,0.54,2.61
						c0.44,2.21,1.03,5.26,1.66,8.64c0.63,3.38,1.17,6.44,1.55,8.66c0.17,1.06,0.31,1.94,0.43,2.63c0.09,0.62,0.13,0.97,0.11,0.97
						c-0.03,0-0.11-0.33-0.25-0.95c-0.14-0.69-0.33-1.56-0.54-2.61c-0.44-2.21-1.03-5.26-1.66-8.64c-0.63-3.38-1.17-6.44-1.55-8.66
						c-0.17-1.06-0.32-1.94-0.43-2.63C385.6,214.02,385.56,213.68,385.59,213.67z"/>
				</g>
			</g>
			<g>
				<g>
					<path style="fill:#263238;" d="M379.9,251.57c-0.02,0-0.03-0.32-0.03-0.91c0.01-0.66,0.03-1.49,0.06-2.5
						c0.06-2.12,0.18-5.07,0.32-8.4l0.01-0.18l0.18,0.01c0.47,0.02,0.97,0.04,1.48,0.06c2.76,0.12,5.32,0.23,7.48,0.32l0.05,0
						l0.04,0.03c1.4,1.14,2.11,2.5,2.45,3.45c0.17,0.48,0.26,0.88,0.31,1.14c0.04,0.27,0.05,0.41,0.04,0.42
						c-0.04,0.01-0.12-0.57-0.51-1.5c-0.38-0.92-1.12-2.21-2.48-3.27l0.09,0.03c-2.16-0.07-4.72-0.16-7.48-0.26
						c-0.51-0.02-1.01-0.04-1.48-0.06l0.19-0.18c-0.16,3.32-0.31,6.27-0.44,8.39c-0.07,1.01-0.13,1.84-0.17,2.5
						C379.97,251.25,379.93,251.57,379.9,251.57z"/>
				</g>
			</g>
		</g>
		<g>
			<g>
				<g>
					<g>
						<g>
							<path style="fill:#455A64;" d="M366.79,237.29l-6.94-14.15c-0.47-0.96-1.45-1.57-2.52-1.57h-17.45
								c-0.65,0-1.06,0.69-0.76,1.26l11.81,22.05c0.33,0.62,0.98,1,1.68,1h18.1L366.79,237.29z"/>
						</g>
					</g>
				</g>
				<g>
					<g>
						<g>
							<g>
								<path style="fill:#263238;" d="M339.24,222.93c0,0.01,0.12,0.02,0.35,0.03c0.27,0,0.6,0.01,1,0.02c0.91,0,2.16,0,3.67,0
									c3.14-0.03,7.4-0.06,12.11-0.1c0.58,0.02,1.15,0.12,1.61,0.39c0.47,0.27,0.8,0.71,1.07,1.18c0.51,0.97,0.93,1.98,1.38,2.9
									c0.87,1.85,1.65,3.52,2.31,4.93c0.65,1.37,1.19,2.49,1.59,3.31c0.18,0.36,0.33,0.66,0.45,0.89c0.11,0.2,0.17,0.31,0.18,0.3
									c0.01,0-0.03-0.12-0.12-0.33c-0.1-0.24-0.23-0.55-0.39-0.92c-0.37-0.84-0.88-1.97-1.49-3.36c-0.65-1.43-1.41-3.11-2.25-4.96
									c-0.44-0.93-0.84-1.91-1.37-2.93c-0.28-0.49-0.64-1-1.19-1.31c-0.54-0.31-1.16-0.41-1.76-0.44
									c-4.75,0.03-9.02,0.13-12.13,0.2c-1.52,0.04-2.76,0.08-3.67,0.1c-0.4,0.02-0.73,0.03-1,0.04
									C339.36,222.91,339.24,222.92,339.24,222.93z"/>
							</g>
						</g>
					</g>
				</g>
				<g>
					<g>
						<g>
							<path style="fill:#FFFFFF;" d="M349.99,226.03c-0.42,0.22-0.44,0.57-0.26,0.88c0.18,0.31,0.58,0.44,0.92,0.35
								c0.23-0.06,0.44-0.23,0.48-0.46c0.04-0.23-0.17-0.73-0.53-0.8C350.6,225.99,350.2,225.92,349.99,226.03z"/>
						</g>
					</g>
				</g>
			</g>
			<g>
				<g>
					<g>
						<path style="fill:#FFBE9D;" d="M380.25,240.24l-4.34-0.42c0,0-1.96-2.23-2.74-2.91c-0.77-0.68-5.19-2.84-5.19-2.84
							s-2.3-2.44-2.6-2.4c-0.3,0.04-1.24,0.32-0.84,1.54c0.39,1.17,1.04,2.73,1.51,3.46l-8.73,1.24c-0.55,0.08-1.06,0.38-1.34,0.85
							c-0.19,0.32-0.25,0.65,0.18,0.81c0.97,0.35,4.8,0.81,4.8,0.81l-1.71-0.23c0,0-0.17,1.63,0.98,2.26
							c1.14,0.62,1.23,0.76,1.23,0.76s0.23,1.5,0.76,2.05s5.77,2.5,5.77,2.5s3.26,0.55,4.85,0.29l7.08,1.08L380.25,240.24z"/>
					</g>
				</g>
			</g>
			<g>
				<g>
					<g>
						<g>
							<path style="fill:#EB996E;" d="M365.21,236.8c0.01,0.09,1.12,0,2.49-0.02c1.37-0.01,2.5-0.08,2.49-0.18
								c0-0.08-1.11-0.15-2.5-0.14C366.31,236.49,365.2,236.72,365.21,236.8z"/>
						</g>
					</g>
				</g>
			</g>
			<g>
				<g>
					<g>
						<g>
							<path style="fill:#EB996E;" d="M366.85,240.55c0.02-0.1-1.63-0.34-3.67-0.33c-1.02-0.01-1.93,0.01-2.6,0.02
								c-0.66,0.01-1.07,0-1.08,0.05c0,0.04,0.4,0.13,1.07,0.17c0.67,0.05,1.59,0.07,2.6,0.07
								C365.21,240.52,366.84,240.62,366.85,240.55z"/>
						</g>
					</g>
				</g>
			</g>
			<g>
				<g>
					<g>
						<g>
							<path style="fill:#EB996E;" d="M367.19,243.41c-0.01-0.09-1.29,0.02-2.87-0.06c-1.57-0.07-2.84-0.32-2.86-0.23
								c-0.02,0.08,1.23,0.46,2.84,0.54C365.92,243.75,367.21,243.49,367.19,243.41z"/>
						</g>
					</g>
				</g>
			</g>
			<g>
				<g>
					<g>
						<g>
							<path style="fill:#EB996E;" d="M367.05,246.69c0.09,0,0.17-0.36,0.19-0.8c0.02-0.45-0.03-0.81-0.12-0.82
								c-0.09,0-0.17,0.36-0.19,0.8C366.91,246.32,366.96,246.69,367.05,246.69z"/>
						</g>
					</g>
				</g>
			</g>
			<g>
				<g>
					<g>
						<g>
							<path style="fill:#EB996E;" d="M367.37,242.75c0.09-0.02,0.1-0.31,0.21-0.63c0.11-0.32,0.28-0.56,0.22-0.62
								c-0.05-0.07-0.37,0.11-0.51,0.52C367.15,242.43,367.29,242.77,367.37,242.75z"/>
						</g>
					</g>
				</g>
			</g>
			<g>
				<g>
					<g>
						<g>
							<path style="fill:#EB996E;" d="M367.91,238.78c0.09,0,0.16-0.2,0.24-0.42c0.08-0.22,0.15-0.41,0.08-0.47
								c-0.06-0.06-0.28,0.09-0.38,0.37C367.75,238.54,367.83,238.79,367.91,238.78z"/>
						</g>
					</g>
				</g>
			</g>
		</g>
	</g>
</g>
</svg>
