<?xml version="1.0" encoding="utf-8"?>
<!-- Generator: Adobe Illustrator 24.3.0, SVG Export Plug-In . SVG Version: 6.00 Build 0)  -->
<svg version="1.1" xmlns="http://www.w3.org/2000/svg" xmlns:xlink="http://www.w3.org/1999/xlink" x="0px" y="0px"
	 viewBox="0 0 750 500" style="enable-background:new 0 0 750 500;" xml:space="preserve">
<g id="Background_Complete">
	<g>
		<g>
			<g>
				<g>
					<g>
						<g>
							<g>
								<g>
									<g>
										<g>
											<polygon style="fill:#F5F5F5;" points="491.31,154.44 496.93,176.34 469.92,183.47 464.3,161.57 											"/>
										</g>
									</g>
								</g>
							</g>
						</g>
						<g>
							<g>
								<g>
									<g>
										<g>
											<g>
												<path style="fill:#E0E0E0;" d="M491.31,154.44c0,0-0.04,0.01-0.13,0.04c-0.09,0.02-0.21,0.06-0.38,0.1
													c-0.34,0.09-0.83,0.22-1.47,0.4c-1.28,0.34-3.15,0.84-5.52,1.48c-4.74,1.26-11.48,3.05-19.49,5.18l0.05-0.09
													c1.68,6.52,3.6,13.99,5.63,21.9l0,0l-0.1-0.06c10-2.63,19.29-5.08,27.01-7.12l-0.05,0.08
													c-1.68-6.6-3.07-12.07-4.04-15.89c-0.48-1.91-0.86-3.42-1.12-4.44c-0.13-0.51-0.23-0.9-0.29-1.17
													C491.34,154.58,491.31,154.44,491.31,154.44s0.04,0.13,0.11,0.39c0.07,0.27,0.17,0.65,0.3,1.16
													c0.27,1.02,0.66,2.52,1.15,4.42c0.99,3.83,2.41,9.31,4.12,15.92l0.02,0.07l-0.07,0.02c-7.72,2.04-17.01,4.5-27.01,7.14
													l-0.08,0.02l-0.02-0.08l0,0c-2.03-7.91-3.94-15.38-5.61-21.9l-0.02-0.07l0.07-0.02c8.04-2.11,14.8-3.88,19.56-5.12
													c2.37-0.62,4.24-1.1,5.52-1.44c0.63-0.16,1.12-0.29,1.46-0.38c0.16-0.04,0.28-0.07,0.37-0.09
													C491.27,154.45,491.31,154.44,491.31,154.44z"/>
											</g>
										</g>
									</g>
								</g>
							</g>
						</g>
					</g>
				</g>
			</g>
			<g>
				<g>
					<g>
						<g>
							<g>
								<polygon style="fill:#EBEBEB;" points="470.5,181.85 495.61,175.22 490.7,156.08 465.59,162.7 								"/>
							</g>
						</g>
					</g>
				</g>
			</g>
			<g>
				<g>
					<g>
						<g>
							<g>
								<polygon style="fill:#E0E0E0;" points="470.5,181.85 476.22,167.63 483.56,173.64 486.23,168.69 495.61,175.22 								"/>
							</g>
						</g>
					</g>
				</g>
			</g>
			<g>
				<g>
					<g>
						<g>
							<g>
								<g>
									<g>
										<path style="fill:#E0E0E0;" d="M483.58,164.13c0.28,1.11-0.37,2.24-1.46,2.53c-1.09,0.29-2.21-0.38-2.49-1.48
											c-0.28-1.11,0.37-2.24,1.46-2.53C482.18,162.36,483.3,163.03,483.58,164.13z"/>
									</g>
								</g>
							</g>
						</g>
					</g>
				</g>
			</g>
		</g>
		<g>
			<g>
				<g>
					<g>
						<g>
							<g>
								<g>
									<g>
										<g>
											<polygon style="fill:#F5F5F5;" points="519.8,135.5 522.17,169.61 480.1,172.62 477.73,138.51 											"/>
										</g>
									</g>
								</g>
							</g>
						</g>
						<g>
							<g>
								<g>
									<g>
										<g>
											<g>
												<path style="fill:#E0E0E0;" d="M519.8,135.5c0,0-0.07,0.01-0.2,0.02c-0.14,0.01-0.33,0.03-0.59,0.05
													c-0.52,0.04-1.29,0.1-2.28,0.18c-2,0.15-4.92,0.37-8.61,0.65c-7.39,0.54-17.89,1.31-30.37,2.23l0.1-0.12
													c0.71,10.15,1.52,21.79,2.38,34.11l0,0l-0.13-0.11c15.58-1.11,30.05-2.13,42.07-2.99l-0.09,0.11
													c-0.69-10.27-1.27-18.79-1.67-24.74c-0.2-2.98-0.35-5.32-0.45-6.92c-0.05-0.79-0.09-1.41-0.12-1.83
													C519.81,135.72,519.8,135.5,519.8,135.5s0.02,0.2,0.05,0.61c0.03,0.41,0.08,1.02,0.14,1.8
													c0.12,1.59,0.29,3.92,0.51,6.89c0.43,5.97,1.04,14.51,1.78,24.8l0.01,0.1l-0.1,0.01c-12.02,0.87-26.49,1.91-42.07,3.03
													l-0.12,0.01l-0.01-0.12l0,0c-0.85-12.32-1.66-23.96-2.36-34.11l-0.01-0.11l0.11-0.01c12.52-0.87,23.04-1.61,30.45-2.12
													c3.69-0.25,6.6-0.45,8.59-0.58c0.99-0.06,1.74-0.11,2.26-0.15c0.25-0.02,0.44-0.03,0.58-0.03
													C519.74,135.5,519.8,135.5,519.8,135.5z"/>
											</g>
										</g>
									</g>
								</g>
							</g>
						</g>
					</g>
				</g>
			</g>
			<g>
				<g>
					<g>
						<g>
							<g>
								<polygon style="fill:#EBEBEB;" points="481.4,170.37 520.52,167.57 518.45,137.75 479.33,140.55 								"/>
							</g>
						</g>
					</g>
				</g>
			</g>
			<g>
				<g>
					<g>
						<g>
							<g>
								<polygon style="fill:#E0E0E0;" points="481.4,170.37 493.78,150.86 503.05,161.85 508.36,155.24 520.52,167.57 								"/>
							</g>
						</g>
					</g>
				</g>
			</g>
			<g>
				<g>
					<g>
						<g>
							<g>
								<g>
									<g>
										<path style="fill:#E0E0E0;" d="M505.68,147.73c0.12,1.73-1.16,3.22-2.86,3.34c-1.7,0.12-3.18-1.18-3.3-2.9
											c-0.12-1.73,1.16-3.22,2.86-3.34C504.08,144.7,505.56,146,505.68,147.73z"/>
									</g>
								</g>
							</g>
						</g>
					</g>
				</g>
			</g>
		</g>
	</g>
	<g>
		<g>
			<path style="fill:#EBEBEB;" d="M302.23,164.52c1.13-3.63-0.6-10.32-3.6-12.66c-3-2.34-7.46-2.6-10.71-0.62
				c0-7.94-6.52-15.37-14.4-16.39c-7.88-1.02-16.08,4.49-18.1,12.17c-4.76-1.64-10.43-0.24-13.88,3.43
				c-3.45,3.67-4.49,9.42-2.55,14.07H302.23z"/>
		</g>
		<g>
			<g>
				<polygon style="fill:#FFFFFF;" points="274.33,150.64 271.58,147.66 268.83,144.67 266.07,147.66 263.32,150.64 266.41,150.64 
					266.41,159.54 271.24,159.54 271.24,150.64 				"/>
			</g>
			<g>
				<g>
					<path style="fill:#E0E0E0;" d="M274.33,150.64c0.02,0.01-0.25,0.01-0.77,0.03c-0.52,0.02-1.31,0.05-2.32,0.06l0.09-0.09
						c0.02,2.14,0.04,5.21,0.07,8.9l0,0.16l-0.16,0c-1.49,0-3.12,0.01-4.84,0.02l-0.18,0l0-0.18c0-1.8,0-3.72-0.01-5.7
						c0-1.09,0-2.16,0-3.2l0.18,0.18c-1.06,0-2.09,0-3.09-0.01l-0.4,0l0.27-0.29c2.06-2.22,3.94-4.23,5.53-5.94l0.1-0.11l0.1,0.11
						c1.67,1.84,3.04,3.34,4,4.43c0.44,0.5,0.79,0.91,1.06,1.22C274.22,150.51,274.34,150.64,274.33,150.64
						c-0.01-0.01-0.16-0.15-0.42-0.43c-0.29-0.3-0.67-0.68-1.14-1.16c-0.96-0.97-2.34-2.46-4.05-4.28h0.21
						c-1.58,1.72-3.43,3.75-5.48,5.99l-0.13-0.3c1,0,2.03,0,3.09-0.01l0.18,0l0,0.18c0,1.04,0,2.11,0,3.2c0,1.98,0,3.9-0.01,5.7
						l-0.18-0.18c1.71,0.01,3.34,0.01,4.84,0.02l-0.16,0.16c0.03-3.68,0.05-6.76,0.07-8.9l0-0.09l0.09,0
						c0.96,0.01,1.71,0.04,2.25,0.06c0.24,0.01,0.45,0.01,0.61,0.02C274.25,150.63,274.32,150.64,274.33,150.64z"/>
				</g>
			</g>
		</g>
	</g>
	<g>
		<g>
			
				<rect x="372.56" y="158.53" transform="matrix(0.9926 -0.1214 0.1214 0.9926 -19.0952 50.1281)" style="fill:#FFFFFF;" width="58.54" height="46.47"/>
			
				<rect x="370.48" y="158.66" transform="matrix(0.9926 -0.1214 0.1214 0.9926 -17.0435 49.7494)" style="fill:#EBEBEB;" width="58.54" height="12.16"/>
			<g>
				<path style="fill:#E0E0E0;" d="M383.51,183.35c-0.01-0.01-0.05-0.23-0.11-0.63c-0.07-0.44-0.15-1.01-0.25-1.7
					c-0.21-1.46-0.49-3.51-0.81-5.96l0.18,0.14c-2.43,0.3-5.27,0.66-8.3,1.04c-0.04,0.04,0.3-0.39,0.16-0.2l0,0l0,0l0,0.01l0,0.02
					l0,0.04l0.01,0.07l0.02,0.14l0.03,0.28l0.07,0.56c0.05,0.37,0.09,0.74,0.13,1.11c0.09,0.73,0.17,1.45,0.26,2.15
					c0.16,1.39,0.32,2.71,0.46,3.92l-0.18-0.14c2.46-0.29,4.52-0.5,5.98-0.65c0.7-0.07,1.26-0.12,1.71-0.17
					C383.28,183.35,383.5,183.34,383.51,183.35c0.01,0.01-0.18,0.05-0.56,0.11c-0.43,0.06-0.99,0.15-1.67,0.25
					c-1.45,0.21-3.54,0.5-6.06,0.82l-0.16,0.02l-0.02-0.16c-0.15-1.21-0.32-2.53-0.5-3.92c-0.09-0.7-0.18-1.41-0.27-2.15
					c-0.05-0.37-0.09-0.74-0.14-1.11l-0.07-0.56l-0.03-0.28l-0.02-0.14l-0.01-0.07l0-0.04l0-0.02l0-0.01l0,0l0,0
					c-0.14,0.18,0.19-0.25,0.16-0.21c3.04-0.36,5.88-0.7,8.31-0.99l0.16-0.02l0.02,0.16c0.29,2.53,0.51,4.63,0.66,6.08
					c0.07,0.68,0.12,1.24,0.16,1.68C383.51,183.16,383.53,183.36,383.51,183.35z"/>
			</g>
			<g>
				<path style="fill:#E0E0E0;" d="M394.39,182.02c-0.01-0.01-0.05-0.23-0.11-0.63c-0.07-0.44-0.15-1.01-0.25-1.7
					c-0.21-1.46-0.49-3.51-0.81-5.96l0.18,0.14c-2.43,0.3-5.27,0.66-8.3,1.04c-0.04,0.04,0.3-0.39,0.16-0.2l0,0l0,0l0,0.01l0,0.02
					l0,0.04l0.01,0.07l0.02,0.14l0.03,0.28l0.07,0.56c0.05,0.37,0.09,0.74,0.13,1.11c0.09,0.73,0.17,1.45,0.26,2.15
					c0.16,1.39,0.32,2.71,0.46,3.92l-0.18-0.14c2.46-0.29,4.52-0.5,5.98-0.65c0.7-0.07,1.26-0.12,1.71-0.17
					C394.16,182.02,394.38,182.01,394.39,182.02c0.01,0.01-0.18,0.05-0.56,0.11c-0.43,0.06-0.99,0.15-1.67,0.25
					c-1.45,0.21-3.54,0.5-6.06,0.82l-0.16,0.02l-0.02-0.16c-0.15-1.21-0.32-2.53-0.5-3.92c-0.09-0.7-0.18-1.41-0.27-2.15
					c-0.05-0.37-0.09-0.74-0.14-1.11l-0.07-0.56l-0.03-0.28l-0.02-0.14l-0.01-0.07l0-0.04l0-0.02l0-0.01l0,0l0,0
					c-0.14,0.18,0.19-0.25,0.16-0.21c3.04-0.36,5.88-0.7,8.31-0.99l0.16-0.02l0.02,0.16c0.29,2.53,0.51,4.63,0.66,6.08
					c0.07,0.68,0.12,1.24,0.16,1.68C394.39,181.83,394.4,182.03,394.39,182.02z"/>
			</g>
			<g>
				<path style="fill:#E0E0E0;" d="M405.27,180.69c-0.01-0.01-0.05-0.23-0.11-0.63c-0.07-0.44-0.15-1.01-0.25-1.7
					c-0.21-1.46-0.49-3.51-0.81-5.96l0.18,0.14c-2.43,0.3-5.27,0.66-8.3,1.04c-0.04,0.04,0.3-0.39,0.16-0.2l0,0l0,0l0,0.01l0,0.02
					l0,0.04l0.01,0.07l0.02,0.14l0.03,0.28l0.07,0.56c0.05,0.37,0.09,0.74,0.13,1.11c0.09,0.73,0.17,1.45,0.26,2.15
					c0.16,1.39,0.32,2.71,0.46,3.92l-0.18-0.14c2.46-0.29,4.52-0.5,5.98-0.65c0.7-0.07,1.26-0.12,1.71-0.17
					C405.03,180.69,405.25,180.68,405.27,180.69c0.01,0.01-0.18,0.05-0.56,0.11c-0.43,0.06-0.99,0.15-1.67,0.25
					c-1.45,0.21-3.54,0.5-6.06,0.82l-0.16,0.02l-0.02-0.16c-0.15-1.21-0.32-2.53-0.5-3.92c-0.09-0.7-0.18-1.41-0.27-2.15
					c-0.05-0.37-0.09-0.74-0.14-1.11l-0.07-0.56l-0.03-0.28l-0.02-0.14l-0.01-0.07l0-0.04l0-0.02l0-0.01l0,0l0,0
					c-0.14,0.18,0.19-0.25,0.16-0.21c3.04-0.36,5.88-0.7,8.31-0.99l0.16-0.02l0.02,0.16c0.29,2.53,0.51,4.63,0.66,6.08
					c0.07,0.68,0.12,1.24,0.16,1.68C405.27,180.5,405.28,180.7,405.27,180.69z"/>
			</g>
			<g>
				<path style="fill:#E0E0E0;" d="M416.14,179.36c-0.01-0.01-0.05-0.23-0.11-0.63c-0.07-0.44-0.15-1.01-0.25-1.7
					c-0.21-1.46-0.49-3.51-0.81-5.96l0.18,0.14c-2.43,0.3-5.27,0.66-8.3,1.04c-0.04,0.04,0.3-0.39,0.16-0.2l0,0l0,0l0,0.01l0,0.02
					l0,0.04l0.01,0.07l0.02,0.14l0.03,0.28l0.07,0.56c0.05,0.37,0.09,0.74,0.13,1.11c0.09,0.73,0.17,1.45,0.26,2.15
					c0.16,1.39,0.32,2.71,0.46,3.92l-0.18-0.14c2.46-0.29,4.52-0.5,5.98-0.65c0.7-0.07,1.26-0.12,1.71-0.17
					C415.91,179.36,416.13,179.35,416.14,179.36c0.01,0.01-0.18,0.05-0.56,0.11c-0.43,0.06-0.99,0.15-1.67,0.25
					c-1.45,0.21-3.54,0.5-6.06,0.82l-0.16,0.02l-0.02-0.16c-0.15-1.21-0.32-2.53-0.5-3.92c-0.09-0.7-0.18-1.41-0.27-2.15
					c-0.05-0.37-0.09-0.74-0.14-1.11l-0.07-0.56l-0.03-0.28l-0.02-0.14l-0.01-0.07l0-0.04l0-0.02l0-0.01l0,0l0,0
					c-0.14,0.18,0.19-0.25,0.16-0.21c3.04-0.36,5.88-0.7,8.31-0.99l0.16-0.02l0.02,0.16c0.29,2.53,0.51,4.63,0.66,6.08
					c0.07,0.68,0.12,1.24,0.16,1.68C416.14,179.17,416.16,179.37,416.14,179.36z"/>
			</g>
			<g>
				<path style="fill:#E0E0E0;" d="M427.02,178.03c-0.01-0.01-0.05-0.23-0.11-0.63c-0.07-0.44-0.15-1.01-0.25-1.7
					c-0.21-1.46-0.49-3.51-0.81-5.96l0.18,0.14c-2.43,0.3-5.27,0.66-8.3,1.04c-0.04,0.04,0.3-0.39,0.16-0.2l0,0l0,0l0,0.01l0,0.02
					l0,0.04l0.01,0.07l0.02,0.14l0.03,0.28l0.07,0.56c0.05,0.37,0.09,0.74,0.13,1.11c0.09,0.73,0.17,1.45,0.26,2.15
					c0.16,1.39,0.32,2.71,0.46,3.92l-0.18-0.14c2.46-0.29,4.52-0.5,5.98-0.65c0.7-0.07,1.26-0.12,1.71-0.17
					C426.78,178.03,427,178.01,427.02,178.03c0.01,0.01-0.18,0.05-0.56,0.11c-0.43,0.06-0.99,0.15-1.67,0.25
					c-1.45,0.21-3.54,0.5-6.06,0.82l-0.16,0.02l-0.02-0.16c-0.15-1.21-0.32-2.53-0.5-3.92c-0.09-0.7-0.18-1.41-0.27-2.15
					c-0.05-0.37-0.09-0.74-0.14-1.11l-0.07-0.56l-0.03-0.28l-0.02-0.14l-0.01-0.07l0-0.04l0-0.02l0-0.01l0,0l0,0
					c-0.14,0.18,0.19-0.25,0.16-0.21c3.04-0.36,5.88-0.7,8.31-0.99l0.16-0.02l0.02,0.16c0.29,2.53,0.51,4.63,0.66,6.08
					c0.07,0.68,0.12,1.24,0.16,1.68C427.02,177.84,427.03,178.04,427.02,178.03z"/>
			</g>
			<g>
				<path style="fill:#E0E0E0;" d="M384.82,194.03c-0.01-0.01-0.05-0.23-0.11-0.63c-0.07-0.44-0.15-1.01-0.25-1.7
					c-0.21-1.46-0.49-3.51-0.81-5.96l0.18,0.14c-2.43,0.3-5.27,0.66-8.3,1.04c-0.04,0.04,0.3-0.39,0.16-0.2l0,0l0,0l0,0.01l0,0.02
					l0,0.04l0.01,0.07l0.02,0.14l0.03,0.28l0.07,0.56c0.05,0.37,0.09,0.74,0.13,1.11c0.09,0.73,0.17,1.45,0.26,2.15
					c0.16,1.39,0.32,2.71,0.46,3.92l-0.18-0.14c2.46-0.29,4.52-0.5,5.98-0.65c0.7-0.07,1.26-0.12,1.71-0.17
					C384.59,194.04,384.81,194.02,384.82,194.03c0.01,0.01-0.18,0.05-0.56,0.11c-0.43,0.06-0.99,0.15-1.67,0.25
					c-1.45,0.21-3.54,0.5-6.06,0.82l-0.16,0.02l-0.02-0.16c-0.15-1.21-0.32-2.53-0.5-3.92c-0.09-0.7-0.18-1.41-0.27-2.15
					c-0.05-0.37-0.09-0.74-0.14-1.11l-0.07-0.56l-0.03-0.28l-0.02-0.14l-0.01-0.07l0-0.04l0-0.02l0-0.01l0,0l0,0
					c-0.14,0.18,0.19-0.25,0.16-0.21c3.04-0.36,5.88-0.7,8.31-0.99l0.16-0.02l0.02,0.16c0.29,2.53,0.51,4.63,0.66,6.08
					c0.07,0.68,0.12,1.24,0.16,1.68C384.82,193.84,384.83,194.04,384.82,194.03z"/>
			</g>
			<g>
				<path style="fill:#E0E0E0;" d="M395.7,192.7c-0.01-0.01-0.05-0.23-0.11-0.63c-0.07-0.44-0.15-1.01-0.25-1.7
					c-0.21-1.46-0.49-3.51-0.81-5.96l0.18,0.14c-2.43,0.3-5.27,0.66-8.3,1.04c-0.04,0.04,0.3-0.39,0.16-0.2l0,0l0,0l0,0.01l0,0.02
					l0,0.04l0.01,0.07l0.02,0.14l0.03,0.28l0.07,0.56c0.05,0.37,0.09,0.74,0.13,1.11c0.09,0.73,0.17,1.45,0.26,2.15
					c0.16,1.39,0.32,2.71,0.46,3.92l-0.18-0.14c2.46-0.29,4.52-0.5,5.98-0.65c0.7-0.07,1.26-0.12,1.71-0.17
					C395.46,192.71,395.68,192.69,395.7,192.7c0.01,0.01-0.18,0.05-0.56,0.11c-0.43,0.06-0.99,0.15-1.67,0.25
					c-1.45,0.21-3.54,0.5-6.06,0.82l-0.16,0.02l-0.02-0.16c-0.15-1.21-0.32-2.53-0.5-3.92c-0.09-0.7-0.18-1.41-0.27-2.15
					c-0.05-0.37-0.09-0.74-0.14-1.11l-0.07-0.56l-0.03-0.28l-0.02-0.14l-0.01-0.07l0-0.04l0-0.02l0-0.01l0,0l0,0
					c-0.14,0.18,0.19-0.25,0.16-0.21c3.04-0.36,5.88-0.7,8.31-0.99l0.16-0.02l0.02,0.16c0.29,2.53,0.51,4.63,0.66,6.08
					c0.07,0.68,0.12,1.24,0.16,1.68C395.7,192.51,395.71,192.71,395.7,192.7z"/>
			</g>
			<g>
				<path style="fill:#E0E0E0;" d="M406.57,191.37c-0.01-0.01-0.05-0.23-0.11-0.63c-0.07-0.44-0.15-1.01-0.25-1.7
					c-0.21-1.46-0.49-3.51-0.81-5.96l0.18,0.14c-2.43,0.3-5.27,0.66-8.3,1.04c-0.04,0.04,0.3-0.39,0.16-0.2l0,0l0,0l0,0.01l0,0.02
					l0,0.04l0.01,0.07l0.02,0.14l0.03,0.28l0.07,0.56c0.05,0.37,0.09,0.74,0.13,1.11c0.09,0.73,0.17,1.45,0.26,2.15
					c0.16,1.39,0.32,2.71,0.46,3.92l-0.18-0.14c2.46-0.29,4.52-0.5,5.98-0.65c0.7-0.07,1.26-0.12,1.71-0.17
					C406.34,191.38,406.56,191.36,406.57,191.37c0.01,0.01-0.18,0.05-0.56,0.11c-0.43,0.06-0.99,0.15-1.67,0.25
					c-1.45,0.21-3.54,0.5-6.06,0.82l-0.16,0.02l-0.02-0.16c-0.15-1.21-0.32-2.53-0.5-3.92c-0.09-0.7-0.18-1.41-0.27-2.15
					c-0.05-0.37-0.09-0.74-0.14-1.11l-0.07-0.56l-0.03-0.28l-0.02-0.14l-0.01-0.07l0-0.04l0-0.02l0-0.01l0,0l0,0
					c-0.14,0.18,0.19-0.25,0.16-0.21c3.04-0.36,5.88-0.7,8.31-0.99l0.16-0.02l0.02,0.16c0.29,2.53,0.51,4.63,0.66,6.08
					c0.07,0.68,0.12,1.24,0.16,1.68C406.57,191.18,406.59,191.38,406.57,191.37z"/>
			</g>
			<g>
				<path style="fill:#E0E0E0;" d="M417.45,190.04c-0.01-0.01-0.05-0.23-0.11-0.63c-0.07-0.44-0.15-1.01-0.25-1.7
					c-0.21-1.46-0.49-3.51-0.81-5.96l0.18,0.14c-2.43,0.3-5.27,0.66-8.3,1.04c-0.04,0.04,0.3-0.39,0.16-0.2l0,0l0,0l0,0.01l0,0.02
					l0,0.04l0.01,0.07l0.02,0.14l0.03,0.28l0.07,0.56c0.05,0.37,0.09,0.74,0.13,1.11c0.09,0.73,0.17,1.45,0.26,2.15
					c0.16,1.39,0.32,2.71,0.46,3.92l-0.18-0.14c2.46-0.29,4.52-0.5,5.98-0.65c0.7-0.07,1.26-0.12,1.71-0.17
					C417.21,190.05,417.44,190.03,417.45,190.04c0.01,0.01-0.18,0.05-0.56,0.11c-0.43,0.06-0.99,0.15-1.67,0.25
					c-1.45,0.21-3.54,0.5-6.06,0.82l-0.16,0.02l-0.02-0.16c-0.15-1.21-0.32-2.53-0.5-3.92c-0.09-0.7-0.18-1.41-0.27-2.15
					c-0.05-0.37-0.09-0.74-0.14-1.11l-0.07-0.56l-0.03-0.28l-0.02-0.14l-0.01-0.07l0-0.04l0-0.02l0-0.01l0,0l0,0
					c-0.14,0.18,0.19-0.25,0.16-0.21c3.04-0.36,5.88-0.7,8.31-0.99l0.16-0.02l0.02,0.16c0.29,2.53,0.51,4.63,0.66,6.08
					c0.07,0.68,0.12,1.24,0.16,1.68C417.45,189.85,417.46,190.05,417.45,190.04z"/>
			</g>
			<g>
				<path style="fill:#E0E0E0;" d="M428.33,188.71c-0.01-0.01-0.05-0.23-0.11-0.63c-0.07-0.44-0.15-1.01-0.25-1.7
					c-0.21-1.46-0.49-3.51-0.81-5.96l0.18,0.14c-2.43,0.3-5.27,0.66-8.3,1.04c-0.04,0.04,0.3-0.39,0.16-0.2l0,0l0,0l0,0.01l0,0.02
					l0,0.04l0.01,0.07l0.02,0.14l0.03,0.28l0.07,0.56c0.05,0.37,0.09,0.74,0.13,1.11c0.09,0.73,0.17,1.45,0.26,2.15
					c0.16,1.39,0.32,2.71,0.46,3.92l-0.18-0.14c2.46-0.29,4.52-0.5,5.98-0.65c0.7-0.07,1.26-0.12,1.71-0.17
					C428.09,188.71,428.31,188.7,428.33,188.71c0.01,0.01-0.18,0.05-0.56,0.11c-0.43,0.06-0.99,0.15-1.67,0.25
					c-1.45,0.21-3.54,0.5-6.06,0.82l-0.16,0.02l-0.02-0.16c-0.15-1.21-0.32-2.53-0.5-3.92c-0.09-0.7-0.18-1.41-0.27-2.15
					c-0.05-0.37-0.09-0.74-0.14-1.11l-0.07-0.56l-0.03-0.28l-0.02-0.14l-0.01-0.07l0-0.04l0-0.02l0-0.01l0,0l0,0
					c-0.14,0.18,0.19-0.25,0.16-0.21c3.04-0.36,5.88-0.7,8.31-0.99l0.16-0.02l0.02,0.16c0.29,2.53,0.51,4.63,0.66,6.08
					c0.07,0.68,0.12,1.24,0.16,1.68C428.33,188.52,428.34,188.72,428.33,188.71z"/>
			</g>
			
				<rect x="377.19" y="196.17" transform="matrix(0.9926 -0.1214 0.1214 0.9926 -21.5034 47.7837)" style="fill:#E0E0E0;" width="8.37" height="8.37"/>
			<g>
				<path style="fill:#E0E0E0;" d="M396.92,202.67c-0.01-0.01-0.05-0.23-0.11-0.63c-0.07-0.44-0.15-1.01-0.25-1.7
					c-0.21-1.46-0.49-3.51-0.81-5.96l0.18,0.14c-2.43,0.3-5.27,0.66-8.3,1.04c-0.04,0.04,0.3-0.39,0.16-0.2l0,0l0,0l0,0.01l0,0.02
					l0,0.04l0.01,0.07l0.02,0.14l0.03,0.28l0.07,0.56c0.05,0.37,0.09,0.74,0.13,1.11c0.09,0.73,0.17,1.45,0.26,2.15
					c0.16,1.39,0.32,2.71,0.46,3.92l-0.18-0.14c2.46-0.29,4.52-0.5,5.98-0.65c0.7-0.07,1.26-0.12,1.71-0.17
					C396.68,202.68,396.9,202.66,396.92,202.67c0.01,0.01-0.18,0.05-0.56,0.11c-0.43,0.06-0.99,0.15-1.67,0.25
					c-1.45,0.21-3.54,0.5-6.06,0.82l-0.16,0.02l-0.02-0.16c-0.15-1.21-0.32-2.53-0.5-3.92c-0.09-0.7-0.18-1.41-0.27-2.15
					c-0.05-0.37-0.09-0.74-0.14-1.11l-0.07-0.56l-0.03-0.28l-0.02-0.14l-0.01-0.07l0-0.04l0-0.02l0-0.01l0,0l0,0
					c-0.14,0.18,0.19-0.25,0.16-0.21c3.04-0.36,5.88-0.7,8.31-0.99l0.16-0.02l0.02,0.16c0.29,2.53,0.51,4.63,0.66,6.08
					c0.07,0.68,0.12,1.24,0.16,1.68C396.92,202.48,396.93,202.68,396.92,202.67z"/>
			</g>
			<g>
				<path style="fill:#E0E0E0;" d="M407.79,201.34c-0.01-0.01-0.05-0.23-0.11-0.63c-0.07-0.44-0.15-1.01-0.25-1.7
					c-0.21-1.46-0.49-3.51-0.81-5.96l0.18,0.14c-2.43,0.3-5.27,0.66-8.3,1.04c-0.04,0.04,0.3-0.39,0.16-0.2l0,0l0,0l0,0.01l0,0.02
					l0,0.04l0.01,0.07l0.02,0.14l0.03,0.28l0.07,0.56c0.05,0.37,0.09,0.74,0.13,1.11c0.09,0.73,0.17,1.45,0.26,2.15
					c0.16,1.39,0.32,2.71,0.46,3.92l-0.18-0.14c2.46-0.29,4.52-0.5,5.98-0.65c0.7-0.07,1.26-0.12,1.71-0.17
					C407.56,201.35,407.78,201.33,407.79,201.34c0.01,0.01-0.18,0.05-0.56,0.11c-0.43,0.06-0.99,0.15-1.67,0.25
					c-1.45,0.21-3.54,0.5-6.06,0.82l-0.16,0.02l-0.02-0.16c-0.15-1.21-0.32-2.53-0.5-3.92c-0.09-0.7-0.18-1.41-0.27-2.15
					c-0.05-0.37-0.09-0.74-0.14-1.11l-0.07-0.56l-0.03-0.28l-0.02-0.14l-0.01-0.07l0-0.04l0-0.02l0-0.01l0,0l0,0
					c-0.14,0.18,0.19-0.25,0.16-0.21c3.04-0.36,5.88-0.7,8.31-0.99l0.16-0.02l0.02,0.16c0.29,2.53,0.51,4.63,0.66,6.08
					c0.07,0.68,0.12,1.24,0.16,1.68C407.79,201.15,407.81,201.35,407.79,201.34z"/>
			</g>
			<g>
				<path style="fill:#E0E0E0;" d="M418.67,200.01c-0.01-0.01-0.05-0.23-0.11-0.63c-0.07-0.44-0.15-1.01-0.25-1.7
					c-0.21-1.46-0.49-3.51-0.81-5.96l0.18,0.14c-2.43,0.3-5.27,0.66-8.3,1.04c-0.04,0.04,0.3-0.39,0.16-0.2l0,0l0,0l0,0.01l0,0.02
					l0,0.04l0.01,0.07l0.02,0.14l0.03,0.28l0.07,0.56c0.05,0.37,0.09,0.74,0.13,1.11c0.09,0.73,0.17,1.45,0.26,2.15
					c0.16,1.39,0.32,2.71,0.46,3.92l-0.18-0.14c2.46-0.29,4.52-0.5,5.98-0.65c0.7-0.07,1.26-0.12,1.71-0.17
					C418.43,200.02,418.66,200,418.67,200.01c0.01,0.01-0.18,0.05-0.56,0.11c-0.43,0.06-0.99,0.15-1.67,0.25
					c-1.45,0.21-3.54,0.5-6.06,0.82l-0.16,0.02l-0.02-0.16c-0.15-1.21-0.32-2.53-0.5-3.92c-0.09-0.7-0.18-1.41-0.27-2.15
					c-0.05-0.37-0.09-0.74-0.14-1.11l-0.07-0.56l-0.03-0.28l-0.02-0.14l-0.01-0.07l0-0.04l0-0.02l0-0.01l0,0l0,0
					c-0.14,0.18,0.19-0.25,0.16-0.21c3.04-0.36,5.88-0.7,8.31-0.99l0.16-0.02l0.02,0.16c0.29,2.53,0.51,4.63,0.66,6.08
					c0.07,0.68,0.12,1.24,0.16,1.68C418.67,199.82,418.68,200.02,418.67,200.01z"/>
			</g>
			<g>
				<path style="fill:#E0E0E0;" d="M429.54,198.68c-0.01-0.01-0.05-0.23-0.11-0.63c-0.07-0.44-0.15-1.01-0.25-1.7
					c-0.21-1.46-0.49-3.51-0.81-5.96l0.18,0.14c-2.43,0.3-5.27,0.66-8.3,1.04c-0.04,0.04,0.3-0.39,0.16-0.2l0,0l0,0l0,0.01l0,0.02
					l0,0.04l0.01,0.07l0.02,0.14l0.03,0.28l0.07,0.56c0.05,0.37,0.09,0.74,0.13,1.11c0.09,0.73,0.17,1.45,0.26,2.15
					c0.16,1.39,0.32,2.71,0.46,3.92l-0.18-0.14c2.46-0.29,4.52-0.5,5.98-0.65c0.7-0.07,1.26-0.12,1.71-0.17
					C429.31,198.69,429.53,198.67,429.54,198.68c0.01,0.01-0.18,0.05-0.56,0.11c-0.43,0.06-0.99,0.15-1.67,0.25
					c-1.45,0.21-3.54,0.5-6.06,0.82l-0.16,0.02l-0.02-0.16c-0.15-1.21-0.32-2.53-0.5-3.92c-0.09-0.7-0.18-1.41-0.27-2.15
					c-0.05-0.37-0.09-0.74-0.14-1.11l-0.07-0.56l-0.03-0.28l-0.02-0.14l-0.01-0.07l0-0.04l0-0.02l0-0.01l0,0l0,0
					c-0.14,0.18,0.19-0.25,0.16-0.21c3.04-0.36,5.88-0.7,8.31-0.99l0.16-0.02l0.02,0.16c0.29,2.53,0.51,4.63,0.66,6.08
					c0.07,0.68,0.12,1.24,0.16,1.68C429.55,198.49,429.56,198.69,429.54,198.68z"/>
			</g>
			<path style="fill:#E0E0E0;" d="M382.78,164.57l-0.52,0.06c-0.57,0.07-1.08-0.33-1.15-0.9l-0.68-5.57
				c-0.07-0.57,0.33-1.08,0.9-1.15l0.52-0.06c0.57-0.07,1.08,0.33,1.15,0.9l0.68,5.57C383.75,163.98,383.35,164.5,382.78,164.57z"/>
			<path style="fill:#E0E0E0;" d="M399.48,162.53l-0.52,0.06c-0.57,0.07-1.08-0.33-1.15-0.9l-0.68-5.57
				c-0.07-0.57,0.33-1.08,0.9-1.15l0.52-0.06c0.57-0.07,1.08,0.33,1.15,0.9l0.68,5.57C400.45,161.94,400.04,162.46,399.48,162.53z"
				/>
			<path style="fill:#E0E0E0;" d="M416.17,160.48l-0.52,0.06c-0.57,0.07-1.08-0.33-1.15-0.9l-0.68-5.57
				c-0.07-0.57,0.33-1.08,0.9-1.15l0.52-0.06c0.57-0.07,1.08,0.33,1.15,0.9l0.68,5.57C417.14,159.9,416.74,160.42,416.17,160.48z"/>
		</g>
		<g>
			<path style="fill:#E0E0E0;" d="M433.8,202.1c0,0-0.05-0.3-0.12-0.87c-0.07-0.58-0.18-1.42-0.32-2.51
				c-0.28-2.2-0.69-5.42-1.2-9.52c-1.02-8.19-2.48-19.91-4.24-34.04l0.17,0.13c-16.61,2.04-36.6,4.5-58.09,7.14l-0.01,0l0.16-0.2
				c2.07,16.97,4.02,33,5.72,46.95l-0.18-0.14c17.25-2.08,31.76-3.82,41.97-5.05c5.11-0.61,9.13-1.08,11.9-1.41
				c1.37-0.16,2.43-0.28,3.16-0.37c0.35-0.04,0.62-0.07,0.82-0.09C433.7,202.11,433.8,202.1,433.8,202.1s-0.09,0.02-0.26,0.04
				c-0.19,0.03-0.45,0.06-0.8,0.11c-0.72,0.09-1.76,0.23-3.12,0.4c-2.75,0.35-6.76,0.85-11.85,1.49
				c-10.23,1.27-24.76,3.08-42.05,5.23l-0.16,0.02l-0.02-0.16c-1.71-13.96-3.68-29.98-5.76-46.95l-0.02-0.18l0.18-0.02l0.01,0
				c21.5-2.62,41.49-5.05,58.1-7.08l0.15-0.02l0.02,0.15c1.7,14.17,3.11,25.93,4.1,34.15c0.48,4.09,0.86,7.29,1.12,9.49
				c0.12,1.08,0.22,1.91,0.29,2.49C433.78,201.82,433.8,202.1,433.8,202.1z"/>
		</g>
	</g>
	<g>
		<g>
			
				<rect x="272.86" y="228.7" transform="matrix(0.1114 -0.9938 0.9938 0.1114 10.7549 491.8587)" style="fill:#EBEBEB;" width="15.12" height="22.44"/>
		</g>
		<g>
			<g>
				<g>
					<path style="fill:#E0E0E0;" d="M292.47,233.84c0,0.01-0.08,0.07-0.23,0.18c-0.17,0.12-0.4,0.28-0.68,0.47
						c-0.62,0.42-1.48,1-2.53,1.71c-2.17,1.44-5.13,3.42-8.41,5.61l-0.07,0.05l-0.06-0.06c-0.05-0.05-0.09-0.09-0.14-0.14
						c-2.81-2.83-5.36-5.39-7.22-7.27c-0.91-0.92-1.64-1.68-2.17-2.22c-0.24-0.25-0.44-0.46-0.58-0.61
						c-0.13-0.14-0.2-0.22-0.19-0.22c0-0.01,0.08,0.06,0.22,0.19c0.15,0.15,0.36,0.34,0.61,0.58c0.54,0.53,1.29,1.27,2.22,2.17
						c1.87,1.86,4.43,4.41,7.27,7.22c0.05,0.05,0.1,0.1,0.14,0.14l-0.13-0.01c3.3-2.17,6.27-4.13,8.44-5.56
						c1.07-0.69,1.94-1.26,2.57-1.66c0.29-0.18,0.53-0.33,0.7-0.44C292.38,233.88,292.47,233.83,292.47,233.84z"/>
				</g>
			</g>
		</g>
		<g>
			<g>
				<path style="fill:#E0E0E0;" d="M268.49,246.37c-0.04-0.04,1.87-1.91,4.26-4.18c2.39-2.27,4.36-4.07,4.4-4.03
					c0.04,0.04-1.87,1.91-4.26,4.18C270.5,244.6,268.53,246.41,268.49,246.37z"/>
			</g>
		</g>
		<g>
			<g>
				<path style="fill:#E0E0E0;" d="M284.58,238.8c0.05-0.03,1.48,2.2,3.19,4.98c1.71,2.78,3.06,5.06,3.01,5.09
					c-0.05,0.03-1.48-2.2-3.19-4.98C285.88,241.11,284.53,238.83,284.58,238.8z"/>
			</g>
		</g>
	</g>
</g>
<g id="Background_Simple" style="display:none;">
	<path style="display:inline;fill:#EBEBEB;" d="M623.54,146.41l-2-3.76c-16.87-31.68-49.45-52.03-85.01-51.78
		c-4.57,0.03-9.14,0.39-13.67,1.1c-32.61,5.09-62.01,27.88-75.38,58.43c-7.86,17.97-10.96,38.99-24.75,52.83
		c-17.94,18.01-46.63,17-71.78,14.8c-25.15-2.2-53.86-3.14-71.73,14.95c-11.19,11.33-15.48,28.09-15.53,44.1
		c-0.13,42.39,27.2,81.83,63.6,102.72c36.4,20.89,80.4,25.04,121.86,19.08c58.07-8.35,114.47-37.08,150.05-84.33
		C634.76,267.3,646.83,200.88,623.54,146.41z"/>
	<circle style="display:inline;fill:#EBEBEB;" cx="191.46" cy="180.06" r="64.49"/>
</g>
<g id="Character_3">
	<g>
		<g>
			<g>
				<path style="fill:#FFBE9D;" d="M541.91,293.18L521,319.2c-3.23-1.47-24.14-29.71-24.14-29.71l-14.1,21.74
					c0,0,24.43,29.97,36.62,29.97c1.99,0,5.18,0.39,7.67-1.74c11.81-10.14,26.33-40.98,26.33-40.98L541.91,293.18z"/>
				<g>
					<g>
						<path style="fill:#263238;" d="M446.59,251.62c1.06,0.67,2.56-0.05,3.11-1.17c0.55-1.12,0.39-2.46,0.08-3.66
							c-0.32-1.21-0.78-2.4-0.79-3.65c-0.02-2.27,1.64-4.45,3.83-5.03c-2.03-1.79-2.02-5.39,0.02-7.17
							c0.95-0.83,2.19-1.24,3.28-1.88c0.63-0.36,1.2-0.8,1.75-1.28c-0.97,0.15-1.94,0.2-2.89-0.06c-1.52-0.41-2.81-1.63-3.23-3.14
							c-0.43-1.51,0.05-3.26,1.25-4.29s3.04-1.23,4.39-0.42c1.33,0.79,2,2.32,2.6,3.75c0.18,0.44,0.37,0.89,0.55,1.33
							c2.06-2.45,4-4.99,7.02-5.74c2.73-0.67,5.58,0.38,8.4,0.32c2.05-0.04,4.05-0.68,6.1-0.8c2.05-0.12,4.34,0.44,5.46,2.16
							c0.66,1.01,0.81,2.28,1.48,3.29c1.37,2.07,4.54,2.51,5.64,4.74c0.89,1.81,0.02,4,0.34,5.99c0.35,2.17,2.04,3.83,3.4,5.55
							c1.37,1.72,2.51,4.05,1.59,6.05c-0.81,1.76-2.95,2.61-3.72,4.39c-0.57,1.29-0.28,2.77-0.33,4.18c-0.05,1.41-0.7,3.05-2.09,3.3
							l-15.83,3.32c-5.49,1.91-11.15,3.85-16.96,3.54c-5.81-0.31-11.86-3.41-13.88-8.87c0.84,0.01,1.68-0.32,2.29-0.89
							C447.98,254.72,446.89,253.25,446.59,251.62z"/>
					</g>
					<g>
						<g>
							<g>
								<g>
									<g>
										<g>
											<g>
												<g>
													<path style="fill:#263238;" d="M459.13,257.18c-1.08-4.03-2.15-8.08-2.52-12.24c-0.37-4.15-0.03-8.45,1.62-12.27
														c0.25-0.58,2.33-4.45,2.96-4.36c0.45,0.07-0.9,3.71-0.69,4.11c1.98,3.83,2.33,8.34,1.77,12.61
														C461.69,249.31,460.6,253.12,459.13,257.18"/>
												</g>
											</g>
										</g>
									</g>
									<g>
										<g>
											<g>
												<g>
													<g>
														<path style="fill:#FFBE9D;" d="M475.95,292.28c-6.45-0.47-18.19-13.55-18.19-13.55l1.78-37.47
															c0.2-10.46,6.45-19.06,16.9-18.57l0.96,0.1c9.69,1.02,16.97,9.31,16.74,19.05c-0.22,9.06-0.58,19.07-1.15,23.89
															c-1.18,9.97-11.32,10.47-11.32,10.47c-0.02,0-0.18,2.32-0.36,5.26c-0.41,6.6-1.6,11.18-4.17,10.82H475.95z"/>
													</g>
												</g>
											</g>
										</g>
									</g>
									<g>
										<g>
											<g>
												<g>
													<g>
														<g>
															<path style="fill:#EB996E;" d="M481.66,276.2c0,0-6.33-0.29-12.59-5.21c0,0,2.4,7.59,12.46,7.74L481.66,276.2z"/>
														</g>
													</g>
												</g>
											</g>
										</g>
									</g>
									<g>
										<g>
											<g>
												<g>
													<g>
														<g>
															<g>
																<g>
																	<g>
																		<g>
																			<g>
																				<g>
																					<path style="fill:#263238;" d="M491.03,249.16c-0.05,0.76-0.74,1.33-1.53,1.29c-0.79-0.04-1.39-0.68-1.33-1.44
																						c0.05-0.76,0.74-1.33,1.52-1.29C490.49,247.76,491.09,248.4,491.03,249.16z"/>
																				</g>
																			</g>
																		</g>
																	</g>
																</g>
															</g>
														</g>
													</g>
												</g>
											</g>
										</g>
									</g>
									<g>
										<g>
											<g>
												<g>
													<g>
														<g>
															<g>
																<g>
																	<g>
																		<g>
																			<g>
																				<g>
																					<g>
																						<path style="fill:#263238;" d="M491.56,245.76c-0.2,0.17-1.19-0.75-2.73-0.9c-1.53-0.18-2.74,0.49-2.89,0.29
																							c-0.07-0.09,0.14-0.41,0.67-0.71c0.52-0.3,1.38-0.56,2.33-0.46c0.95,0.11,1.72,0.54,2.15,0.95
																							C491.54,245.34,491.66,245.69,491.56,245.76z"/>
																					</g>
																				</g>
																			</g>
																		</g>
																	</g>
																</g>
															</g>
														</g>
													</g>
												</g>
											</g>
										</g>
									</g>
									<g>
										<g>
											<g>
												<g>
													<g>
														<g>
															<g>
																<g>
																	<g>
																		<g>
																			<g>
																				<g>
																					<path style="fill:#263238;" d="M476.3,248.23c-0.05,0.76-0.74,1.33-1.53,1.29c-0.79-0.04-1.39-0.68-1.33-1.44
																						c0.05-0.76,0.74-1.33,1.52-1.29C475.76,246.83,476.36,247.48,476.3,248.23z"/>
																				</g>
																			</g>
																		</g>
																	</g>
																</g>
															</g>
														</g>
													</g>
												</g>
											</g>
										</g>
									</g>
									<g>
										<g>
											<g>
												<g>
													<g>
														<g>
															<g>
																<g>
																	<g>
																		<g>
																			<g>
																				<g>
																					<g>
																						<path style="fill:#263238;" d="M476.48,244.8c-0.2,0.17-1.19-0.75-2.73-0.9c-1.53-0.18-2.74,0.49-2.89,0.29
																							c-0.07-0.09,0.14-0.41,0.67-0.71c0.52-0.3,1.38-0.56,2.33-0.46c0.95,0.11,1.72,0.54,2.15,0.95
																							C476.45,244.37,476.57,244.73,476.48,244.8z"/>
																					</g>
																				</g>
																			</g>
																		</g>
																	</g>
																</g>
															</g>
														</g>
													</g>
												</g>
											</g>
										</g>
									</g>
									<g>
										<g>
											<g>
												<g>
													<g>
														<g>
															<g>
																<g>
																	<g>
																		<g>
																			<g>
																				<g>
																					<path style="fill:#263238;" d="M480.74,257.17c0-0.09,0.97-0.15,2.54-0.19c0.4,0,0.77-0.04,0.87-0.3
																						c0.12-0.27,0-0.71-0.14-1.19c-0.27-0.99-0.55-2.02-0.84-3.1c-1.16-4.42-1.96-8.03-1.78-8.07
																						c0.18-0.05,1.26,3.5,2.42,7.91c0.28,1.09,0.54,2.12,0.79,3.12c0.1,0.46,0.3,0.99,0.04,1.56
																						c-0.14,0.28-0.45,0.46-0.7,0.5c-0.26,0.05-0.48,0.03-0.68,0.02C481.7,257.35,480.73,257.25,480.74,257.17z"/>
																				</g>
																			</g>
																		</g>
																	</g>
																</g>
															</g>
														</g>
													</g>
												</g>
											</g>
										</g>
									</g>
									<g>
										<g>
											<g>
												<g>
													<g>
														<g>
															<g>
																<g>
																	<g>
																		<g>
																			<g>
																				<g>
																					<path style="fill:#263238;" d="M476.11,257.75c0.25,0.01,0.08,1.68,1.38,3.01c1.3,1.34,3.09,1.34,3.08,1.57
																						c0.01,0.11-0.43,0.28-1.18,0.22c-0.74-0.05-1.79-0.4-2.58-1.22c-0.79-0.82-1.06-1.82-1.05-2.51
																						C475.77,258.12,476,257.73,476.11,257.75z"/>
																				</g>
																			</g>
																		</g>
																	</g>
																</g>
															</g>
														</g>
													</g>
												</g>
											</g>
										</g>
									</g>
									<g>
										<g>
											<g>
												<g>
													<g>
														<g>
															<g>
																<g>
																	<path style="fill:#263238;" d="M477.05,238.57c-0.2,0.4-1.71,0.04-3.53,0.07c-1.82-0.01-3.33,0.36-3.53-0.03
																		c-0.09-0.19,0.21-0.56,0.84-0.9c0.62-0.34,1.59-0.63,2.69-0.63c1.09,0,2.06,0.27,2.69,0.61
																		C476.84,238.01,477.13,238.38,477.05,238.57z"/>
																</g>
															</g>
														</g>
													</g>
												</g>
											</g>
										</g>
									</g>
									<g>
										<g>
											<g>
												<g>
													<g>
														<g>
															<g>
																<g>
																	<path style="fill:#263238;" d="M491.47,240.6c-0.31,0.32-1.32-0.15-2.59-0.3c-1.26-0.2-2.37-0.01-2.58-0.4
																		c-0.09-0.19,0.12-0.52,0.62-0.8c0.5-0.28,1.3-0.47,2.17-0.35c0.87,0.12,1.59,0.52,2,0.92
																		C491.5,240.07,491.61,240.44,491.47,240.6z"/>
																</g>
															</g>
														</g>
													</g>
												</g>
											</g>
										</g>
									</g>
									<g>
										<g>
											<g>
												<g>
													<path style="fill:#FFBE9D;" d="M459.57,248.74c-0.16-0.09-6.64-2.75-7.15,4.1c-0.5,6.85,6.48,5.94,6.5,5.74
														C458.96,258.38,459.57,248.74,459.57,248.74z"/>
												</g>
											</g>
										</g>
									</g>
									<g>
										<g>
											<g>
												<g>
													<g>
														<path style="fill:#EB996E;" d="M457.03,255.83c-0.03-0.02-0.13,0.07-0.33,0.15c-0.2,0.08-0.55,0.11-0.89-0.05
															c-0.7-0.32-1.23-1.51-1.17-2.75c0.03-0.62,0.2-1.21,0.46-1.68c0.25-0.49,0.6-0.81,0.96-0.85
															c0.37-0.06,0.61,0.18,0.68,0.38c0.08,0.2,0.02,0.33,0.06,0.35c0.02,0.02,0.16-0.1,0.12-0.39
															c-0.02-0.14-0.09-0.31-0.24-0.45c-0.15-0.15-0.39-0.23-0.65-0.22c-0.53,0-1.04,0.45-1.32,0.97
															c-0.31,0.52-0.52,1.18-0.55,1.88c-0.06,1.38,0.55,2.73,1.52,3.08c0.47,0.16,0.88,0.04,1.1-0.1
															C457.01,256,457.05,255.84,457.03,255.83z"/>
													</g>
												</g>
											</g>
										</g>
									</g>
									<g>
										<g>
											<g>
												<g>
													<path style="fill:#263238;" d="M490.43,230.21c1.15-0.54-1.95-4.34-4.59-5.76c-4-2.13-10.21-3.69-14.08-2.86
														c-4.65,1-8.6,3.03-11.16,7.04c-2.56,4.01-3.74,8.8-3.91,13.56c-0.05,1.45,0,2.97,0.7,4.25
														c0.86,1.58,2.63,2.65,2.42,4.73c-0.08,0.76,0.09,1.55,0.58,2.14c1.17,1.41,2.78,0.26,3.57-0.95
														c1.68-2.59,2.05-5.78,2.38-8.84c0.23-2.18,0.47-4.4-0.01-6.54c-0.26-1.16-0.73-2.28-0.93-3.45s-0.08-2.49,0.71-3.39
														c0.13-0.15,0.33-0.33,0.59-0.53c2.05-1.58,4.8-1.91,7.17-0.89c3.77,1.61,10.23,4.08,12.03,2.88
														c2.6-1.72,3.27-2.91,3.27-2.91L490.43,230.21z"/>
												</g>
											</g>
										</g>
									</g>
								</g>
							</g>
							<g>
								<g>
									<g>
										<g>
											<path style="fill:#263238;" d="M472.18,220.69c3.85-1.02,8.13-0.67,11.53,1.38c1.81,1.09,3.4,2.75,3.84,4.82
												c0.44,2.07-0.59,4.51-2.59,5.17l-0.14,0.08c-2.99,0.8-4.86,0.28-7.71-0.91c-2.4-1.01-4.48-2.66-6.88-3.65
												c-2.55-1.06-5.43-1.33-8.13-0.76C464.91,224,468.34,221.71,472.18,220.69z"/>
										</g>
									</g>
								</g>
							</g>
						</g>
					</g>
					<g>
						<g>
							<path style="fill:#455A64;" d="M458.8,226.8c0.06,0.06,0.64-0.57,1.8-1.29c0.58-0.35,1.29-0.73,2.14-1.01
								c0.84-0.27,1.82-0.46,2.81-0.32c2.03,0.3,3.67,1.33,4.68,2.22c1.02,0.9,1.47,1.63,1.54,1.58c0.02-0.02-0.06-0.21-0.27-0.54
								c-0.21-0.33-0.55-0.78-1.05-1.28c-0.98-0.98-2.68-2.11-4.84-2.43c-1.09-0.15-2.13,0.07-3.01,0.38
								c-0.88,0.31-1.61,0.74-2.18,1.13C459.27,226.05,458.76,226.77,458.8,226.8z"/>
						</g>
					</g>
					<g>
						<g>
							<path style="fill:#455A64;" d="M457.99,229.19c-0.05,0.01,0.03,0.79,0.42,1.98c0.39,1.19,1.15,2.79,2.36,4.29
								c1.21,1.51,2.59,2.6,3.67,3.24c1.08,0.65,1.82,0.89,1.84,0.85c0.09-0.13-2.81-1.4-5.15-4.38
								C458.74,232.25,458.13,229.14,457.99,229.19z"/>
						</g>
					</g>
					<g>
						<g>
							<path style="fill:#455A64;" d="M455.14,230.16c-0.03,0-0.06,0.28-0.07,0.78c-0.01,0.5,0.04,1.23,0.19,2.12
								c0.29,1.77,1.13,4.21,2.85,6.39c1.72,2.19,3.88,3.58,5.53,4.28c0.83,0.36,1.53,0.58,2.02,0.69c0.49,0.12,0.77,0.15,0.77,0.12
								c0.02-0.08-1.06-0.33-2.65-1.1c-1.58-0.76-3.65-2.16-5.31-4.27c-1.66-2.12-2.52-4.46-2.89-6.17
								C455.2,231.27,455.22,230.16,455.14,230.16z"/>
						</g>
					</g>
					<g>
						<g>
							<path style="fill:#455A64;" d="M480.06,220.47c-0.02,0.07,0.7,0.28,1.78,0.78c1.08,0.49,2.51,1.33,3.85,2.55
								c1.34,1.23,2.3,2.57,2.89,3.61c0.59,1.03,0.86,1.73,0.93,1.7c0.05-0.01-0.11-0.76-0.65-1.86c-0.53-1.1-1.48-2.53-2.86-3.79
								c-1.38-1.26-2.89-2.08-4.03-2.51C480.83,220.52,480.07,220.42,480.06,220.47z"/>
						</g>
					</g>
					<g>
						<g>
							<path style="fill:#455A64;" d="M453.51,219.97c-0.11-0.01,0.08,2,1.54,3.9c1.44,1.92,3.31,2.66,3.33,2.55
								c0.07-0.12-1.61-1-2.97-2.83C454.03,221.79,453.65,219.93,453.51,219.97z"/>
						</g>
					</g>
				</g>
				<path style="fill:#4484FF;" d="M481.38,280.18c0,0,8.97,1.52,13.64,6.19c4.68,4.68,19.41,24.84,19.41,24.84l-12.99,22.8
					l-6.01-5.18l-4.7,39.14l-73.25,0.23c-0.23-0.7,11.54-62.43,11.54-62.43s-2.88-17.14,4.09-21.89c3.41-2.33,9.45-3.97,13.97-5.2
					c6.85-1.86,10.51-2.94,10.51-2.94s13.02,15.1,18.41,15.07C481.29,290.78,481.38,280.18,481.38,280.18z"/>
				<path style="fill:#FFBE9D;" d="M560.62,268.5c-1.95,0.37-10.59,9.92-10.59,9.92l-1.63-0.24c-3-0.44-5.73,1.74-5.98,4.76
					c-0.38,4.64-0.57,10.41-0.57,10.41l8.18,5.94l2.79-0.02c2.51,0.37,5.95-4.18,8.2-7.44c2.25-3.25-0.11-4.46-0.11-4.46
					c0.74-3.53-2.42-3.44-2.42-3.44c0.56-3.16-2.6-3.72-2.6-3.72s5.48-6.51,6.78-8.92C563.96,268.87,562.57,268.13,560.62,268.5z"/>
				<path style="fill:#FFBE9D;" d="M445.37,311.02c-2.22,7.29-11.42,39.15-11.42,39.15l43.1,7.95l-0.82,9.56l-65.41-0.06
					c-1.66-7.76-3.08-17.61,0.22-28.77c4.05-13.67,10.12-32.56,10.12-32.56"/>
				<path style="fill:#4484FF;" d="M412.67,318.17c0,0,16.9-32.92,20.45-34.28c6.25-2.39,19.76,4.83,18.12,12.77
					c-1.64,7.95-11.45,34.83-11.45,34.83L412.67,318.17L412.67,318.17z"/>
				<g>
					<path style="fill:#263238;" d="M498,305.4c0.01,0,0.01,0.15,0,0.45c-0.02,0.33-0.04,0.75-0.08,1.28
						c-0.07,1.11-0.2,2.71-0.39,4.68c-0.36,3.95-0.99,9.4-1.73,15.4c-0.74,6.01-1.41,11.44-1.84,15.38
						c-0.21,1.94-0.38,3.52-0.5,4.67c-0.06,0.52-0.11,0.94-0.14,1.27c-0.04,0.29-0.06,0.44-0.08,0.44c-0.01,0-0.01-0.15,0-0.45
						c0.02-0.33,0.04-0.75,0.08-1.28c0.07-1.11,0.2-2.71,0.39-4.68c0.36-3.95,0.99-9.4,1.73-15.4c0.74-6,1.41-11.44,1.84-15.38
						c0.21-1.94,0.38-3.52,0.5-4.67c0.06-0.52,0.11-0.94,0.14-1.27C497.96,305.55,497.99,305.39,498,305.4z"/>
				</g>
				<g>
					<path style="fill:#263238;" d="M451.4,301.94c0.09,0.04-2.2,6.36-5.12,14.12c-2.93,7.77-5.37,14.03-5.47,13.99
						c-0.09-0.04,2.2-6.36,5.12-14.12C448.86,308.17,451.31,301.9,451.4,301.94z"/>
				</g>
				<g>
					<path style="fill:#263238;" d="M449.99,293.18c-0.06,0.03-0.55-0.76-1.51-1.9c-0.96-1.14-2.43-2.6-4.33-3.87
						c-1.9-1.26-3.81-2.06-5.24-2.5c-1.43-0.45-2.35-0.6-2.33-0.66c0-0.02,0.24-0.01,0.66,0.05c0.42,0.05,1.02,0.17,1.75,0.36
						c1.46,0.38,3.43,1.16,5.37,2.45c1.93,1.29,3.41,2.81,4.33,4.01c0.46,0.6,0.8,1.11,1.01,1.48
						C449.91,292.96,450.01,293.17,449.99,293.18z"/>
				</g>
				<g>
					<path style="fill:#EB996E;" d="M520.34,325.26c-0.11-0.03,0.28-1.44,0.4-3.21c0.13-1.78-0.07-3.22,0.04-3.24
						c0.09-0.02,0.45,1.43,0.32,3.26C520.98,323.9,520.42,325.29,520.34,325.26z"/>
				</g>
				<g>
					<path style="fill:#EB996E;" d="M558.3,283.9c0.04,0.03-0.5,0.83-1.4,2.08c-0.23,0.3-0.45,0.68-0.79,1.02
						c-0.33,0.34-0.74,0.64-1.21,0.89c-0.47,0.23-1,0.46-1.62,0.45c-0.6-0.02-1.23-0.26-1.66-0.77c-0.21-0.26-0.33-0.58-0.35-0.91
						c-0.02-0.32,0.05-0.63,0.15-0.91c0.22-0.55,0.51-1,0.78-1.44c0.54-0.88,1.1-1.62,1.61-2.22c0.5-0.6,0.94-1.05,1.26-1.35
						c0.32-0.3,0.51-0.45,0.52-0.43c0.04,0.04-0.64,0.72-1.58,1.94c-0.47,0.61-1,1.36-1.52,2.23c-0.25,0.44-0.54,0.9-0.73,1.39
						c-0.19,0.49-0.19,1.05,0.15,1.46c0.34,0.4,0.88,0.62,1.38,0.64c0.5,0.02,1.01-0.18,1.45-0.39c0.44-0.22,0.83-0.5,1.15-0.8
						c0.31-0.3,0.55-0.65,0.8-0.96C557.65,284.6,558.26,283.86,558.3,283.9z"/>
				</g>
				<g>
					<path style="fill:#EB996E;" d="M560.89,286.85c0.02,0.01-0.07,0.22-0.27,0.59c-0.2,0.37-0.5,0.9-0.92,1.52
						c-0.43,0.62-1,1.34-1.81,1.94c-0.4,0.3-0.87,0.59-1.45,0.71c-0.57,0.11-1.25-0.01-1.69-0.52c-0.45-0.53-0.37-1.24-0.19-1.76
						c0.18-0.54,0.47-0.99,0.71-1.41c0.51-0.85,1.01-1.59,1.46-2.2c0.45-0.6,0.83-1.07,1.11-1.38c0.28-0.31,0.45-0.47,0.47-0.46
						c0.04,0.04-0.53,0.76-1.37,1.99c-0.41,0.62-0.89,1.36-1.38,2.22c-0.24,0.43-0.51,0.87-0.67,1.36c-0.16,0.48-0.2,1.03,0.13,1.41
						c0.32,0.37,0.87,0.5,1.35,0.4c0.49-0.09,0.93-0.35,1.32-0.63c0.78-0.56,1.36-1.24,1.8-1.82
						C560.37,287.62,560.84,286.82,560.89,286.85z"/>
				</g>
				<g>
					<path style="fill:#EB996E;" d="M561.96,289.79c0.04,0.01-0.13,0.67-0.7,1.61c-0.28,0.47-0.67,1-1.17,1.52
						c-0.25,0.26-0.52,0.53-0.87,0.76c-0.35,0.22-0.85,0.36-1.31,0.16c-0.48-0.21-0.67-0.74-0.65-1.16c0.01-0.44,0.16-0.8,0.3-1.14
						c0.3-0.68,0.7-1.2,1.02-1.62c0.68-0.84,1.07-1.37,1.11-1.34c0.05,0.03-0.28,0.62-0.9,1.5c-0.3,0.44-0.66,0.97-0.92,1.6
						c-0.13,0.32-0.25,0.67-0.25,1.01c0,0.33,0.15,0.69,0.44,0.82c0.31,0.13,0.68,0.05,0.98-0.13c0.3-0.18,0.57-0.45,0.82-0.69
						c0.5-0.49,0.89-0.99,1.19-1.42C561.65,290.38,561.91,289.76,561.96,289.79z"/>
				</g>
			</g>
			<g>
				<path style="fill:#FFBE9D;" d="M548.39,278.18c2.33,0.38,5.75,1.06,7.95,1.68c0.27,1.39-0.92,2.72-2.28,3.12
					c-1.36,0.39-2.81,0.09-4.18-0.24c0.86,1.2,1.19,2.77,0.87,4.22c-0.31,1.45-1.26,2.74-2.55,3.48"/>
				<g>
					<path style="fill:#EB996E;" d="M548.2,290.44c-0.05-0.05,0.86-0.46,1.71-1.77c0.41-0.65,0.77-1.54,0.8-2.58
						c0.04-1.04-0.25-2.23-0.98-3.25l-0.27-0.37l0.45,0.1c1.15,0.26,2.44,0.57,3.73,0.32c1.51-0.25,2.78-1.67,2.52-2.99l0.12,0.13
						c-2.28-0.64-4.27-1.05-5.68-1.35c-0.65-0.14-1.2-0.25-1.64-0.35c-0.38-0.08-0.59-0.13-0.58-0.15c0-0.02,0.21,0,0.6,0.04
						c0.39,0.05,0.95,0.13,1.66,0.25c1.42,0.25,3.42,0.61,5.73,1.23l0.1,0.03l0.02,0.1c0.16,0.76-0.13,1.59-0.66,2.2
						c-0.52,0.62-1.29,1.07-2.13,1.22c-1.4,0.27-2.73-0.07-3.88-0.34l0.18-0.27c0.77,1.1,1.05,2.37,0.99,3.46
						c-0.06,1.11-0.47,2.03-0.92,2.69c-0.45,0.66-0.95,1.08-1.31,1.33C548.43,290.37,548.21,290.46,548.2,290.44z"/>
				</g>
			</g>
			<path style="fill:#FFBE9D;" d="M477.05,358.12c0,0,10.76,1.24,13.41,3.01c2.65,1.77,7.54,6.55,7.54,6.55h-21.77L477.05,358.12z"
				/>
		</g>
	</g>
</g>
<g id="Character_1_1_">
	<g>
		<path style="fill:#FFBE9D;" d="M283.05,289.47l-0.07,28.01l-12.38-2.54l-10.42-2.18c0,0,14.27,28.14,29.79,28.14
			s17.53-23.42,17.53-23.42l0.91-28.01H283.05z"/>
		<g>
			<g>
				<path style="fill:#263238;" d="M347.35,217.2c-1.15,0.64-2.7-0.19-3.22-1.4c-0.52-1.21-0.28-2.61,0.12-3.87
					c0.4-1.26,0.95-2.49,1.03-3.81c0.15-2.4-1.49-4.79-3.77-5.52c2.24-1.78,2.43-5.59,0.37-7.57c-0.96-0.93-2.25-1.43-3.37-2.16
					c-0.64-0.42-1.22-0.91-1.77-1.45c1.02,0.22,2.04,0.32,3.05,0.1c1.62-0.35,3.05-1.57,3.59-3.14c0.54-1.57,0.12-3.45-1.08-4.59
					c-1.2-1.15-3.15-1.46-4.62-0.68c-1.45,0.76-2.24,2.34-2.95,3.82c-0.22,0.46-0.44,0.92-0.65,1.37c-2.04-2.7-3.96-5.49-7.1-6.44
					c-2.85-0.86-5.92,0.1-8.89-0.12c-2.16-0.16-4.24-0.94-6.4-1.17s-4.61,0.22-5.88,1.98c-0.75,1.03-0.98,2.37-1.74,3.39
					c-1.56,2.12-4.93,2.4-6.21,4.7c-1.04,1.87-0.24,4.22-0.69,6.31c-0.49,2.27-2.36,3.93-3.9,5.68c-1.54,1.75-2.87,4.14-2.01,6.3
					c0.76,1.9,2.97,2.92,3.69,4.83c0.53,1.4,0.14,2.95,0.12,4.44c-0.03,1.49,0.57,3.26,2.02,3.6l16.54,4.37
					c5.7,2.32,11.57,4.67,17.72,4.66c6.15-0.01,12.71-2.96,15.14-8.61c-0.89-0.04-1.76-0.42-2.37-1.06
					C345.71,220.4,346.94,218.91,347.35,217.2z"/>
			</g>
			<g>
				<g>
					<g>
						<g>
							<g>
								<g>
									<g>
										<g>
											<path style="fill:#263238;" d="M333.8,222.39c1.36-4.19,2.71-8.42,3.33-12.79c0.62-4.37,0.49-8.92-1.05-13.05
												c-0.23-0.63-2.22-4.83-2.88-4.77c-0.48,0.05,0.75,3.97,0.51,4.38c-2.3,3.94-2.92,8.68-2.55,13.23
												C331.52,213.94,332.46,218.03,333.8,222.39"/>
										</g>
									</g>
								</g>
							</g>
							<g>
								<g>
									<g>
										<g>
											<g>
												<path style="fill:#FFBE9D;" d="M319.19,259.04c6.84-0.14,14.6-15.09,14.6-15.09l0.44-38.39
													c0.36-11.06-5.78-20.48-16.84-20.53l-1.02,0.05c-10.29,0.55-18.44,8.91-18.71,19.21c-0.26,9.58-0.42,20.18-0.08,25.29
													c0.7,10.59,11.39,11.67,11.39,11.67c0.02,0,0.06,2.46,0.09,5.57C309.13,253.83,316.45,259.28,319.19,259.04
													L319.19,259.04z"/>
											</g>
										</g>
									</g>
								</g>
							</g>
							<g>
								<g>
									<g>
										<g>
											<g>
												<g>
													<path style="fill:#EB996E;" d="M308.96,241.26c0,0,6.7,0.03,13.58-4.82c0,0-2.95,7.89-13.58,7.5L308.96,241.26z"/>
												</g>
											</g>
										</g>
									</g>
								</g>
							</g>
							<g>
								<g>
									<g>
										<g>
											<g>
												<g>
													<g>
														<g>
															<g>
																<g>
																	<g>
																		<g>
																			<path style="fill:#263238;" d="M302.23,212.61c0.01,0.8,0.7,1.45,1.54,1.45c0.84,0,1.5-0.65,1.49-1.45
																				c-0.01-0.8-0.7-1.45-1.54-1.45C302.88,211.16,302.22,211.81,302.23,212.61z"/>
																		</g>
																	</g>
																</g>
															</g>
														</g>
													</g>
												</g>
											</g>
										</g>
									</g>
								</g>
							</g>
							<g>
								<g>
									<g>
										<g>
											<g>
												<g>
													<g>
														<g>
															<g>
																<g>
																	<g>
																		<g>
																			<g>
																				<path style="fill:#263238;" d="M300.16,208.57c0.2,0.19,1.3-0.72,2.93-0.81c1.63-0.11,2.87,0.67,3.03,0.46
																					c0.08-0.09-0.13-0.44-0.67-0.79c-0.53-0.35-1.43-0.67-2.44-0.61c-1.01,0.06-1.85,0.48-2.32,0.89
																					C300.21,208.12,300.06,208.49,300.16,208.57z"/>
																			</g>
																		</g>
																	</g>
																</g>
															</g>
														</g>
													</g>
												</g>
											</g>
										</g>
									</g>
								</g>
							</g>
							<g>
								<g>
									<g>
										<g>
											<g>
												<g>
													<g>
														<g>
															<g>
																<g>
																	<g>
																		<g>
																			<path style="fill:#263238;" d="M316.91,212.22c0.01,0.8,0.7,1.45,1.54,1.45c0.83,0,1.5-0.65,1.49-1.45
																				c-0.01-0.8-0.7-1.45-1.54-1.45C317.56,210.77,316.89,211.42,316.91,212.22z"/>
																		</g>
																	</g>
																</g>
															</g>
														</g>
													</g>
												</g>
											</g>
										</g>
									</g>
								</g>
							</g>
							<g>
								<g>
									<g>
										<g>
											<g>
												<g>
													<g>
														<g>
															<g>
																<g>
																	<g>
																		<g>
																			<g>
																				<path style="fill:#263238;" d="M316.15,208.38c0.2,0.19,1.3-0.72,2.93-0.81c1.63-0.11,2.87,0.67,3.03,0.46
																					c0.08-0.09-0.13-0.44-0.67-0.79c-0.53-0.35-1.43-0.67-2.44-0.61c-1.01,0.06-1.85,0.48-2.32,0.89
																					C316.2,207.93,316.05,208.29,316.15,208.38z"/>
																			</g>
																		</g>
																	</g>
																</g>
															</g>
														</g>
													</g>
												</g>
											</g>
										</g>
									</g>
								</g>
							</g>
							<g>
								<g>
									<g>
										<g>
											<g>
												<g>
													<g>
														<g>
															<g>
																<g>
																	<g>
																		<g>
																			<path style="fill:#263238;" d="M310.98,221.2c0-0.09-1.02-0.21-2.67-0.34c-0.42-0.02-0.82-0.08-0.9-0.36
																				c-0.11-0.29,0.04-0.75,0.21-1.25c0.34-1.03,0.69-2.1,1.06-3.23c1.47-4.6,2.5-8.37,2.32-8.43
																				c-0.19-0.06-1.53,3.63-2.99,8.23c-0.35,1.13-0.69,2.22-1.01,3.25c-0.13,0.48-0.37,1.03-0.13,1.64
																				c0.13,0.3,0.45,0.51,0.72,0.57c0.27,0.07,0.51,0.06,0.71,0.06C309.95,221.35,310.98,221.3,310.98,221.2z"/>
																		</g>
																	</g>
																</g>
															</g>
														</g>
													</g>
												</g>
											</g>
										</g>
									</g>
								</g>
							</g>
							<g>
								<g>
									<g>
										<g>
											<g>
												<g>
													<g>
														<g>
															<g>
																<g>
																	<g>
																		<g>
																			<path style="fill:#263238;" d="M315.83,222.07c-0.27,0-0.17,1.77-1.62,3.1c-1.44,1.34-3.34,1.24-3.34,1.49
																				c-0.02,0.11,0.44,0.32,1.23,0.3c0.78-0.02,1.91-0.33,2.79-1.14c0.88-0.82,1.22-1.87,1.25-2.6
																				C316.17,222.49,315.95,222.06,315.83,222.07z"/>
																		</g>
																	</g>
																</g>
															</g>
														</g>
													</g>
												</g>
											</g>
										</g>
									</g>
								</g>
							</g>
							<g>
								<g>
									<g>
										<g>
											<g>
												<g>
													<g>
														<g>
															<path style="fill:#263238;" d="M315.88,201.76c0.18,0.43,1.8,0.14,3.72,0.27c1.93,0.09,3.5,0.57,3.73,0.16
																c0.1-0.2-0.19-0.6-0.83-0.99c-0.64-0.39-1.65-0.75-2.8-0.82c-1.15-0.06-2.19,0.17-2.88,0.49
																C316.14,201.19,315.8,201.56,315.88,201.76z"/>
														</g>
													</g>
												</g>
											</g>
										</g>
									</g>
								</g>
							</g>
							<g>
								<g>
									<g>
										<g>
											<g>
												<g>
													<g>
														<g>
															<path style="fill:#263238;" d="M300.54,203.12c0.31,0.35,1.41-0.09,2.76-0.18c1.34-0.14,2.51,0.12,2.75-0.29
																c0.11-0.19-0.09-0.55-0.61-0.88c-0.51-0.32-1.35-0.56-2.27-0.49c-0.93,0.08-1.71,0.46-2.16,0.86
																C300.54,202.56,300.41,202.95,300.54,203.12z"/>
														</g>
													</g>
												</g>
											</g>
										</g>
									</g>
								</g>
							</g>
							<g>
								<g>
									<g>
										<g>
											<path style="fill:#FFBE9D;" d="M333.79,213.46c0.18-0.09,7.17-2.54,7.32,4.71c0.16,7.26-7.16,5.92-7.18,5.71
												C333.91,223.67,333.79,213.46,333.79,213.46z"/>
										</g>
									</g>
								</g>
							</g>
							<g>
								<g>
									<g>
										<g>
											<g>
												<path style="fill:#EB996E;" d="M336.09,221.08c0.03-0.02,0.13,0.09,0.34,0.18c0.21,0.09,0.57,0.15,0.95,0
													c0.76-0.3,1.38-1.53,1.39-2.84c0-0.66-0.15-1.29-0.39-1.8c-0.23-0.53-0.58-0.89-0.97-0.95
													c-0.39-0.08-0.65,0.16-0.74,0.36c-0.09,0.2-0.04,0.35-0.08,0.36c-0.02,0.02-0.16-0.12-0.11-0.42
													c0.03-0.14,0.11-0.32,0.28-0.46c0.17-0.15,0.43-0.22,0.7-0.2c0.56,0.03,1.08,0.53,1.35,1.1
													c0.3,0.57,0.49,1.27,0.48,2.01c-0.01,1.46-0.73,2.85-1.78,3.17c-0.51,0.14-0.94,0-1.16-0.17
													C336.11,221.26,336.06,221.1,336.09,221.08z"/>
											</g>
										</g>
									</g>
								</g>
							</g>
							<g>
								<g>
									<g>
										<g>
											<path style="fill:#263238;" d="M302.2,192.21c-1.18-0.63,2.29-4.48,5.16-5.83c4.34-2.04,10.99-3.34,15.02-2.25
												c4.86,1.31,8.92,3.67,11.41,8.05c2.49,4.38,3.47,9.5,3.39,14.54c-0.02,1.54-0.16,3.14-0.97,4.45
												c-0.99,1.62-2.93,2.65-2.81,4.87c0.04,0.81-0.18,1.63-0.73,2.23c-1.31,1.43-2.95,0.12-3.72-1.2
												c-1.63-2.82-1.85-6.22-2.04-9.47c-0.13-2.31-0.25-4.68,0.37-6.91c0.34-1.21,0.9-2.37,1.17-3.6
												c0.27-1.23,0.22-2.62-0.56-3.62c-0.13-0.16-0.33-0.36-0.6-0.59c-2.08-1.78-4.96-2.28-7.53-1.33
												c-4.07,1.5-11.02,3.75-12.86,2.38c-2.65-1.96-3.29-3.26-3.29-3.26L302.2,192.21z"/>
										</g>
									</g>
								</g>
							</g>
						</g>
					</g>
					<g>
						<g>
							<g>
								<g>
									<path style="fill:#263238;" d="M322,183.15c-4.01-1.28-8.55-1.15-12.26,0.83c-1.97,1.05-3.74,2.72-4.31,4.88
										c-0.58,2.16,0.37,4.79,2.45,5.61l0.14,0.09c3.11,1,5.12,0.56,8.19-0.55c2.59-0.93,4.88-2.57,7.47-3.49
										c2.75-0.98,5.81-1.11,8.63-0.36C329.5,187.03,326,184.43,322,183.15z"/>
								</g>
							</g>
						</g>
					</g>
				</g>
			</g>
			<g>
				<g>
					<path style="fill:#455A64;" d="M335.8,190.32c-0.06,0.06-0.65-0.64-1.83-1.46c-0.59-0.4-1.32-0.85-2.2-1.18
						c-0.87-0.33-1.89-0.58-2.95-0.49c-2.16,0.21-3.95,1.21-5.06,2.09c-1.12,0.89-1.64,1.64-1.71,1.59
						c-0.02-0.02,0.08-0.22,0.32-0.56c0.24-0.34,0.63-0.8,1.18-1.29c1.09-0.98,2.94-2.09,5.24-2.31c1.16-0.09,2.25,0.19,3.16,0.56
						c0.91,0.37,1.66,0.87,2.24,1.32C335.35,189.51,335.84,190.3,335.8,190.32z"/>
				</g>
			</g>
			<g>
				<g>
					<path style="fill:#455A64;" d="M336.53,192.9c0.05,0.01-0.07,0.83-0.55,2.07c-0.48,1.24-1.37,2.88-2.72,4.41
						c-1.36,1.52-2.88,2.61-4.05,3.23c-1.18,0.63-1.97,0.84-1.99,0.79c-0.09-0.14,3.05-1.33,5.68-4.34
						C335.57,196.08,336.38,192.83,336.53,192.9z"/>
				</g>
			</g>
			<g>
				<g>
					<path style="fill:#455A64;" d="M339.48,194.07c0.03,0,0.05,0.3,0.03,0.83c-0.02,0.53-0.11,1.3-0.32,2.23
						c-0.4,1.85-1.42,4.38-3.35,6.6c-1.93,2.22-4.3,3.57-6.08,4.22c-0.89,0.33-1.64,0.52-2.17,0.62c-0.52,0.1-0.82,0.11-0.82,0.08
						c-0.02-0.09,1.14-0.29,2.86-1.02c1.71-0.72,3.97-2.08,5.84-4.22c1.87-2.14,2.91-4.57,3.39-6.36
						C339.35,195.24,339.39,194.06,339.48,194.07z"/>
				</g>
			</g>
			<g>
				<g>
					<path style="fill:#455A64;" d="M313.68,182.48c0.02,0.08-0.75,0.26-1.92,0.72c-1.17,0.46-2.72,1.27-4.2,2.48
						c-1.48,1.22-2.57,2.59-3.24,3.65c-0.68,1.06-1,1.78-1.08,1.75c-0.05-0.02,0.16-0.79,0.78-1.93c0.62-1.13,1.7-2.59,3.23-3.85
						c1.53-1.26,3.17-2.04,4.4-2.43C312.87,182.49,313.68,182.43,313.68,182.48z"/>
				</g>
			</g>
			<g>
				<g>
					<path style="fill:#455A64;" d="M341.76,183.39c0.12,0-0.2,2.1-1.84,4.04c-1.62,1.95-3.64,2.63-3.66,2.51
						c-0.07-0.13,1.76-0.97,3.29-2.82C341.11,185.29,341.61,183.35,341.76,183.39z"/>
				</g>
			</g>
		</g>
		<path style="fill:#4484FF;" d="M334.53,240.92l21.2,12.46l0.13,74.22l5.23,40.23l-71.53-0.22c0,0-0.23-53.88,0.03-68.2
			c0.18-10.04-0.09-29.51,3.31-41.48c1.45-5.1,15.64-11.69,15.64-11.69C316.32,253.08,325.01,251.04,334.53,240.92z"/>
		<path style="opacity:0.3;" d="M311.58,336.36c0,0,42.78,20.41,47.48,15.77c-1.47-9.87-5.23-44.37-5.23-44.37L311.58,336.36"/>
		<g>
			<g>
				<path style="fill:#FFBE9D;" d="M284.89,317.93h53.24l0.26-28.06l24.57-3.17c0,0,0.11,28.49,0.11,37.84
					c0,11.21-9.7,19.01-17.83,17.81c-8.14-1.2-60.35-10.93-60.35-10.93V317.93z"/>
				<path style="fill:#4484FF;" d="M364.66,292.53l-28.63,2.97v-33.59c0,0,2.81-11.35,12.7-10.88c9.89,0.47,15.72,11.18,15.93,20.99
					C364.87,281.83,364.66,292.53,364.66,292.53z"/>
			</g>
		</g>
		<path style="fill:#4484FF;" d="M295.94,253.97c0,0-9.18,6.04-11.64,12.71c-2.58,6.99-6.2,29.63-6.2,29.63h12.85L295.94,253.97z"/>
		<g>
			<path style="fill:#263238;" d="M335.79,263.25c0.03,0,0.02,0.44,0,1.23c-0.03,0.85-0.06,1.97-0.1,3.34
				c-0.09,2.82-0.17,6.71-0.16,11.01c0.01,4.3,0.13,8.19,0.23,11.01c0.05,1.36,0.09,2.49,0.13,3.34c0.03,0.79,0.03,1.22,0.01,1.23
				c-0.03,0-0.08-0.43-0.15-1.22c-0.07-0.79-0.16-1.92-0.24-3.33c-0.17-2.82-0.32-6.71-0.34-11.02c-0.01-4.31,0.12-8.2,0.27-11.02
				c0.08-1.41,0.15-2.55,0.22-3.33C335.71,263.68,335.76,263.25,335.79,263.25z"/>
		</g>
		<g>
			<path style="fill:#263238;" d="M350.21,251.58c-0.01,0.07-0.96-0.19-2.51-0.16c-1.54,0.02-3.71,0.41-5.72,1.65
				c-2.01,1.24-3.35,2.99-4.06,4.36c-0.73,1.37-0.93,2.33-1,2.31c-0.02,0,0.01-0.25,0.12-0.68c0.11-0.43,0.31-1.04,0.65-1.75
				c0.67-1.42,2.02-3.27,4.1-4.55c2.09-1.28,4.34-1.64,5.92-1.59c0.79,0.02,1.43,0.11,1.86,0.21
				C349.98,251.48,350.21,251.56,350.21,251.58z"/>
		</g>
		<g>
			<path style="fill:#263238;" d="M290.05,269.8c0.01,0,0.02,0.13,0.04,0.38c0.01,0.29,0.02,0.65,0.03,1.09
				c0.02,0.94,0.03,2.31,0.03,4c0,3.38-0.05,8.04-0.15,13.19c-0.1,5.13-0.19,9.76-0.26,13.19c-0.03,1.65-0.06,3-0.08,4
				c-0.01,0.44-0.03,0.8-0.04,1.09c-0.01,0.25-0.03,0.38-0.04,0.38s-0.02-0.13-0.04-0.38c-0.01-0.29-0.02-0.65-0.03-1.09
				c-0.02-0.94-0.03-2.31-0.03-4c0-3.38,0.05-8.04,0.15-13.19c0.1-5.12,0.19-9.76,0.26-13.19c0.03-1.65,0.06-3,0.08-4
				c0.01-0.44,0.03-0.8,0.04-1.09C290.02,269.93,290.03,269.8,290.05,269.8z"/>
		</g>
		<g>
			<g>
				<g>
					<g>
						<path style="fill:#FFBE9D;" d="M264.63,312.97l4.31-2.64c0.73-0.45,1.56-0.68,2.42-0.68h8.33l8.61,7.84l2.57,1.29l-0.96,13.54
							l-5.6-0.68c0,0-11.95,0.51-13.11-0.26s-2.83-3.21-2.83-3.21s-6.57-2.11-7.2-2.7c-1.39-1.29-1.45-2.7-1.45-2.7l-1.12-0.51
							c-0.21,0.4-1.84-2.26-1.67-3.6c0.1-0.78-0.13-0.77-0.13-0.77s-1.75-0.53-2.06-2.57c-0.12-0.79,3.12-0.62,3.12-0.62l8.09,0.11
							L264.63,312.97z"/>
					</g>
				</g>
				<g>
					<g>
						<polygon style="fill:#455A64;" points="270.6,314.93 262.1,303.35 244.45,303.35 244.45,304.85 253.34,315.17 253.34,315.17 
													"/>
					</g>
				</g>
			</g>
			<g>
				<path style="fill:#EB996E;" d="M268.14,318.86c0,0.05-0.64,0.16-1.7,0.22c-1.06,0.07-2.52,0.08-4.13-0.06
					c-1.61-0.14-3.05-0.4-4.08-0.65c-1.03-0.25-1.65-0.47-1.63-0.51c0.01-0.05,0.65,0.08,1.69,0.26c1.03,0.18,2.47,0.4,4.06,0.54
					c1.59,0.14,3.04,0.17,4.09,0.16C267.48,318.82,268.13,318.81,268.14,318.86z"/>
			</g>
			<g>
				<path style="fill:#EB996E;" d="M270.3,323.4c0,0.05-0.64,0.16-1.7,0.22c-1.06,0.07-2.52,0.08-4.13-0.06
					c-1.61-0.14-3.05-0.4-4.08-0.65c-1.03-0.25-1.65-0.47-1.63-0.51c0.01-0.05,0.65,0.08,1.69,0.26c1.03,0.18,2.47,0.4,4.06,0.54
					c1.59,0.14,3.04,0.17,4.09,0.16C269.64,323.36,270.29,323.35,270.3,323.4z"/>
			</g>
			<g>
				<path style="fill:#EB996E;" d="M254.75,314.91c0.03,0,0.03,0.35,0.25,0.95c0.21,0.58,0.77,1.43,1.85,1.93l0.06,0.03l0,0.06
					c0,0.79,0.12,1.73,0.59,2.65c0.45,0.91,1.26,1.8,2.35,2.3l0.14,0.06l-0.06,0.13c-0.16,0.32-0.17,0.7-0.01,1.03
					c0.15,0.34,0.43,0.64,0.74,0.9c0.64,0.52,1.42,0.93,2.25,1.29c1.67,0.72,3.54,1.28,5.52,1.73l0.07,0.02l0.04,0.06
					c0.45,0.69,1.05,1.32,1.69,1.9c0.63,0.6,1.36,1.07,2.21,1.3c0.63,0.19,1.29,0.19,1.96,0.2c0.67,0.02,1.33,0.03,1.98,0.05
					c1.31,0.03,2.58,0.07,3.82,0.1c2.47,0.07,4.78,0.13,6.88,0.19l0.01,0l0.01,0c3.38,0.69,6.19,1.26,8.2,1.67
					c0.95,0.2,1.72,0.37,2.28,0.49c0.24,0.06,0.44,0.1,0.6,0.14c0.13,0.03,0.2,0.06,0.2,0.06c0,0.01-0.07,0-0.21-0.02
					c-0.16-0.03-0.36-0.06-0.61-0.1c-0.57-0.1-1.33-0.24-2.29-0.41c-2.02-0.38-4.83-0.91-8.22-1.54l0.03,0
					c-2.1-0.04-4.41-0.09-6.88-0.15c-1.24-0.03-2.51-0.06-3.82-0.09c-0.65-0.02-1.31-0.03-1.98-0.05c-0.66-0.01-1.37-0.01-2.05-0.22
					c-0.9-0.24-1.72-0.77-2.36-1.39c-0.66-0.6-1.27-1.24-1.75-1.98l0.11,0.08c-2-0.46-3.88-1.03-5.57-1.78
					c-0.84-0.38-1.64-0.8-2.32-1.36c-0.33-0.29-0.64-0.61-0.81-1.02c-0.19-0.41-0.17-0.9,0.03-1.28l0.08,0.2
					c-1.18-0.56-2-1.5-2.46-2.46c-0.47-0.97-0.58-1.95-0.56-2.76l0.06,0.09c-1.14-0.56-1.67-1.46-1.87-2.07
					C254.71,315.27,254.75,314.91,254.75,314.91z"/>
			</g>
			<g>
				<path style="fill:#EB996E;" d="M272.77,327.39c0.04,0.09-0.97,0.6-2.34,0.78c-1.37,0.19-2.48-0.04-2.46-0.14
					c0.01-0.11,1.1-0.05,2.41-0.23C271.69,327.63,272.73,327.29,272.77,327.39z"/>
			</g>
			<g>
				<path style="fill:#EB996E;" d="M276.63,314.6c0,0.1-1.66,0.24-3.71,0.32c-2.05,0.07-3.72,0.05-3.72-0.05
					c0-0.1,1.66-0.24,3.71-0.32C274.97,314.47,276.63,314.5,276.63,314.6z"/>
			</g>
			<g>
				<path style="fill:#EB996E;" d="M290.72,317.66c0.01,0.02-0.16,0.15-0.52,0.21c-0.36,0.06-0.93,0-1.5-0.33
					c-0.58-0.32-1.13-0.86-1.76-1.41c-0.64-0.56-1.33-1.16-2.05-1.79c-1.42-1.22-2.71-2.32-3.76-3.22
					c-0.96-0.82-1.55-1.34-1.52-1.38c0.03-0.04,0.68,0.41,1.68,1.18c1.01,0.77,2.37,1.88,3.83,3.15c0.73,0.64,1.42,1.25,2.03,1.82
					c0.62,0.57,1.14,1.11,1.66,1.44c0.51,0.33,1.02,0.42,1.36,0.42C290.52,317.72,290.71,317.63,290.72,317.66z"/>
			</g>
		</g>
	</g>
</g>
<g id="Character_2_1_">
	<g style="opacity:0.3;">
		<path d="M461.24,353.27c-2.05-6.41-4.51-12.68-7.35-18.78c-0.93-1.99-1.9-4.35-0.86-6.29c0.41-0.78,1.12-1.38,1.44-2.2
			c0.49-1.23,0.02-2.62-0.47-3.85c-4.45-11.17-10.79-21.98-20.42-29.19c-0.96-0.72-1.97-1.41-3.13-1.71
			c-1.16-0.3-2.5-0.15-3.37,0.66l29.11,75.84c0.39,0.43,7.91,0.19,8.87,0.17C465.64,367.91,461.41,353.83,461.24,353.27z"/>
	</g>
	<g>
		<g>
			<g>
				<g>
					<polygon style="fill:#FFBE9D;" points="374.07,288.28 379.45,286.65 402.86,285.95 408.15,287.39 407.46,300.26 395.51,307.88 
						383.92,307.65 376.64,301.01 375.02,294.43 					"/>
				</g>
				<g>
					<path style="fill:#4484FF;" d="M441.67,308.54c-1.7-3.49-3.32-6.3-4.76-8.51c-2.85-4.37-7.19-7.53-12.22-8.9l-19.1-5.18
						c0,0-0.99,19.08-14.13,19.08c-13.13,0-15.69-17.89-15.69-17.89l-22.1,8.82c-0.76,0.29-5.89,2.07-11.85,14.86
						c-5.68,12.18-8.17,18.41-8.17,18.41l22.77,6.57l1.42,20.48l-0.48,11.69l69.1-0.15l-0.39-13.37l0.29-20.49l0.86,1.4l23-9.23
						C450.22,326.14,447.26,320.06,441.67,308.54z"/>
				</g>
			</g>
			<g>
				<path style="fill:#263238;" d="M427.22,335.36c0-0.01,0.15-0.08,0.44-0.21c0.32-0.14,0.75-0.32,1.3-0.55
					c1.17-0.48,2.82-1.16,4.89-2c4.21-1.69,10.08-4.06,16.87-6.79l-0.09,0.25c-1.37-2.6-2.84-5.4-4.36-8.3
					c-2.25-4.23-4.4-8.27-6.36-11.94c-2.03-3.62-3.58-7.09-5.86-9.27c-2.2-2.23-4.49-3.44-6.06-4.19c-0.8-0.36-1.44-0.6-1.87-0.76
					c-0.2-0.07-0.36-0.13-0.5-0.17c-0.11-0.04-0.17-0.06-0.17-0.07c0-0.01,0.06,0,0.18,0.03c0.12,0.02,0.29,0.07,0.51,0.14
					c0.44,0.13,1.09,0.35,1.9,0.7c1.6,0.72,3.93,1.9,6.18,4.14c1.13,1.11,2.19,2.51,3.1,4.13c0.92,1.61,1.87,3.34,2.87,5.16
					c1.99,3.65,4.14,7.69,6.38,11.93c1.52,2.9,2.99,5.7,4.35,8.31l0.09,0.17l-0.18,0.07c-6.8,2.68-12.69,5-16.92,6.67
					c-2.08,0.81-3.75,1.45-4.93,1.91c-0.56,0.21-1,0.37-1.32,0.5C427.39,335.32,427.23,335.37,427.22,335.36z"/>
			</g>
			<g>
				<path style="fill:#263238;" d="M426.71,320.92c0.1,0,0.04,7.41-0.14,16.54c-0.18,9.13-0.4,16.53-0.5,16.53
					c-0.1,0-0.04-7.4,0.14-16.54C426.38,328.32,426.61,320.92,426.71,320.92z"/>
			</g>
			<g>
				<path style="fill:#263238;" d="M352.21,296.69c0.01,0.01-0.1,0.09-0.3,0.22c-0.11,0.07-0.23,0.15-0.37,0.24
					c-0.14,0.11-0.3,0.24-0.47,0.38c-0.7,0.58-1.63,1.52-2.63,2.81c-2.01,2.57-4.32,6.48-6.58,10.93c-2.26,4.46-4.1,8.6-5.41,11.6
					c-0.63,1.47-1.15,2.68-1.53,3.57c-0.17,0.39-0.31,0.71-0.42,0.97c-0.1,0.22-0.16,0.33-0.17,0.33c-0.01,0,0.02-0.13,0.1-0.36
					c0.1-0.27,0.21-0.6,0.36-0.99c0.32-0.86,0.8-2.1,1.42-3.62c1.25-3.03,3.05-7.2,5.32-11.67c2.27-4.46,4.63-8.37,6.71-10.93
					c1.03-1.28,2.01-2.21,2.75-2.76c0.18-0.13,0.35-0.25,0.5-0.36c0.15-0.08,0.28-0.15,0.4-0.22
					C352.09,296.73,352.2,296.68,352.21,296.69z"/>
			</g>
			<g>
				<path style="fill:#263238;" d="M352.97,316.73c0.02-0.01,0.11,0.26,0.25,0.76c0.14,0.49,0.33,1.22,0.54,2.11
					c0.43,1.79,0.97,4.27,1.47,7.03c0.5,2.76,0.86,5.28,1.08,7.1c0.11,0.91,0.19,1.65,0.23,2.17c0.04,0.51,0.05,0.8,0.03,0.8
					c-0.03,0-0.08-0.28-0.17-0.78c-0.09-0.58-0.21-1.3-0.34-2.15c-0.28-1.81-0.68-4.32-1.18-7.07c-0.5-2.76-0.99-5.24-1.36-7.04
					c-0.17-0.84-0.31-1.55-0.43-2.13C352.99,317.02,352.94,316.74,352.97,316.73z"/>
			</g>
		</g>
		<g>
			<g>
				<path style="fill:#263238;" d="M416.35,261.88c-1.09,0.61-2.55-0.18-3.05-1.33c-0.49-1.15-0.27-2.47,0.11-3.66
					c0.38-1.19,0.9-2.36,0.97-3.6c0.14-2.27-1.41-4.53-3.57-5.22c2.12-1.68,2.29-5.28,0.35-7.16c-0.91-0.88-2.12-1.35-3.18-2.04
					c-0.61-0.39-1.16-0.86-1.68-1.37c0.96,0.2,1.92,0.3,2.89,0.09c1.54-0.33,2.89-1.48,3.39-2.97c0.51-1.49,0.11-3.26-1.02-4.34
					c-1.14-1.08-2.98-1.38-4.37-0.65c-1.37,0.72-2.12,2.21-2.79,3.61c-0.21,0.43-0.41,0.87-0.62,1.3c-1.93-2.55-3.74-5.19-6.71-6.09
					c-2.69-0.81-5.59,0.09-8.4-0.11c-2.05-0.15-4.01-0.89-6.05-1.11c-2.04-0.22-4.36,0.21-5.56,1.87c-0.71,0.97-0.93,2.24-1.64,3.21
					c-1.48,2-4.66,2.27-5.87,4.44c-0.99,1.76-0.23,3.99-0.65,5.97c-0.46,2.15-2.23,3.72-3.68,5.37c-1.45,1.65-2.71,3.92-1.9,5.96
					c0.72,1.8,2.81,2.76,3.49,4.57c0.5,1.32,0.14,2.78,0.11,4.19c-0.03,1.41,0.54,3.08,1.91,3.4l15.64,4.13
					c5.38,2.19,10.94,4.42,16.75,4.41c5.81-0.01,12.02-2.8,14.31-8.14c-0.84-0.03-1.66-0.4-2.25-1.01
					C414.8,264.9,415.96,263.49,416.35,261.88z"/>
			</g>
			<g>
				<g>
					<g>
						<g>
							<g>
								<g>
									<g>
										<g>
											<path style="fill:#263238;" d="M403.53,266.78c1.29-3.97,2.56-7.96,3.15-12.09c0.59-4.13,0.46-8.43-0.99-12.34
												c-0.22-0.59-2.1-4.57-2.73-4.51c-0.45,0.04,0.71,3.75,0.48,4.14c-2.17,3.73-2.76,8.21-2.41,12.51
												C401.38,258.79,402.27,262.66,403.53,266.78"/>
										</g>
									</g>
								</g>
							</g>
							<g>
								<g>
									<g>
										<g>
											<g>
												<path style="fill:#FFBE9D;" d="M389.72,301.44c6.46-0.14,13.8-14.27,13.8-14.27l0.42-36.3
													c0.34-10.45-5.46-19.36-15.92-19.41l-0.97,0.05c-9.73,0.52-17.43,8.42-17.69,18.16c-0.24,9.06-0.4,19.08-0.08,23.92
													c0.66,10.01,10.77,11.04,10.77,11.04c0.02,0,0.06,2.33,0.09,5.27C380.21,296.51,387.13,301.67,389.72,301.44
													L389.72,301.44z"/>
											</g>
										</g>
									</g>
								</g>
							</g>
							<g>
								<g>
									<g>
										<g>
											<g>
												<g>
													<path style="fill:#EB996E;" d="M380.05,284.63c0,0,6.34,0.03,12.84-4.56c0,0-2.79,7.46-12.84,7.09L380.05,284.63z"/>
												</g>
											</g>
										</g>
									</g>
								</g>
							</g>
							<g>
								<g>
									<g>
										<g>
											<g>
												<g>
													<g>
														<g>
															<g>
																<g>
																	<g>
																		<g>
																			<path style="fill:#263238;" d="M373.69,257.54c0.01,0.76,0.67,1.37,1.46,1.37c0.79,0,1.42-0.61,1.41-1.37
																				c-0.01-0.76-0.67-1.37-1.46-1.37C374.31,256.17,373.68,256.78,373.69,257.54z"/>
																		</g>
																	</g>
																</g>
															</g>
														</g>
													</g>
												</g>
											</g>
										</g>
									</g>
								</g>
							</g>
							<g>
								<g>
									<g>
										<g>
											<g>
												<g>
													<g>
														<g>
															<g>
																<g>
																	<g>
																		<g>
																			<g>
																				<path style="fill:#263238;" d="M371.73,253.72c0.19,0.18,1.23-0.68,2.77-0.76c1.54-0.1,2.71,0.63,2.87,0.43
																					c0.08-0.09-0.12-0.42-0.63-0.75c-0.5-0.33-1.35-0.63-2.31-0.58c-0.96,0.06-1.75,0.45-2.19,0.84
																					C371.78,253.29,371.64,253.64,371.73,253.72z"/>
																			</g>
																		</g>
																	</g>
																</g>
															</g>
														</g>
													</g>
												</g>
											</g>
										</g>
									</g>
								</g>
							</g>
							<g>
								<g>
									<g>
										<g>
											<g>
												<g>
													<g>
														<g>
															<g>
																<g>
																	<g>
																		<g>
																			<path style="fill:#263238;" d="M387.56,257.17c0.01,0.76,0.67,1.37,1.46,1.37c0.79,0,1.42-0.61,1.41-1.37
																				c-0.01-0.76-0.67-1.37-1.46-1.37C388.18,255.8,387.55,256.41,387.56,257.17z"/>
																		</g>
																	</g>
																</g>
															</g>
														</g>
													</g>
												</g>
											</g>
										</g>
									</g>
								</g>
							</g>
							<g>
								<g>
									<g>
										<g>
											<g>
												<g>
													<g>
														<g>
															<g>
																<g>
																	<g>
																		<g>
																			<g>
																				<path style="fill:#263238;" d="M386.85,253.53c0.19,0.18,1.23-0.68,2.77-0.76c1.54-0.1,2.71,0.63,2.87,0.43
																					c0.08-0.09-0.12-0.41-0.63-0.75c-0.5-0.33-1.35-0.63-2.31-0.58c-0.96,0.06-1.75,0.45-2.19,0.84
																					C386.9,253.11,386.76,253.46,386.85,253.53z"/>
																			</g>
																		</g>
																	</g>
																</g>
															</g>
														</g>
													</g>
												</g>
											</g>
										</g>
									</g>
								</g>
							</g>
							<g>
								<g>
									<g>
										<g>
											<g>
												<g>
													<g>
														<g>
															<g>
																<g>
																	<g>
																		<g>
																			<path style="fill:#263238;" d="M381.96,265.66c0-0.09-0.96-0.2-2.53-0.32c-0.4-0.02-0.77-0.08-0.85-0.34
																				c-0.11-0.28,0.03-0.71,0.2-1.18c0.32-0.97,0.65-1.99,1-3.06c1.39-4.35,2.37-7.92,2.19-7.97
																				c-0.18-0.05-1.44,3.43-2.83,7.78c-0.33,1.07-0.65,2.09-0.95,3.07c-0.12,0.45-0.35,0.98-0.12,1.55
																				c0.12,0.29,0.42,0.49,0.68,0.54c0.26,0.06,0.48,0.06,0.67,0.06C380.99,265.8,381.96,265.75,381.96,265.66z"/>
																		</g>
																	</g>
																</g>
															</g>
														</g>
													</g>
												</g>
											</g>
										</g>
									</g>
								</g>
							</g>
							<g>
								<g>
									<g>
										<g>
											<g>
												<g>
													<g>
														<g>
															<g>
																<g>
																	<g>
																		<g>
																			<path style="fill:#263238;" d="M386.55,266.49c-0.25,0-0.16,1.67-1.53,2.93c-1.36,1.27-3.16,1.17-3.16,1.41
																				c-0.02,0.11,0.41,0.3,1.17,0.28c0.74-0.01,1.8-0.31,2.64-1.08c0.83-0.77,1.16-1.77,1.18-2.45
																				C386.87,266.87,386.66,266.47,386.55,266.49z"/>
																		</g>
																	</g>
																</g>
															</g>
														</g>
													</g>
												</g>
											</g>
										</g>
									</g>
								</g>
							</g>
							<g>
								<g>
									<g>
										<g>
											<g>
												<g>
													<g>
														<g>
															<path style="fill:#263238;" d="M386.6,247.28c0.17,0.41,1.7,0.13,3.52,0.25c1.82,0.08,3.31,0.54,3.53,0.15
																c0.1-0.19-0.18-0.57-0.79-0.94c-0.61-0.37-1.56-0.71-2.65-0.77c-1.09-0.06-2.07,0.17-2.72,0.47
																C386.84,246.74,386.52,247.09,386.6,247.28z"/>
														</g>
													</g>
												</g>
											</g>
										</g>
									</g>
								</g>
							</g>
							<g>
								<g>
									<g>
										<g>
											<g>
												<g>
													<g>
														<g>
															<path style="fill:#263238;" d="M372.09,248.57c0.29,0.34,1.33-0.08,2.61-0.17c1.27-0.13,2.37,0.11,2.6-0.27
																c0.1-0.18-0.09-0.52-0.58-0.83c-0.48-0.31-1.28-0.53-2.15-0.46c-0.88,0.07-1.62,0.43-2.04,0.81
																C372.09,248.03,371.96,248.4,372.09,248.57z"/>
														</g>
													</g>
												</g>
											</g>
										</g>
									</g>
								</g>
							</g>
							<g>
								<g>
									<g>
										<g>
											<path style="fill:#FFBE9D;" d="M403.52,258.34c0.17-0.08,6.78-2.41,6.93,4.46c0.15,6.86-6.77,5.6-6.79,5.4
												C403.64,268,403.52,258.34,403.52,258.34z"/>
										</g>
									</g>
								</g>
							</g>
							<g>
								<g>
									<g>
										<g>
											<g>
												<path style="fill:#EB996E;" d="M405.7,265.55c0.03-0.02,0.12,0.08,0.33,0.17c0.2,0.09,0.54,0.14,0.89,0
													c0.72-0.28,1.3-1.45,1.31-2.68c0-0.62-0.14-1.22-0.37-1.7c-0.22-0.5-0.55-0.84-0.92-0.9c-0.37-0.08-0.62,0.15-0.7,0.34
													c-0.09,0.19-0.04,0.33-0.08,0.34c-0.02,0.02-0.15-0.11-0.1-0.4c0.03-0.14,0.1-0.3,0.26-0.44
													c0.16-0.14,0.4-0.21,0.66-0.19c0.53,0.02,1.02,0.5,1.27,1.04c0.28,0.54,0.46,1.2,0.46,1.9c-0.01,1.38-0.69,2.69-1.68,3
													c-0.48,0.14-0.89,0-1.1-0.16C405.72,265.71,405.68,265.56,405.7,265.55z"/>
											</g>
										</g>
									</g>
								</g>
							</g>
							<g>
								<g>
									<g>
										<g>
											<path style="fill:#263238;" d="M373.66,238.25c-1.12-0.6,2.17-4.24,4.88-5.51c4.1-1.92,10.39-3.16,14.21-2.13
												c4.6,1.24,8.43,3.47,10.78,7.61c2.35,4.14,3.28,8.99,3.21,13.75c-0.02,1.45-0.15,2.97-0.91,4.21
												c-0.94,1.53-2.77,2.51-2.66,4.6c0.04,0.76-0.17,1.54-0.69,2.1c-1.24,1.35-2.79,0.12-3.51-1.13
												c-1.54-2.67-1.75-5.88-1.92-8.96c-0.12-2.19-0.24-4.42,0.35-6.53c0.32-1.15,0.85-2.24,1.1-3.4
												c0.26-1.16,0.2-2.48-0.53-3.42c-0.12-0.15-0.32-0.34-0.56-0.56c-1.97-1.68-4.69-2.15-7.12-1.26
												c-3.85,1.42-10.42,3.54-12.16,2.25c-2.5-1.86-3.11-3.08-3.11-3.08L373.66,238.25z"/>
										</g>
									</g>
								</g>
							</g>
						</g>
					</g>
					<g>
						<g>
							<g>
								<g>
									<path style="fill:#263238;" d="M392.38,229.68c-3.79-1.21-8.08-1.09-11.59,0.78c-1.86,1-3.53,2.57-4.08,4.61
										c-0.55,2.04,0.35,4.53,2.32,5.3l0.14,0.08c2.94,0.95,4.84,0.53,7.75-0.52c2.45-0.88,4.61-2.43,7.06-3.3
										c2.6-0.93,5.49-1.05,8.16-0.34C399.47,233.35,396.17,230.89,392.38,229.68z"/>
								</g>
							</g>
						</g>
					</g>
				</g>
			</g>
			<g>
				<g>
					<path style="fill:#455A64;" d="M405.43,236.47c-0.06,0.05-0.61-0.6-1.73-1.38c-0.56-0.38-1.25-0.8-2.08-1.11
						c-0.82-0.32-1.79-0.55-2.79-0.47c-2.04,0.19-3.74,1.14-4.79,1.97c-1.06,0.84-1.55,1.55-1.62,1.5c-0.02-0.02,0.07-0.21,0.3-0.53
						c0.22-0.32,0.59-0.75,1.11-1.22c1.03-0.93,2.78-1.97,4.96-2.18c1.1-0.09,2.13,0.18,2.99,0.53c0.86,0.35,1.57,0.82,2.12,1.25
						C405,235.7,405.47,236.44,405.43,236.47z"/>
				</g>
			</g>
			<g>
				<g>
					<path style="fill:#455A64;" d="M406.11,238.9c0.05,0.01-0.07,0.78-0.52,1.96c-0.45,1.17-1.3,2.72-2.57,4.17
						c-1.28,1.44-2.72,2.47-3.83,3.05c-1.11,0.59-1.87,0.8-1.88,0.75c-0.08-0.13,2.88-1.26,5.37-4.11
						C405.21,241.91,405.97,238.83,406.11,238.9z"/>
				</g>
			</g>
			<g>
				<g>
					<path style="fill:#455A64;" d="M408.91,240.01c0.03,0,0.05,0.28,0.03,0.78c-0.02,0.5-0.1,1.23-0.3,2.11
						c-0.38,1.75-1.35,4.14-3.17,6.24c-1.83,2.1-4.06,3.38-5.75,3.99c-0.85,0.32-1.55,0.5-2.05,0.58c-0.49,0.09-0.77,0.11-0.78,0.08
						c-0.02-0.08,1.08-0.27,2.7-0.96c1.62-0.68,3.76-1.97,5.52-3.99c1.77-2.03,2.75-4.32,3.2-6.02
						C408.79,241.12,408.83,240,408.91,240.01z"/>
				</g>
			</g>
			<g>
				<g>
					<path style="fill:#455A64;" d="M384.52,229.05c0.02,0.08-0.71,0.24-1.82,0.68c-1.11,0.44-2.57,1.2-3.98,2.35
						c-1.4,1.16-2.43,2.45-3.07,3.45c-0.64,1-0.95,1.68-1.02,1.65c-0.05-0.02,0.15-0.75,0.74-1.82c0.58-1.07,1.61-2.45,3.05-3.64
						c1.45-1.19,3-1.93,4.16-2.3C383.75,229.06,384.51,229,384.52,229.05z"/>
				</g>
			</g>
			<g>
				<g>
					<path style="fill:#455A64;" d="M411.06,229.91c0.11,0-0.19,1.99-1.74,3.82c-1.53,1.85-3.44,2.49-3.46,2.38
						c-0.07-0.13,1.66-0.92,3.11-2.67C410.44,231.71,410.92,229.87,411.06,229.91z"/>
				</g>
			</g>
		</g>
		<g>
			<g>
				<path style="fill:#FFBE9D;" d="M335.61,329.81l-9.26,18.59c-1.03,2.08-1.52,4.38-1.41,6.7v0c0.35,7.22,6.31,12.89,13.53,12.89
					l26.55-1.54l1.16-12.11l-20.21-4.87l7.66-14.48L335.61,329.81z"/>
			</g>
			<g>
				<g>
					<path style="fill:#EB996E;" d="M345.99,349.46c-0.01,0.08-0.92-0.07-2.38-0.06c-1.46,0.02-3.49,0.26-5.6,0.99
						c-2.12,0.71-3.87,1.76-5.02,2.66c-1.15,0.91-1.69,1.65-1.75,1.6c-0.03-0.02,0.09-0.21,0.33-0.56c0.25-0.34,0.65-0.79,1.21-1.29
						c1.12-0.99,2.9-2.12,5.08-2.85c2.16-0.75,4.26-0.94,5.75-0.88c0.75,0.05,1.35,0.11,1.76,0.21
						C345.77,349.36,345.99,349.43,345.99,349.46z"/>
				</g>
			</g>
			<g>
				<path style="fill:#EB996E;" d="M328.18,345.11c-0.02-0.01,0.04-0.24,0.17-0.66c0.13-0.42,0.34-1.01,0.63-1.73
					c0.58-1.44,1.51-3.38,2.67-5.45c1.16-2.07,2.27-3.9,3.05-5.23c0.79-1.33,1.28-2.15,1.33-2.13c0.02,0.01-0.07,0.23-0.26,0.62
					c-0.19,0.39-0.48,0.95-0.84,1.63c-0.73,1.37-1.81,3.22-2.96,5.28c-1.15,2.06-2.12,3.96-2.75,5.37
					C328.58,344.23,328.23,345.13,328.18,345.11z"/>
			</g>
			<g>
				<path style="fill:#EB996E;" d="M353.97,334.83c0.04,0.02-0.11,0.56-0.44,1.42c-0.33,0.85-0.85,2.01-1.52,3.24
					c-0.68,1.22-1.38,2.28-1.93,3.01c-0.55,0.73-0.93,1.15-0.97,1.12c-0.09-0.07,1.25-1.88,2.58-4.31
					C353.04,336.89,353.87,334.8,353.97,334.83z"/>
			</g>
		</g>
		<g>
			<g>
				<path style="fill:#FFBE9D;" d="M449.05,326.61c0,0,5.74,17.06,12.01,32.58c0.13,0.31,0.27,0.89,0.38,1.21
					c1.42,3.84-2.84,7.59-7.13,7.59l-36.2-0.06v-11.77l22.52-4.78l-8.16-18.11L449.05,326.61z"/>
			</g>
			<g>
				<g>
					<path style="fill:#EB996E;" d="M454.95,354.83c-0.05,0.06-0.76-0.5-2.01-1.22c-1.25-0.72-3.08-1.55-5.22-2.04
						c-2.15-0.48-4.15-0.52-5.59-0.41c-1.44,0.11-2.32,0.31-2.34,0.23c-0.01-0.03,0.21-0.11,0.6-0.22c0.39-0.12,0.98-0.24,1.71-0.34
						c1.45-0.2,3.52-0.21,5.72,0.29c2.2,0.5,4.06,1.4,5.29,2.21c0.62,0.4,1.09,0.76,1.39,1.04
						C454.81,354.64,454.97,354.8,454.95,354.83z"/>
				</g>
			</g>
			<g>
				<path style="fill:#EB996E;" d="M449.05,326.61c0.01,0,0.08,0.14,0.19,0.42c0.13,0.32,0.29,0.73,0.49,1.24
					c0.43,1.12,1.02,2.67,1.74,4.57c1.45,3.91,3.43,9.24,5.62,15.12c1.07,2.96,2.18,5.75,3.08,8.34c0.45,1.29,0.87,2.52,1.24,3.68
					c0.09,0.29,0.18,0.58,0.27,0.86c0.07,0.29,0.13,0.59,0.19,0.87c0.01,0.29,0.02,0.58,0,0.86c-0.06,0.27-0.08,0.55-0.17,0.8
					c-0.34,1.02-0.99,1.76-1.6,2.31c-0.62,0.56-1.23,0.94-1.73,1.22c-0.51,0.29-0.92,0.47-1.2,0.58c-0.28,0.11-0.44,0.16-0.44,0.15
					c0-0.01,0.14-0.08,0.41-0.21c0.27-0.13,0.67-0.34,1.16-0.64c0.49-0.3,1.08-0.69,1.67-1.25c0.58-0.55,1.19-1.28,1.49-2.24
					c0.09-0.23,0.1-0.49,0.15-0.75c0.01-0.26,0-0.53-0.01-0.8c-0.06-0.27-0.11-0.54-0.19-0.81c-0.09-0.28-0.18-0.56-0.28-0.85
					c-0.38-1.15-0.81-2.37-1.27-3.66c-0.91-2.57-2.03-5.35-3.1-8.32c-2.15-5.9-4.1-11.24-5.52-15.16c-0.68-1.91-1.23-3.48-1.63-4.61
					c-0.18-0.52-0.32-0.94-0.43-1.26C449.08,326.77,449.03,326.61,449.05,326.61z"/>
			</g>
		</g>
		<g>
			<path style="fill:#EB996E;" d="M432.47,333.26c0.01-0.01,0.07,0.1,0.18,0.31c0.12,0.25,0.26,0.55,0.44,0.91
				c0.39,0.85,0.92,1.99,1.56,3.38c1.3,2.86,3.07,6.81,5.01,11.19c0.31,0.7,0.62,1.4,0.91,2.06l0.09,0.2l-0.21,0.05
				c-4.12,0.96-7.78,1.82-10.47,2.45c-1.28,0.28-2.33,0.52-3.12,0.69c-0.73,0.15-1.14,0.23-1.14,0.21
				c-0.01-0.02,0.39-0.14,1.11-0.33c0.78-0.2,1.82-0.47,3.09-0.8c2.68-0.66,6.33-1.55,10.44-2.56l-0.12,0.25
				c-0.29-0.66-0.6-1.35-0.91-2.05c-1.94-4.38-3.68-8.35-4.92-11.24c-0.6-1.41-1.09-2.56-1.45-3.42c-0.15-0.37-0.28-0.68-0.38-0.94
				C432.49,333.38,432.45,333.26,432.47,333.26z"/>
		</g>
		<g>
			<g>
				<g>
					<g>
						<g>
							<g>
								<path style="fill:#FFBE9D;" d="M360.99,353.62h5.2c0,0,11.73-4.24,14.14-3.83c2.17,0.36,10.13,5.65,11.68,6.69
									c0.17,0.12,0.3,0.28,0.38,0.48l0,0c0.32,0.86-0.1,1.82-0.95,2.17l-0.16,0.07l0.07,0.24c0.09,0.29,0.14,0.62,0.12,0.95
									c-0.06,1.12-1.56,1.46-2.13,0.5l0.3,0.53c0.12,0.22,0.18,0.46,0.17,0.71l-0.03,0.48c-0.03,0.54-0.39,1-0.9,1.17l0,0
									c-0.49,0.16-1.02,0.02-1.37-0.36c-1.01-1.11-3.19-3.33-4.66-3.58c-1.31-0.22-3.5-0.25-4.81-0.24
									c-0.67,0-1.27,0.42-1.51,1.04l0,0c0.87,0.06,6.97,3.24,9.13,4.38c0.67,0.35,1.17,0.99,1.25,1.74
									c0.08,0.68-0.26,1.38-1.6,1.07c-2.87-0.67-8.02-3.04-8.02-3.04s-2.66-0.76-4.38,0.46c-2.42,1.71-3.53,2.34-5.62,1.65
									c-2.08-0.69-3.62-1.68-3.62-1.68l-4.1-0.41C359.57,364.8,355.69,355.11,360.99,353.62z"/>
							</g>
						</g>
					</g>
				</g>
				<g>
					<g>
						<g>
							<g>
								<g>
									<path style="fill:#EB996E;" d="M376.48,355.61c0.01,0.04,0.83-0.22,2.2-0.31c1.36-0.09,3.3,0.07,5.22,0.89
										c1.93,0.82,3.38,2.11,4.26,3.16c0.89,1.05,1.26,1.83,1.3,1.8c0.01-0.01-0.07-0.2-0.26-0.54c-0.19-0.34-0.49-0.82-0.92-1.36
										c-0.86-1.09-2.32-2.42-4.29-3.26c-1.97-0.84-3.95-0.97-5.32-0.84c-0.69,0.06-1.25,0.17-1.62,0.27
										C376.68,355.52,376.48,355.59,376.48,355.61z"/>
								</g>
							</g>
						</g>
					</g>
				</g>
				<g>
					<g>
						<g>
							<g>
								<g>
									<path style="fill:#EB996E;" d="M377.73,352.76c0.01,0.05,0.85-0.36,2.29-0.4c1.43-0.06,3.45,0.37,5.33,1.51
										c1.89,1.15,3.3,2.6,4.3,3.64c0.48,0.51,0.87,0.93,1.18,1.25c0.28,0.3,0.44,0.45,0.45,0.44c0.01-0.01-0.13-0.19-0.39-0.5
										c-0.26-0.31-0.64-0.76-1.13-1.3c-0.98-1.07-2.38-2.55-4.3-3.72c-1.92-1.16-3.99-1.58-5.46-1.48
										c-0.73,0.04-1.32,0.18-1.7,0.31c-0.2,0.06-0.34,0.13-0.44,0.17C377.77,352.72,377.72,352.75,377.73,352.76z"/>
								</g>
							</g>
						</g>
					</g>
				</g>
			</g>
			<g>
				<g>
					<g>
						<g>
							<g>
								<path style="fill:#FFBE9D;" d="M425.71,353.99h-5.2c0,0-11.73-4.24-14.14-3.83c-2.17,0.36-10.13,5.65-11.68,6.69
									c-0.17,0.12-0.3,0.28-0.38,0.48l0,0c-0.32,0.86,0.1,1.82,0.95,2.17l0.16,0.07l-0.07,0.24c-0.09,0.29-0.14,0.62-0.12,0.95
									c0.06,1.12,1.56,1.46,2.13,0.5l-0.3,0.53c-0.12,0.22-0.18,0.46-0.17,0.71l0.03,0.48c0.03,0.54,0.39,1,0.9,1.17l0,0
									c0.49,0.16,1.02,0.02,1.37-0.36c1.01-1.11,3.19-3.33,4.66-3.58c1.31-0.22,3.5-0.25,4.81-0.24c0.67,0,1.27,0.42,1.51,1.04
									l0,0c-0.87,0.06-6.97,3.24-9.13,4.38c-0.67,0.35-1.17,0.99-1.25,1.74c-0.08,0.68,0.26,1.38,1.6,1.07
									c2.87-0.67,8.02-3.04,8.02-3.04s2.66-0.76,4.38,0.46c2.42,1.71,3.53,2.34,5.62,1.65c2.08-0.69,3.62-1.68,3.62-1.68l4.1-0.41
									C427.14,365.17,431.01,355.48,425.71,353.99z"/>
							</g>
						</g>
					</g>
				</g>
				<g>
					<g>
						<g>
							<g>
								<g>
									<path style="fill:#EB996E;" d="M410.22,355.97c-0.01,0.04-0.83-0.22-2.2-0.31c-1.36-0.09-3.3,0.07-5.22,0.89
										c-1.93,0.82-3.38,2.11-4.26,3.16c-0.89,1.05-1.26,1.83-1.3,1.8c-0.01-0.01,0.07-0.2,0.26-0.54
										c0.19-0.34,0.49-0.82,0.92-1.36c0.86-1.09,2.32-2.42,4.29-3.26c1.97-0.84,3.95-0.97,5.32-0.84
										c0.69,0.06,1.25,0.17,1.62,0.27C410.03,355.88,410.23,355.96,410.22,355.97z"/>
								</g>
							</g>
						</g>
					</g>
				</g>
				<g>
					<g>
						<g>
							<g>
								<g>
									<path style="fill:#EB996E;" d="M408.98,353.12c-0.01,0.05-0.85-0.36-2.29-0.4c-1.43-0.06-3.45,0.37-5.33,1.51
										c-1.89,1.15-3.3,2.6-4.3,3.64c-0.48,0.51-0.87,0.93-1.18,1.25c-0.28,0.3-0.44,0.45-0.45,0.44
										c-0.01-0.01,0.13-0.19,0.39-0.5c0.26-0.31,0.64-0.76,1.13-1.3c0.98-1.07,2.38-2.55,4.3-3.72c1.92-1.16,3.99-1.58,5.46-1.48
										c0.73,0.04,1.32,0.18,1.7,0.31c0.2,0.06,0.34,0.13,0.44,0.17C408.93,353.09,408.98,353.12,408.98,353.12z"/>
								</g>
							</g>
						</g>
					</g>
				</g>
			</g>
		</g>
		<g>
			<g>
				<path style="fill:#E0E0E0;" d="M418.68,368.31h-54.56c-1.55,0-2.83-1.22-2.89-2.77l-1.64-37.55c-0.07-1.65,1.24-3.02,2.89-3.02
					h57.73c1.65,0,2.96,1.37,2.89,3.01l-1.53,37.55C421.51,367.09,420.24,368.31,418.68,368.31z"/>
			</g>
			<g>
				<path style="fill:#FFFFFF;" d="M394.33,347.3c0,1.65-1.34,2.99-2.99,2.99c-1.65,0-2.99-1.34-2.99-2.99
					c0-1.65,1.34-2.99,2.99-2.99C393,344.32,394.33,345.65,394.33,347.3z"/>
			</g>
		</g>
	</g>
</g>
<g id="Envelope">
	<g>
		<g>
			<g>
				<g>
					<g>
						<g>
							<g>
								<g>
									<g>
										<path style="fill:#4484FF;" d="M236.97,271.05l31.45-0.14c0.25,0,0.46,0.2,0.47,0.45l0.8,21.06
											c0.01,0.27-0.21,0.49-0.48,0.49l-32.55-0.39c-0.26,0-0.47-0.22-0.47-0.48l0.29-20.53
											C236.51,271.26,236.72,271.05,236.97,271.05z"/>
									</g>
								</g>
							</g>
							<g>
								<g>
									<g>
										<path style="fill:#4484FF;" d="M236.51,271.05l15.35-12.35c0.65-0.52,1.58-0.52,2.22,0.01l14.79,12.2"/>
									</g>
								</g>
							</g>
							<g style="opacity:0.3;">
								<g>
									<g>
										<path d="M240.8,271.11l11.29-9.08c0.48-0.38,1.16-0.38,1.63,0.01L264.6,271"/>
									</g>
								</g>
							</g>
							<g style="opacity:0.5;">
								<g>
									<g>
										<polyline points="268.88,270.91 252.59,283.85 236.51,271.05 										"/>
									</g>
								</g>
							</g>
						</g>
						<g>
							<g>
								<g>
									<g>
										<polygon style="fill:#FAFAFA;" points="238.14,272.26 238.11,265.21 266.71,265.29 266.75,272.53 252.59,283.68 
																					"/>
									</g>
									<g>
										<g>
											<path style="fill:#263238;" d="M238.14,272.26c0,0,0.09,0.07,0.27,0.21c0.17,0.14,0.43,0.34,0.77,0.61
												c0.67,0.53,1.66,1.31,2.93,2.31c2.52,1.99,6.14,4.84,10.5,8.28h-0.03c4.1-3.23,8.94-7.04,14.16-11.15l-0.01,0.02
												c-0.01-1.03-0.01-2.12-0.02-3.22c-0.01-1.36-0.01-2.7-0.02-4.02l0.03,0.03c-11.87-0.04-22.19-0.07-28.6-0.09l0.02-0.02
												c0.01,2.23,0.01,3.99,0.01,5.19c0,0.6,0,1.07,0,1.38c0,0.16,0,0.27,0,0.36C238.14,272.22,238.14,272.26,238.14,272.26
												s0-0.04,0-0.12c0-0.08,0-0.2,0-0.35c0-0.31-0.01-0.78-0.01-1.38c-0.01-1.21-0.02-2.97-0.03-5.2l0-0.02h0.02
												c6.41,0.02,16.73,0.04,28.6,0.07l0.03,0l0,0.03c0.01,1.31,0.01,2.66,0.02,4.02c0.01,1.1,0.01,2.2,0.02,3.22l0,0.01
												l-0.01,0.01c-5.21,4.1-10.06,7.92-14.16,11.14l-0.01,0.01l-0.01-0.01c-4.36-3.45-7.97-6.31-10.49-8.31
												c-1.26-1-2.24-1.78-2.92-2.31c-0.33-0.27-0.59-0.47-0.76-0.61C238.23,272.33,238.14,272.26,238.14,272.26z"/>
										</g>
									</g>
								</g>
							</g>
						</g>
					</g>
				</g>
			</g>
			<g>
				<g>
					<path style="fill:#263238;" d="M259.46,269.82c0,0.02-3.21,0.05-7.18,0.07c-3.97,0.02-7.18,0.03-7.18,0.01
						c0-0.02,3.21-0.05,7.18-0.07C256.24,269.81,259.46,269.81,259.46,269.82z"/>
				</g>
			</g>
			<g>
				<g>
					<path style="fill:#263238;" d="M261.95,273.12c0,0.02-4.33,0.04-9.68,0.06c-5.35,0.02-9.68,0.02-9.68,0
						c0-0.02,4.33-0.04,9.68-0.06C257.61,273.1,261.95,273.1,261.95,273.12z"/>
				</g>
			</g>
			<g>
				<g>
					<path style="fill:#263238;" d="M261.94,276.41c0,0.02-4.14,0.04-9.24,0.06c-5.1,0.02-9.24,0.02-9.24,0
						c0-0.02,4.13-0.04,9.24-0.06C257.8,276.4,261.94,276.4,261.94,276.41z"/>
				</g>
			</g>
			<g>
				<g>
					<path style="fill:#263238;" d="M258.31,279.29c0,0-0.01,0-0.03,0c-0.02,0-0.05,0-0.08,0c-0.08,0-0.19,0-0.33,0.01
						c-0.29,0-0.7,0.01-1.2,0.01c-1.01,0.01-2.41,0.03-3.95,0.04c-1.54,0.02-2.94,0.03-3.95,0.03c-0.5,0-0.91,0-1.2,0
						c-0.14,0-0.25,0-0.33,0c-0.03,0-0.06,0-0.08,0c-0.02,0-0.03,0-0.03,0s0.01,0,0.03,0c0.02,0,0.05,0,0.08,0
						c0.08,0,0.19,0,0.33-0.01c0.29,0,0.7-0.01,1.2-0.01c1.01-0.01,2.41-0.03,3.95-0.04c1.54-0.02,2.94-0.03,3.95-0.03
						c0.5,0,0.91,0,1.2,0c0.14,0,0.25,0,0.33,0c0.03,0,0.06,0,0.08,0C258.3,279.29,258.31,279.29,258.31,279.29z"/>
				</g>
			</g>
			<g>
				<g>
					<path style="fill:#263238;" d="M254.65,282.06c0,0.02-0.92,0.03-2.06,0.02c-1.14,0-2.06-0.02-2.06-0.03
						c0-0.02,0.92-0.03,2.06-0.02C253.73,282.03,254.65,282.04,254.65,282.06z"/>
				</g>
			</g>
		</g>
		<g>
			<g>
				<path style="fill:#263238;" d="M269.52,292.81c0,0-0.03-0.01-0.09-0.04c-0.06-0.03-0.14-0.07-0.25-0.13
					c-0.22-0.12-0.55-0.3-0.97-0.52c-0.84-0.46-2.04-1.13-3.54-1.95c-1.49-0.83-3.26-1.82-5.23-2.91c-0.98-0.55-2.02-1.13-3.09-1.72
					c-0.54-0.3-1.08-0.6-1.63-0.91c-0.14-0.08-0.28-0.15-0.42-0.23c-0.14-0.08-0.28-0.16-0.42-0.23c-0.28-0.14-0.59-0.23-0.9-0.27
					c-0.63-0.09-1.27,0.03-1.81,0.32c-0.55,0.31-1.1,0.61-1.63,0.91c-1.07,0.6-2.1,1.18-3.09,1.73c-1.97,1.1-3.74,2.09-5.23,2.92
					c-1.49,0.82-2.7,1.49-3.53,1.95c-0.42,0.23-0.74,0.4-0.97,0.52c-0.11,0.06-0.19,0.1-0.25,0.13c-0.06,0.03-0.09,0.04-0.09,0.04
					c0,0,0.03-0.02,0.08-0.06c0.06-0.03,0.14-0.08,0.24-0.15c0.22-0.13,0.54-0.31,0.95-0.55c0.83-0.47,2.03-1.16,3.51-2
					c1.48-0.84,3.25-1.84,5.21-2.95c0.98-0.55,2.01-1.13,3.08-1.74c0.54-0.3,1.08-0.61,1.63-0.92c0.57-0.31,1.25-0.44,1.92-0.34
					c0.33,0.05,0.65,0.14,0.95,0.29c0.15,0.07,0.29,0.15,0.43,0.23c0.14,0.08,0.28,0.16,0.42,0.23c0.55,0.31,1.1,0.62,1.63,0.92
					c1.07,0.6,2.1,1.18,3.08,1.73c1.96,1.11,3.73,2.11,5.22,2.94c1.48,0.84,2.68,1.52,3.51,2c0.41,0.24,0.73,0.42,0.95,0.55
					c0.11,0.06,0.19,0.11,0.25,0.15C269.5,292.79,269.52,292.81,269.52,292.81z"/>
			</g>
		</g>
	</g>
</g>
<g id="Document">
	<g>
		<g>
			<g>
				<g>
					<g>
						<g>
							<g>
								
									<rect x="157.92" y="221.57" transform="matrix(0.9925 -0.1221 0.1221 0.9925 -28.7703 23.3433)" style="fill:#FFFFFF;" width="36.25" height="49.61"/>
							</g>
						</g>
						<g>
							<g>
								<g>
									<path style="fill:#263238;" d="M197.07,268.78c0,0-0.02-0.08-0.04-0.24c-0.02-0.17-0.05-0.4-0.1-0.7
										c-0.08-0.62-0.2-1.52-0.35-2.69c-0.3-2.36-0.74-5.78-1.29-10.11c-1.09-8.66-2.63-20.95-4.45-35.48l0.18,0.14
										c-10.83,1.34-23.07,2.85-35.97,4.44l0,0l0.16-0.2c2.25,18.39,4.33,35.42,6.02,49.24l-0.16-0.13
										c10.89-1.31,19.87-2.39,26.14-3.14c3.13-0.37,5.59-0.66,7.28-0.86c0.83-0.1,1.47-0.17,1.92-0.22
										C196.83,268.8,197.07,268.78,197.07,268.78s-0.21,0.04-0.63,0.09c-0.44,0.06-1.07,0.14-1.89,0.25
										c-1.68,0.22-4.12,0.53-7.23,0.93c-6.29,0.79-15.29,1.93-26.21,3.3l-0.15,0.02l-0.02-0.15
										c-1.71-13.82-3.82-30.84-6.09-49.23l-0.02-0.18l0.18-0.02l0,0c12.91-1.58,25.14-3.08,35.98-4.41l0.16-0.02l0.02,0.16
										c1.76,14.59,3.25,26.91,4.3,35.61c0.51,4.32,0.92,7.73,1.2,10.08c0.13,1.15,0.24,2.04,0.31,2.66
										c0.03,0.29,0.06,0.52,0.07,0.68C197.06,268.71,197.07,268.79,197.07,268.78z"/>
								</g>
							</g>
						</g>
					</g>
					<g>
						<g>
							<g>
								<path style="fill:#263238;" d="M178.25,231.16c0.01,0.1-3.89,0.66-8.72,1.26c-4.83,0.59-8.75,1-8.76,0.9
									c-0.01-0.1,3.89-0.66,8.72-1.26C174.31,231.46,178.24,231.06,178.25,231.16z"/>
							</g>
						</g>
					</g>
					<g>
						<g>
							<g>
								<path style="fill:#263238;" d="M188.23,234.28c0.01,0.1-6.01,0.92-13.45,1.84c-7.44,0.92-13.48,1.58-13.49,1.48
									c-0.01-0.1,6.01-0.92,13.45-1.84C182.18,234.84,188.22,234.18,188.23,234.28z"/>
							</g>
						</g>
					</g>
					<g>
						<g>
							<g>
								<path style="fill:#263238;" d="M188.78,238.74c0.01,0.1-6.01,0.92-13.45,1.84c-7.44,0.92-13.48,1.58-13.49,1.48
									c-0.01-0.1,6.01-0.92,13.45-1.84C182.73,239.3,188.77,238.64,188.78,238.74z"/>
							</g>
						</g>
					</g>
					<g>
						<g>
							<g>
								<path style="fill:#263238;" d="M189.33,243.2c0.01,0.1-6.01,0.92-13.45,1.84c-7.44,0.92-13.48,1.58-13.49,1.48
									c-0.01-0.1,6.01-0.92,13.45-1.84C183.28,243.77,189.32,243.1,189.33,243.2z"/>
							</g>
						</g>
					</g>
					<g>
						<g>
							<g>
								<path style="fill:#263238;" d="M189.88,247.67c0.01,0.1-6.01,0.92-13.45,1.84c-7.44,0.92-13.48,1.58-13.49,1.48
									c-0.01-0.1,6.01-0.92,13.45-1.84C183.83,248.23,189.87,247.57,189.88,247.67z"/>
							</g>
						</g>
					</g>
					<g>
						<g>
							<g>
								<path style="fill:#263238;" d="M190.43,252.13c0.01,0.1-6.01,0.92-13.45,1.84c-7.44,0.92-13.48,1.58-13.49,1.48
									c-0.01-0.1,6.01-0.92,13.45-1.84C184.38,252.69,190.42,252.03,190.43,252.13z"/>
							</g>
						</g>
					</g>
					<g>
						<g>
							<g>
								<path style="fill:#263238;" d="M190.98,256.59c0.01,0.1-6.01,0.92-13.45,1.84c-7.44,0.92-13.48,1.58-13.49,1.48
									c-0.01-0.1,6.01-0.92,13.45-1.84C184.93,257.16,190.97,256.49,190.98,256.59z"/>
							</g>
						</g>
					</g>
					<g>
						<g>
							<g>
								<path style="fill:#263238;" d="M179.07,262.59c0.01,0.1-3.22,0.58-7.22,1.07c-4,0.49-7.25,0.81-7.26,0.71
									c-0.01-0.1,3.22-0.58,7.22-1.07C175.8,262.81,179.06,262.49,179.07,262.59z"/>
							</g>
						</g>
					</g>
				</g>
			</g>
		</g>
		<g>
			<g>
				<g>
					
						<ellipse transform="matrix(0.8573 -0.5148 0.5148 0.8573 -108.7272 137.7321)" style="fill:#4484FF;" cx="194.12" cy="265.02" rx="7.36" ry="7.36"/>
				</g>
			</g>
			<g>
				<g>
					<g>
						<path style="fill:#FFFFFF;" d="M197.31,262.11c0.35,0.25-0.84,2.48-2.65,4.96c-0.29,0.4-0.58,0.78-0.86,1.13l-0.44,0.56
							l-0.55-0.36c-2.01-1.3-3.35-2.47-3.17-2.78c0.19-0.31,1.85,0.33,3.94,1.48l-1,0.2c0.25-0.37,0.53-0.77,0.82-1.16
							C195.21,263.66,196.96,261.85,197.31,262.11z"/>
					</g>
				</g>
			</g>
		</g>
	</g>
</g>
<g id="Chart">
	<g>
		<g>
			<g>
				<rect x="557.3" y="225.59" style="fill:#FFFFFF;" width="68.63" height="53.41"/>
			</g>
			<g>
				<g>
					<path style="fill:#263238;" d="M625.92,279c0-0.53-0.03-21.18-0.06-53.41l0.06,0.06c-19.53,0-43.17,0.01-68.62,0.01h-0.01
						l0.08-0.08c0,19.25-0.01,37.46-0.01,53.41l-0.07-0.07C598.02,278.97,625.31,279,625.92,279c-0.61,0-27.9,0.03-68.63,0.07h-0.07
						V279c0-15.95-0.01-34.16-0.01-53.41v-0.08h0.08h0.01c25.45,0.01,49.09,0.01,68.62,0.01h0.06l0,0.06
						C625.95,257.82,625.92,278.47,625.92,279z"/>
				</g>
			</g>
		</g>
		<g>
			<g>
				<g>
					<path style="fill:#263238;" d="M577.58,272.46c-0.04,0-0.08-5.39-0.08-12.04c0-6.65,0.03-12.04,0.08-12.04
						c0.04,0,0.08,5.39,0.08,12.04C577.65,267.07,577.62,272.46,577.58,272.46z"/>
				</g>
			</g>
			<g>
				<g>
					<path style="fill:#263238;" d="M605.23,272.46c-0.04,0-0.08-5.39-0.08-12.04c0-6.65,0.03-12.04,0.08-12.04
						c0.04,0,0.08,5.39,0.08,12.04C605.3,267.07,605.27,272.46,605.23,272.46z"/>
				</g>
			</g>
			<g>
				<g>
					<path style="fill:#263238;" d="M587.02,272.46c-0.04,0-0.08-6.89-0.08-15.39c0-8.5,0.03-15.39,0.08-15.39
						c0.04,0,0.08,6.89,0.08,15.39C587.09,265.57,587.06,272.46,587.02,272.46z"/>
				</g>
			</g>
			<g>
				<g>
					<path style="fill:#263238;" d="M567.88,272.46c-0.04,0-0.08-6.89-0.08-15.39c0-8.5,0.03-15.39,0.08-15.39s0.08,6.89,0.08,15.39
						C567.96,265.57,567.92,272.46,567.88,272.46z"/>
				</g>
			</g>
			<g>
				<g>
					<path style="fill:#263238;" d="M616.08,272.46c-0.04,0-0.08-6.89-0.08-15.39c0-8.5,0.03-15.39,0.08-15.39s0.08,6.89,0.08,15.39
						C616.16,265.57,616.12,272.46,616.08,272.46z"/>
				</g>
			</g>
			<g>
				<g>
					<path style="fill:#263238;" d="M595.29,272.46c-0.04,0-0.08-7.96-0.08-17.77c0-9.81,0.03-17.77,0.08-17.77
						c0.04,0,0.08,7.95,0.08,17.77C595.37,264.5,595.34,272.46,595.29,272.46z"/>
				</g>
			</g>
			<g>
				<path style="fill:#263238;" d="M577.8,248.38c0,0.12-0.1,0.23-0.23,0.23s-0.23-0.1-0.23-0.23c0-0.12,0.1-0.23,0.23-0.23
					S577.8,248.26,577.8,248.38z"/>
			</g>
			<g>
				<path style="fill:#263238;" d="M587.24,241.68c0,0.12-0.1,0.23-0.23,0.23c-0.12,0-0.23-0.1-0.23-0.23c0-0.12,0.1-0.23,0.23-0.23
					C587.14,241.46,587.24,241.56,587.24,241.68z"/>
			</g>
			<g>
				<path style="fill:#4484FF;" d="M587.02,242.49c-0.44,0-0.8-0.36-0.8-0.8c0-0.44,0.36-0.8,0.8-0.8c0.44,0,0.8,0.36,0.8,0.8
					C587.82,242.13,587.46,242.49,587.02,242.49z M587.02,240.95c-0.4,0-0.73,0.33-0.73,0.73c0,0.4,0.33,0.73,0.73,0.73
					c0.4,0,0.73-0.33,0.73-0.73C587.74,241.28,587.42,240.95,587.02,240.95z"/>
			</g>
			<g>
				<path style="fill:#263238;" d="M595.52,236.92c0,0.12-0.1,0.23-0.23,0.23s-0.23-0.1-0.23-0.23c0-0.12,0.1-0.23,0.23-0.23
					S595.52,236.8,595.52,236.92z"/>
			</g>
			<g>
				<path style="fill:#263238;" d="M605.45,248.61c0,0.12-0.1,0.23-0.23,0.23c-0.12,0-0.23-0.1-0.23-0.23c0-0.12,0.1-0.23,0.23-0.23
					C605.35,248.38,605.45,248.49,605.45,248.61z"/>
			</g>
			<g>
				<path style="fill:#263238;" d="M616.31,241.68c0,0.12-0.1,0.23-0.23,0.23c-0.12,0-0.23-0.1-0.23-0.23c0-0.12,0.1-0.23,0.23-0.23
					C616.21,241.46,616.31,241.56,616.31,241.68z"/>
			</g>
			<g>
				<path style="fill:#263238;" d="M568.11,241.91c0,0.12-0.1,0.23-0.23,0.23c-0.12,0-0.23-0.1-0.23-0.23c0-0.12,0.1-0.23,0.23-0.23
					C568.01,241.68,568.11,241.78,568.11,241.91z"/>
			</g>
			<g>
				<g>
					<path style="fill:#4484FF;" d="M618.22,252.57c0.01,0.03-0.25,0.06-0.68,0.25c-0.43,0.19-1.03,0.58-1.63,1.25
						c-0.61,0.67-1.22,1.6-2,2.65c-0.39,0.52-0.82,1.07-1.36,1.59c-0.27,0.26-0.57,0.51-0.89,0.74c-0.33,0.22-0.68,0.43-1.07,0.59
						c-0.78,0.32-1.67,0.48-2.58,0.44c-0.45-0.02-0.92-0.05-1.39-0.17c-0.47-0.1-0.94-0.3-1.35-0.59c-0.41-0.29-0.77-0.68-1.05-1.1
						c-0.29-0.42-0.55-0.86-0.8-1.31c-0.5-0.9-1.01-1.8-1.6-2.7c-0.58-0.92-1.11-1.89-1.71-2.84c-0.6-0.95-1.25-1.89-2.08-2.68
						c-0.43-0.37-0.87-0.75-1.39-0.99c-0.25-0.15-0.53-0.22-0.79-0.32c-0.14-0.04-0.28-0.06-0.42-0.09l-0.21-0.05
						c-0.07-0.01-0.14-0.01-0.22-0.02c-1.15-0.1-2.37,0.14-3.41,0.73c-1.05,0.6-1.89,1.48-2.61,2.43c-0.72,0.95-1.3,1.99-1.88,3.01
						c-1.14,2.06-2.39,4.01-4.04,5.48c-0.83,0.72-1.78,1.31-2.81,1.57c-0.51,0.15-1.04,0.18-1.55,0.17
						c-0.52-0.02-1.01-0.13-1.49-0.28c-0.94-0.31-1.76-0.81-2.5-1.31c-0.74-0.51-1.41-1.04-2.07-1.51c-0.66-0.48-1.3-0.9-1.96-1.19
						c-0.66-0.3-1.32-0.49-1.94-0.56c-0.63-0.07-1.22-0.03-1.75,0.11c-0.13,0.02-0.25,0.08-0.38,0.12
						c-0.12,0.05-0.25,0.07-0.35,0.14c-0.22,0.12-0.44,0.2-0.62,0.34c-0.38,0.23-0.67,0.51-0.94,0.74
						c-0.23,0.26-0.45,0.46-0.59,0.65c-0.29,0.38-0.45,0.58-0.46,0.57c-0.01-0.01,0.12-0.22,0.39-0.62c0.13-0.2,0.34-0.42,0.57-0.69
						c0.26-0.24,0.55-0.54,0.93-0.79c0.18-0.15,0.41-0.24,0.63-0.37c0.11-0.07,0.24-0.1,0.37-0.15c0.13-0.04,0.25-0.11,0.39-0.14
						c0.55-0.16,1.17-0.21,1.83-0.15c0.66,0.06,1.35,0.25,2.04,0.55c0.69,0.29,1.36,0.72,2.03,1.19c0.67,0.47,1.35,0.99,2.08,1.48
						c0.73,0.49,1.53,0.96,2.41,1.24c0.44,0.13,0.91,0.23,1.38,0.25c0.48,0,0.96-0.03,1.43-0.17c0.96-0.24,1.84-0.8,2.63-1.49
						c1.58-1.41,2.81-3.34,3.93-5.38c0.57-1.02,1.16-2.08,1.9-3.07c0.74-0.98,1.62-1.92,2.75-2.56c1.13-0.63,2.43-0.89,3.69-0.78
						c0.08,0.01,0.16,0.01,0.24,0.02l0.23,0.05c0.15,0.03,0.31,0.06,0.46,0.1c0.29,0.12,0.6,0.19,0.87,0.36
						c0.57,0.27,1.04,0.67,1.49,1.06c0.87,0.84,1.54,1.81,2.14,2.77c0.6,0.97,1.13,1.94,1.69,2.85c0.58,0.91,1.1,1.84,1.59,2.73
						c0.5,0.88,0.98,1.76,1.72,2.29c0.36,0.27,0.78,0.45,1.22,0.54c0.43,0.11,0.88,0.15,1.31,0.17c0.87,0.05,1.7-0.09,2.44-0.38
						c0.37-0.15,0.71-0.34,1.02-0.54c0.31-0.22,0.6-0.44,0.86-0.7c0.53-0.49,0.96-1.03,1.36-1.53c0.78-1.02,1.43-1.95,2.07-2.61
						c0.64-0.67,1.27-1.05,1.73-1.22c0.23-0.08,0.41-0.13,0.53-0.14C618.15,252.57,618.22,252.57,618.22,252.57z"/>
				</g>
			</g>
			<g>
				<rect x="567.66" y="232.61" style="fill:#263238;" width="11.11" height="0.62"/>
			</g>
			<g>
				<rect x="567.66" y="234.05" style="fill:#263238;" width="5.49" height="0.62"/>
			</g>
		</g>
		<g>
			<rect x="557.3" y="224.03" style="fill:#263238;" width="68.63" height="4.29"/>
		</g>
	</g>
</g>
<g id="Desk">
	<g>
		<path style="fill:#263238;" d="M575.1,367.92c0,0.1-87.55,0.18-195.52,0.18c-108.01,0-195.54-0.08-195.54-0.18
			s87.53-0.18,195.54-0.18C487.55,367.74,575.1,367.82,575.1,367.92z"/>
	</g>
</g>
</svg>
